SplineFontDB: 3.0
FontName: TlwgTypewriter-BoldOblique
FullName: Tlwg Typewriter Bold Oblique
FamilyName: TlwgTypewriter
Weight: Bold
Copyright: Tlwg Typewriter-Bold, Free Thai Pseudo Monospace outline font. Copyright (C) 2003, 2004 Poonlap Veerathanabutr <poonlap@linux.thai.net>
UComments: "2003-11-25: Created. +AAoA-PfaEdit 1.0 (http://pfaedit.sf.net).+AAoACgAA-TLWG is Thai Linux Working Group http://linux.thai.net+AAoACgAA-Imported ISO-8859-1 from FreeMono.sfd.+AAoA-http://www.nongnu.org/freefont/+AAoACgAA"
Version: 002.008
ItalicAngle: -12
UnderlinePosition: -100
UnderlineWidth: 50
Ascent: 800
Descent: 200
InvalidEm: 0
LayerCount: 2
Layer: 0 0 "Back" 1
Layer: 1 0 "Fore" 0
FSType: 0
OS2Version: 4
OS2_WeightWidthSlopeOnly: 0
OS2_UseTypoMetrics: 0
CreationTime: 1153666223
ModificationTime: 1532420488
PfmFamily: 49
TTFWeight: 700
TTFWidth: 5
LineGap: 90
VLineGap: 0
Panose: 2 0 6 3 0 0 0 0 0 0
OS2TypoAscent: 0
OS2TypoAOffset: 1
OS2TypoDescent: 0
OS2TypoDOffset: 1
OS2TypoLinegap: 0
OS2WinAscent: 0
OS2WinAOffset: 1
OS2WinDescent: 0
OS2WinDOffset: 1
HheadAscent: 0
HheadAOffset: 1
HheadDescent: 0
HheadDOffset: 1
OS2Vendor: 'PfEd'
Lookup: 6 0 0 "'ccmp' Thai Tone Tilde Reordering" { "'ccmp' Thai Tone Tilde Reordering"  } ['ccmp' ('DFLT' <'dflt' > 'latn' <'dflt' > 'thai' <'KUY ' 'MLY ' 'PAL ' 'SAN ' 'THA ' 'dflt' > ) ]
Lookup: 6 0 0 "'ccmp' Thai Tone Macron Reordering" { "'ccmp' Thai Tone Macron Reordering"  } ['ccmp' ('DFLT' <'dflt' > 'latn' <'dflt' > 'thai' <'KUY ' 'MLY ' 'PAL ' 'SAN ' 'THA ' 'dflt' > ) ]
Lookup: 6 0 0 "'ccmp' Thai Below Vowel Macron Reordering" { "'ccmp' Thai Below Vowel Macron Reordering"  } ['ccmp' ('DFLT' <'dflt' > 'latn' <'dflt' > 'thai' <'KUY ' 'MLY ' 'PAL ' 'SAN ' 'THA ' 'dflt' > ) ]
Lookup: 4 0 0 "'ccmp' Patani Malay Ligatures" { "'ccmp' Patani Malay Ligatures"  } ['ccmp' ('DFLT' <'dflt' > 'thai' <'KUY ' 'MLY ' 'PAL ' 'SAN ' 'THA ' 'dflt' > ) ]

StartChar: micro
Encoding: 181 181 0
Width: 600
Flags: W
HStem: -16 100<226.298 372.242> 0 21G<410 527.5> 337 100<108.637 167 405 482>
DStem2: 62.9713 -153 162.971 -153 0.207912 0.978148<41.5781 170.052 303.517 500.921> 377.146 -153 477.223 -153 0.207912 0.978148<281.097 501.093>
LayerCount: 2
Fore
SplineSet
583 62 m 0xa0
 583 19 550 0 505 0 c 2
 410 0 l 1x60
 415 22 l 1
 355 -4 302 -16 250 -16 c 0
 229 -16 213 -13 194 -7 c 1
 177 -87 l 2
 168 -130 147 -153 112 -153 c 0
 86 -153 73 -139 73 -113 c 0
 73 -105 75 -97 77 -87 c 2
 167 337 l 1
 151 337 l 2
 115 337 94 348 94 374 c 0
 94 418 126 437 172 437 c 2
 288 437 l 1
 226 144 l 2
 224 136 223 129 223 123 c 0
 223 95 240 84 278 84 c 0
 322 84 367 99 439 138 c 1
 482 337 l 1
 447 337 l 2
 411 337 390 349 390 374 c 0
 390 418 423 437 468 437 c 2
 603 437 l 1
 531 100 l 1
 565 100 583 86 583 62 c 0xa0
EndSplineSet
Validated: 1
EndChar

StartChar: uni0E31
Encoding: 3633 3633 1
Width: 0
Flags: W
HStem: 502 60<-164.744 -62.5> 642 55<-154.302 -86.1506>
VStem: -210 44<563.848 630.763> -84 53<599.957 659.5>
AnchorPoint: "AboveMark" -23 500 mark 0
AnchorPoint: "AboveMark" 19 700 basemark 0
AnchorPoint: "AboveBase" 31 500 mark 0
LayerCount: 2
Fore
SplineSet
-116 642 m 0
 -143 642 -166 612 -166 592 c 0
 -166 574 -152 562 -133 562 c 0
 -111 562 -84 579 -84 608 c 0
 -84 626 -97 642 -116 642 c 0
-210 583 m 0
 -210 626 -167 697 -104 697 c 16
 -70 697 -31 676 -31 643 c 0
 -31 630 -36 615 -40 599 c 1
 18 599 69 659 99 682 c 9
 150 621 l 17
 95 564 63 539 -4 515 c 16
 -30 505 -52 502 -73 502 c 0
 -99 502 -122 507 -149 514 c 0
 -184 523 -210 547 -210 583 c 0
EndSplineSet
Validated: 1
EndChar

StartChar: uni0E34
Encoding: 3636 3636 2
Width: 0
Flags: W
HStem: 500 57<-252 -78> 586 80<-247.626 -78.4219>
AnchorPoint: "AboveMark" -47 500 mark 0
AnchorPoint: "AboveMark" -4 700 basemark 0
AnchorPoint: "AboveBase" -3 500 mark 0
LayerCount: 2
Fore
SplineSet
-128 586 m 2
 -182 586 l 2
 -213 586 -246 583 -252 557 c 9
 -79 557 l 17
 -78 560 -78 562 -78 564 c 0
 -78 584 -103 586 -128 586 c 2
-136 666 m 0
 -51 666 3 641 3 558 c 0
 3 541 1 522 -4 500 c 9
 -344 500 l 17
 -317 626 -248 666 -136 666 c 0
EndSplineSet
Validated: 1
EndChar

StartChar: uni0E35
Encoding: 3637 3637 3
Width: 0
Flags: W
HStem: 500 72<-277 -149> 603 65<-272.908 -149.66>
AnchorPoint: "AboveMark" -17 500 mark 0
AnchorPoint: "AboveMark" 25 700 basemark 0
AnchorPoint: "AboveBase" 26 500 mark 0
LayerCount: 2
Fore
SplineSet
-204 603 m 8
 -233 603 -271 602 -277 572 c 9
 -149 572 l 17
 -149 574 -148 576 -148 578 c 0
 -148 600 -179 603 -204 603 c 8
-190 668 m 0
 -100 668 -53 642 -50 572 c 9
 -30 668 l 25
 67 668 l 25
 31 500 l 25
 -394 500 l 17
 -371 606 -298 668 -190 668 c 0
EndSplineSet
Validated: 1
EndChar

StartChar: uni0E36
Encoding: 3638 3638 4
Width: 0
Flags: W
HStem: 500 64<-284 -149> 500 49<-82.15 -18> 594 72<-280.367 -150.259> 642 44<-70.7845 -0.314444>
VStem: -149 62<564.486 589.509> 5 46<563.083 638.251>
AnchorPoint: "AboveMark" -61 500 mark 0
AnchorPoint: "AboveMark" -18 700 basemark 0
AnchorPoint: "AboveBase" 26 500 mark 0
LayerCount: 2
Fore
SplineSet
-48 549 m 0x5c
 -21 549 5 582 5 602 c 0
 5 620 -10 642 -32 642 c 0
 -58 642 -87 609 -87 589 c 0
 -87 571 -71 549 -48 549 c 0x5c
-218 594 m 0xac
 -240 594 -279 589 -284 564 c 9
 -149 564 l 17
 -149 590 -177 594 -218 594 c 0xac
-219 666 m 16
 -173 666 -112 633 -112 633 c 1
 -112 633 -59 686 -22 686 c 16
 21 686 51 657 51 617 c 0
 51 518 -87 500 -87 500 c 9
 -390 500 l 17x5c
 -362 630 -302 666 -219 666 c 16
EndSplineSet
Validated: 1
EndChar

StartChar: uni0E37
Encoding: 3639 3639 5
Width: 0
Flags: W
HStem: 500 76<-301 -202 -56 -20> 605 63<-298.536 -201.521>
DStem2: -36.1543 500 30 500 0.207912 0.978148<77.6979 169.889>
AnchorPoint: "AboveMark" -54 500 mark 0
AnchorPoint: "AboveMark" -11 700 basemark 0
AnchorPoint: "AboveBase" 26 500 mark 0
LayerCount: 2
Fore
SplineSet
-249 605 m 8
 -270 605 -295 603 -301 576 c 9
 -202 576 l 17
 -202 578 -201 580 -201 582 c 0
 -201 600 -224 605 -249 605 c 8
-235 668 m 16
 -175 668 -145 635 -124 576 c 9
 -104 667 l 25
 -36 667 l 25
 -56 576 l 25
 -20 576 l 25
 0 666 l 25
 66 666 l 25
 30 500 l 25
 -383 500 l 17
 -355 631 -314 668 -235 668 c 16
EndSplineSet
Validated: 1
EndChar

StartChar: uni0E48
Encoding: 3656 3656 6
Width: 0
Flags: W
HStem: 700 155<13 77>
VStem: -20 130
DStem2: -20 700 77 700 0.207912 0.978148<20.1674 158.474>
AnchorPoint: "AboveMark" 67 880 basemark 0
AnchorPoint: "AboveMark" 28 700 mark 0
LayerCount: 2
Fore
SplineSet
13 855 m 1
 110 855 l 1
 77 700 l 1
 -20 700 l 1
 13 855 l 1
EndSplineSet
Validated: 1
Substitution2: "Thai Mai Ek Macron Reordering" macronbelowcmb
Substitution2: "Thai Mai Ek Tilde Reordering" tildecomb
MultipleSubs2: "Thai Tone Nikhahit Attachment" uni0E4D uni0E48
Substitution2: "Thai Tone Low Variant" uni0E48.low
Substitution2: "Thai Sara U Mai Ek Reordering" uni0E38
Substitution2: "Thai Sara UU Mai Ek Reordering" uni0E39
Substitution2: "Thai Phinthu Mai Ek Reordering" uni0E3A
EndChar

StartChar: uni0E49
Encoding: 3657 3657 7
Width: 0
Flags: W
HStem: 700 108<-62.8193 -3.21143> 700 79<-115 -71> 871 33<-55.3406 -1.03113>
VStem: -106 43<808.483 866.016> 1 43<812.703 870.643>
AnchorPoint: "AboveMark" 36 929 basemark 0
AnchorPoint: "AboveMark" -12 700 mark 0
LayerCount: 2
Fore
SplineSet
-38 808 m 0xb8
 -14 808 1 830 1 845 c 0
 1 860 -9 871 -25 871 c 0
 -44 871 -63 854 -63 833 c 0
 -63 818 -53 808 -38 808 c 0xb8
-106 827 m 0
 -106 863 -69 904 -18 904 c 16
 15 904 44 879 44 850 c 0
 44 824 17 782 17 781 c 2
 17 781 100 796 138 847 c 9
 196 813 l 17
 196 813 159 755 124 732 c 24
 83 706 18 700 9 700 c 2
 -132 700 l 9
 -115 779 l 17
 -71 779 l 1x78
 -71 779 -106 793 -106 827 c 0
EndSplineSet
Validated: 1
Substitution2: "Thai Mai Tho Macron Reordering" macronbelowcmb
Substitution2: "Thai Mai Tho Tilde Reordering" tildecomb
MultipleSubs2: "Thai Tone Nikhahit Attachment" uni0E4D uni0E49
Substitution2: "Thai Tone Low Variant" uni0E49.low
Substitution2: "Thai Sara U Mai Tho Reordering" uni0E38
Substitution2: "Thai Sara UU Mai Tho Reordering" uni0E39
Substitution2: "Thai Phinthu Mai Tho Reordering" uni0E3A
EndChar

StartChar: uni0E4A
Encoding: 3658 3658 8
Width: 0
Flags: W
HStem: 697 25<-197.296 -164.816>
VStem: -236 38<722.068 773.893> -162 36<722.447 757.991> -4 67<753.5 815.5>
DStem2: 58 769 71 700 0.503871 0.863779<0 160.015>
AnchorPoint: "AboveMark" -46 899 basemark 0
AnchorPoint: "AboveMark" -88 700 mark 0
LayerCount: 2
Fore
SplineSet
-176 758 m 0
 -190 758 -198 746 -198 736 c 0
 -198 729 -194 722 -184 722 c 0
 -170 722 -162 734 -162 744 c 0
 -162 751 -166 758 -176 758 c 0
-236 757 m 0
 -236 790 -189 874 -122 874 c 24
 -92 874 -68 831 -68 831 c 1
 -68 831 -32 873 -5 873 c 16
 27 873 42 863 57 840 c 16
 62 832 63 821 63 810 c 0
 63 790 58 769 58 769 c 9
 139 907 l 25
 183 892 l 25
 71 700 l 1
 -17 700 l 17
 -8 724 -4 744 -4 763 c 0
 -4 780 -7 796 -13 810 c 9
 -50 775 l 25
 -105 775 l 17
 -136 813 l 1
 -148 804 -156 792 -159 778 c 1
 -145 776 -126 767 -126 751 c 0
 -126 730 -154 697 -185 697 c 0
 -218 697 -236 729 -236 757 c 0
EndSplineSet
Validated: 1
Substitution2: "Thai Mai Tri Macron Reordering" macronbelowcmb
Substitution2: "Thai Mai Tri Tilde Reordering" tildecomb
MultipleSubs2: "Thai Tone Nikhahit Attachment" uni0E4D uni0E4A
Substitution2: "Thai Tone Low Variant" uni0E4A.low
Substitution2: "Thai Sara U Mai Tri Reordering" uni0E38
Substitution2: "Thai Sara UU Mai Tri Reordering" uni0E39
Substitution2: "Thai Phinthu Mai Tri Reordering" uni0E3A
EndChar

StartChar: uni0E4B
Encoding: 3659 3659 9
Width: 0
Flags: W
HStem: 773 72<-40 22 140 212>
VStem: -56 284
AnchorPoint: "AboveMark" 111 951 basemark 0
AnchorPoint: "AboveMark" 57 700 mark 0
LayerCount: 2
Fore
SplineSet
22 773 m 1
 -56 773 l 1
 -40 846 l 1
 38 846 l 1
 55 926 l 1
 157 926 l 1
 140 845 l 1
 228 845 l 1
 212 773 l 1
 124 773 l 1
 109 700 l 1
 7 700 l 1
 22 773 l 1
EndSplineSet
Validated: 1
Substitution2: "Thai Mai Chattawa Macron Reordering" macronbelowcmb
Substitution2: "Thai Mai Chattawa Tilde Reordering" tildecomb
MultipleSubs2: "Thai Tone Nikhahit Attachment" uni0E4D uni0E4B
Substitution2: "Thai Tone Low Variant" uni0E4B.low
Substitution2: "Thai Sara U Mai Chattawa Reordering" uni0E38
Substitution2: "Thai Sara UU Mai Chattawa Reordering" uni0E39
Substitution2: "Thai Phinthu Mai Chattawa Reordering" uni0E3A
EndChar

StartChar: uni0E4C
Encoding: 3660 3660 10
Width: 0
Flags: W
HStem: 695 41<-27.1165 32.1018>
VStem: -74 46<737.115 794.727> 38 48<740.62 772>
DStem2: 15 849 86 772 0.890605 0.454777<13.2642 186.534>
AnchorPoint: "AboveMark" 33 899 basemark 0
AnchorPoint: "AboveMark" -9 700 mark 0
LayerCount: 2
Back
SplineSet
12 800 m 0
 -12 800 -28 778 -28 761 c 0
 -28 746 -18 736 -2 736 c 0
 22 736 38 758 38 775 c 0
 38 790 28 800 12 800 c 0
1 695 m 0
 -22 695 -74 707 -74 754 c 0
 -74 809 -15 836 15 849 c 16
 62 870 128 903 199 938 c 25
 227 844 l 25
 86 772 l 1
 86 772 87 740 72 726 c 16
 50 705 26 695 1 695 c 0
EndSplineSet
Fore
SplineSet
12 800 m 0
 -12 800 -28 778 -28 761 c 0
 -28 746 -18 736 -2 736 c 0
 22 736 38 758 38 775 c 0
 38 790 28 800 12 800 c 0
1 695 m 0
 -22 695 -74 707 -74 754 c 0
 -74 809 -15 836 15 849 c 16
 62 870 128 903 199 938 c 25
 227 844 l 25
 86 772 l 1
 86 765 85 738 72 726 c 0
 50 705 26 695 1 695 c 0
EndSplineSet
Validated: 1
Substitution2: "Thai Thanthakhat Macron Reordering" macronbelowcmb
MultipleSubs2: "Thai Tone Nikhahit Attachment" uni0E4D uni0E4C
Substitution2: "Thai Tone Low Variant" uni0E4C.low
Substitution2: "Thai Sara U Thanthakhat Reordering" uni0E38
Substitution2: "Thai Sara UU Thanthakhat Reordering" uni0E39
Substitution2: "Thai Phinthu Thanthakhat Reordering" uni0E3A
EndChar

StartChar: uni0E4D
Encoding: 3661 3661 11
Width: 0
Flags: W
HStem: 500 70<-109.496 -50.7697> 619 63<-88.9581 -29.304>
VStem: -158 68<570.523 616.573>
AnchorPoint: "AboveMark" -46 700 basemark 0
AnchorPoint: "AboveBase" 26 500 mark 0
LayerCount: 2
Fore
SplineSet
-63 619 m 0
 -70 619 -90 607 -90 591 c 0
 -90 579 -79 570 -74 570 c 0
 -69 570 -52 581 -49 595 c 0
 -46 608 -58 619 -63 619 c 0
-158 573 m 0
 -158 639 -97 682 -50 682 c 0
 -10 682 17 651 17 613 c 0
 17 561 -34 500 -89 500 c 0
 -129 500 -158 531 -158 573 c 0
EndSplineSet
Validated: 1
Substitution2: "Thai Mark High Variant" uni0E4D.high
Substitution2: "Thai Sara U Nikhahit Reordering" uni0E38
Substitution2: "Thai Sara UU Nikhahit Reordering" uni0E39
Substitution2: "Thai Phinthu Nikhahit Reordering" uni0E3A
EndChar

StartChar: exclam
Encoding: 33 33 13
Width: 600
Flags: W
HStem: -15 132<263.246 360.359> 618 20G<413.5 457>
VStem: 234 154<13.6636 88.1026> 299 99<192.671 250.355> 339 163<492.516 601.923>
LayerCount: 2
Fore
SplineSet
502 576 m 0xc8
 502 555 502 559 491 525 c 2
 398 228 l 2xd0
 389 197 367 179 339 179 c 0xc8
 313 179 299 195 299 221 c 2
 299 228 l 1xd0
 334 525 l 2
 335 537 337 551 339 558 c 0
 348 604 390 638 437 638 c 0
 477 638 502 612 502 576 c 0xc8
388 65 m 0xe0
 388 27 353 -15 306 -15 c 2
 289 -15 l 2
 257 -15 234 8 234 37 c 0
 234 83 279 117 317 117 c 2
 334 117 l 2
 366 117 388 95 388 65 c 0xe0
EndSplineSet
Validated: 1
EndChar

StartChar: quotedbl
Encoding: 34 34 14
Width: 600
Flags: W
HStem: 312 290<264 300.733 464 500.733>
LayerCount: 2
Fore
SplineSet
264 602 m 1
 392 602 l 1
 307 348 l 2
 298 322 287 312 267 312 c 0
 251 312 243 319 243 337 c 0
 243 340 244 343 244 347 c 2
 264 602 l 1
464 602 m 1
 592 602 l 1
 507 348 l 2
 498 322 487 312 467 312 c 0
 451 312 443 319 443 337 c 0
 443 340 444 343 444 347 c 2
 464 602 l 1
EndSplineSet
Validated: 1
EndChar

StartChar: numbersign
Encoding: 35 35 15
Width: 600
Flags: W
HStem: 139 99<115.099 184 312 356 483 544.75> 344 100<178.41 241 370 413 541 608.363>
DStem2: 138 -22 236 -29 0.271425 0.96246<-30.9265 167.442 297.467 380.217 511.477 710.79> 310 -22 408 -29 0.271425 0.96246<-31.197 167.442 297.196 380.217 511.205 710.519>
LayerCount: 2
Fore
SplineSet
164 381 m 0
 164 426 195 444 243 444 c 2
 269 444 l 1
 317 612 l 2
 329 653 346 675 381 675 c 0
 404 675 424 656 424 636 c 0
 424 633 422 630 421 627 c 2
 421 627 387 504 370 444 c 1
 441 444 l 1
 489 612 l 2
 501 653 518 675 553 675 c 0
 576 675 595 656 595 636 c 0
 595 633 594 630 593 627 c 2
 541 444 l 1
 566 444 l 2
 603 444 623 432 623 407 c 0
 623 362 591 344 545 344 c 2
 513 344 l 1
 483 238 l 1
 502 238 l 2
 540 238 559 227 559 201 c 0
 559 157 527 139 482 139 c 2
 455 139 l 1
 408 -29 l 2
 394 -79 363 -92 342 -92 c 0
 319 -92 303 -74 303 -53 c 0
 303 -41 306 -33 310 -22 c 2
 310 -22 341 86 356 139 c 1
 284 139 l 1
 236 -29 l 2
 224 -70 208 -92 172 -92 c 0
 147 -92 132 -76 132 -53 c 0
 132 -41 134 -34 138 -22 c 2
 184 139 l 1
 158 139 l 2
 122 139 101 150 101 176 c 0
 101 220 133 238 179 238 c 2
 212 238 l 1
 241 344 l 1
 222 344 l 2
 184 344 164 355 164 381 c 0
413 344 m 1
 342 344 l 1
 312 238 l 1
 384 238 l 1
 413 344 l 1
EndSplineSet
Validated: 1
EndChar

StartChar: dollar
Encoding: 36 36 16
Width: 600
Flags: W
HStem: -123 247<259.064 360> 495 189<401.276 476.552>
VStem: 196 106<392.233 467.805> 457 107<162.953 247.188>
DStem2: 225.759 -123 324.759 -123 0.207912 0.978148<41.8308 153.828 751.612 804.957> 366 377 319 280 0.977802 -0.209529<-65.372 116.867>
LayerCount: 2
Fore
SplineSet
326 124 m 0
 394 124 457 158 457 213 c 0
 457 240 435 255 389 265 c 2
 319 280 l 2
 238 297 196 339 196 401 c 0
 196 504 282 576 378 592 c 1
 383 618 l 2
 392 661 412 684 447 684 c 0
 473 684 486 671 486 645 c 0
 486 637 484 628 482 618 c 2
 477 592 l 1
 501 587 518 584 540 574 c 1
 552 579 560 581 569 581 c 0
 597 581 608 565 608 540 c 0
 608 532 607 524 605 515 c 2
 599 483 l 2
 590 439 570 417 535 417 c 0
 508 417 492 432 492 459 c 0
 492 478 456 495 415 495 c 0
 355 495 302 469 302 424 c 0
 302 402 323 386 366 377 c 2
 428 363 l 2
 467 354 564 335 564 237 c 0
 564 123 473 48 357 27 c 1
 339 -56 l 2
 330 -100 310 -123 276 -123 c 0
 249 -123 237 -109 237 -83 c 0
 237 -75 238 -66 240 -56 c 2
 258 27 l 1
 218 36 213 38 184 52 c 1
 165 38 155 34 141 34 c 0
 114 34 101 48 101 75 c 0
 101 83 102 91 104 101 c 2
 117 162 l 2
 126 206 147 229 182 229 c 0
 220 229 222 197 222 185 c 0
 222 149 268 124 326 124 c 0
EndSplineSet
Validated: 1
EndChar

StartChar: percent
Encoding: 37 37 17
Width: 600
Flags: W
HStem: -15 65<332.528 434.388> 199 65<355.125 457.808> 338 65<267.77 369.779> 552 65<290.125 392.808>
VStem: 188 66<416.715 517.021> 253 66<63.7148 164.021> 406 66<439.591 538.624> 471 66<86.1246 185.624>
DStem2: 555 390 174 213 0.956524 0.291653<-437.128 20.9873>
LayerCount: 2
Fore
SplineSet
188 448 m 0xfa
 188 532 269 617 359 617 c 0
 427 617 472 571 472 507 c 0
 472 421 390 338 301 338 c 0
 234 338 188 385 188 448 c 0xfa
314 403 m 0
 360 403 406 446 406 493 c 0
 406 527 381 552 345 552 c 0
 301 552 254 510 254 462 c 0
 254 429 279 403 314 403 c 0
599 369 m 0
 599 339 567 333 561 331 c 2
 174 213 l 2
 167 211 157 209 153 209 c 0
 140 209 130 221 130 235 c 0
 130 257 148 266 168 272 c 2
 555 390 l 2
 568 394 570 394 576 394 c 0
 589 394 599 383 599 369 c 0
253 95 m 0xf5
 253 179 334 264 424 264 c 0
 492 264 537 218 537 154 c 0
 537 59 447 -15 365 -15 c 0
 299 -15 253 32 253 95 c 0xf5
380 50 m 0
 423 50 471 91 471 140 c 0
 471 174 446 199 410 199 c 0
 366 199 319 157 319 109 c 0
 319 76 344 50 380 50 c 0
EndSplineSet
Validated: 1
EndChar

StartChar: ampersand
Encoding: 38 38 18
Width: 600
Flags: W
HStem: -14 100<211.229 332.362> 0 100<455 505.069> 450 100<337.1 429.22>
VStem: 102 102<96.3931 185.927> 219 102<333.691 433.265>
LayerCount: 2
Fore
SplineSet
386 450 m 0xb8
 358 450 321 426 321 394 c 0
 321 383 327 366 338 343 c 2
 407 198 l 1
 448 280 l 1
 501 280 l 2
 539 280 557 269 557 243 c 0
 557 208 530 182 502 180 c 1
 482 139 471 121 455 100 c 1
 463 100 l 2
 500 100 520 88 520 63 c 0
 520 18 487 0 442 0 c 2
 381 0 l 1x78
 373 15 l 1
 339 -6 307 -14 254 -14 c 0
 159 -14 102 33 102 108 c 0
 102 192 159 264 235 303 c 1
 223 334 219 353 219 372 c 0
 219 471 321 550 406 550 c 0
 430 550 449 545 472 533 c 1
 485 537 495 540 502 540 c 0
 524 540 540 521 540 499 c 0
 540 468 524 456 487 438 c 2
 441 416 l 1
 418 442 406 450 386 450 c 0xb8
333 100 m 1
 275 220 l 1
 235 203 204 172 204 130 c 0
 204 101 227 86 275 86 c 0xb8
 300 86 312 89 333 100 c 1
EndSplineSet
Validated: 1
EndChar

StartChar: quotesingle
Encoding: 39 39 19
Width: 600
Flags: W
HStem: 312 290<364 400.733>
VStem: 343 149
LayerCount: 2
Fore
SplineSet
364 602 m 1
 492 602 l 1
 407 348 l 2
 398 322 387 312 367 312 c 0
 351 312 343 319 343 337 c 0
 343 340 344 343 344 347 c 2
 364 602 l 1
EndSplineSet
Validated: 1
EndChar

StartChar: parenleft
Encoding: 40 40 20
Width: 600
Flags: W
HStem: 612 20G<560 583.5>
VStem: 304 111<1.14342 275.784>
LayerCount: 2
Fore
SplineSet
467 -93 m 0
 467 -126 435 -153 404 -153 c 0
 380 -153 370 -142 351 -95 c 0
 320 -20 304 56 304 131 c 0
 304 313 406 474 505 587 c 0
 536 622 549 632 571 632 c 0
 596 632 613 615 613 593 c 0
 613 576 605 564 593 549 c 0
 500 438 415 305 415 142 c 0
 415 21 467 -75 467 -93 c 0
EndSplineSet
Validated: 1
EndChar

StartChar: parenright
Encoding: 41 41 21
Width: 600
Flags: W
HStem: 612 20G<283 314>
VStem: 291 112<206.707 478.964>
LayerCount: 2
Fore
SplineSet
239 572 m 0
 239 598 264 632 302 632 c 0
 326 632 337 621 356 574 c 0
 387 499 403 423 403 348 c 0
 403 165 298 2 202 -109 c 0
 171 -144 157 -153 135 -153 c 0
 110 -153 94 -137 94 -115 c 0
 94 -97 99 -88 114 -70 c 0
 207 41 291 174 291 337 c 0
 291 461 239 557 239 572 c 0
EndSplineSet
Validated: 1
EndChar

StartChar: asterisk
Encoding: 42 42 22
Width: 600
Flags: W
HStem: 400 102<194.036 218 529 595.358> 602 20G<413.5 442>
DStem2: 231 301 299 242 0.686624 0.727013<-57.7248 97.6217> 449 467 460 372 0.956674 0.291162<0 131.288>
LayerCount: 2
Fore
SplineSet
508 268 m 0
 508 242 480 208 446 208 c 0
 425 208 418 214 403 242 c 2
 367 314 l 1
 299 242 l 2
 273 214 262 208 242 208 c 0
 219 208 202 225 202 248 c 0
 202 269 215 284 231 301 c 2
 298 372 l 1
 218 400 l 2
 189 410 177 420 177 439 c 0
 177 472 208 502 237 502 c 0
 247 502 249 501 269 495 c 2
 349 467 l 1
 368 556 l 2
 376 596 395 622 432 622 c 0
 452 622 472 609 472 585 c 0
 472 578 471 570 468 556 c 2
 449 467 l 1
 541 495 l 2
 563 501 567 502 576 502 c 0
 598 502 614 484 614 462 c 0
 614 423 579 408 552 400 c 2
 460 372 l 1
 497 301 l 2
 505 286 508 277 508 268 c 0
EndSplineSet
Validated: 1
EndChar

StartChar: plus
Encoding: 43 43 23
Width: 600
Flags: W
HStem: 0 21G<286.5 317.5> 230 100<114.637 299 420 604.296>
DStem2: 249.971 0 349.971 0 0.207912 0.978148<41.7859 235.168 358.14 552.499>
LayerCount: 2
Fore
SplineSet
619 293 m 0
 619 248 587 230 540 230 c 2
 399 230 l 1
 364 66 l 2
 355 23 335 0 300 0 c 0
 273 0 261 14 261 40 c 0
 261 48 262 56 264 66 c 2
 299 230 l 1
 157 230 l 2
 120 230 100 242 100 267 c 0
 100 312 132 330 178 330 c 2
 320 330 l 1
 355 494 l 2
 364 537 385 560 419 560 c 0
 446 560 458 547 458 521 c 0
 458 513 457 504 455 494 c 2
 420 330 l 1
 561 330 l 2
 599 330 619 319 619 293 c 0
EndSplineSet
Validated: 1
EndChar

StartChar: comma
Encoding: 44 44 24
Width: 600
Flags: W
HStem: -158 292
VStem: 119 260
LayerCount: 2
Fore
SplineSet
247 134 m 1
 379 134 l 1
 182 -134 l 2
 170 -150 156 -158 144 -158 c 0
 129 -158 119 -148 119 -135 c 0
 119 -130 121 -122 126 -111 c 2
 247 134 l 1
EndSplineSet
Validated: 1
EndChar

StartChar: hyphen
Encoding: 45 45 25
Width: 600
Flags: W
HStem: 229 100<114.637 604.363>
LayerCount: 2
Fore
SplineSet
619 293 m 0
 619 248 587 229 541 229 c 2
 157 229 l 2
 120 229 100 241 100 266 c 0
 100 310 132 329 178 329 c 2
 562 329 l 2
 600 329 619 318 619 293 c 0
EndSplineSet
Validated: 1
EndChar

StartChar: period
Encoding: 46 46 26
Width: 600
Flags: W
HStem: -15 132<262.964 360.359>
VStem: 234 154<13.6636 88.1026>
LayerCount: 2
Fore
SplineSet
388 65 m 0
 388 27 353 -15 306 -15 c 2
 288 -15 l 2
 257 -15 234 8 234 37 c 0
 234 80 276 117 316 117 c 2
 334 117 l 2
 366 117 388 95 388 65 c 0
EndSplineSet
Validated: 1
EndChar

StartChar: slash
Encoding: 47 47 27
Width: 600
Flags: W
DStem2: 89 -27 170 -69 0.565032 0.825069<-49.2366 882.367>
LayerCount: 2
Fore
SplineSet
656 655 m 0
 656 637 641 618 635 610 c 2
 170 -69 l 2
 147 -102 133 -113 109 -113 c 0
 86 -113 68 -95 68 -73 c 0
 68 -58 76 -45 89 -27 c 2
 554 651 l 2
 577 685 592 695 615 695 c 0
 639 695 656 677 656 655 c 0
EndSplineSet
Validated: 1
EndChar

StartChar: zero
Encoding: 48 48 28
Width: 600
Flags: W
HStem: -15 100<260.698 382.435> 538 100<350.187 469.538>
VStem: 130 101<116.192 324.992> 502 101<302.789 504.75>
DStem2: 79.6967 -15 180.185 -15 0.207912 0.978148<238.675 517.999> 414.185 -15 513.697 -15 0.207912 0.978148<164.445 448.794>
LayerCount: 2
Fore
SplineSet
436 638 m 0
 555 638 603 552 603 446 c 0
 603 418 599 389 593 359 c 2
 573 264 l 2
 543 120 446 -15 297 -15 c 0
 178 -15 130 71 130 178 c 0
 130 205 133 235 139 264 c 2
 159 359 l 2
 190 503 287 638 436 638 c 0
261 366 m 2
 238 257 l 2
 233 235 231 214 231 196 c 0
 231 127 262 85 318 85 c 0
 389 85 450 153 472 257 c 2
 495 366 l 2
 500 388 502 408 502 426 c 0
 502 496 470 538 414 538 c 0
 343 538 283 470 261 366 c 2
EndSplineSet
Validated: 1
EndChar

StartChar: one
Encoding: 49 49 29
Width: 600
Flags: W
HStem: 0 100<105.795 271 371 514.069> 618 20G<404.545 481.725>
DStem2: 249.744 0 349.744 0 0.207912 0.978148<123.025 520.385> 262 583 266 486 0.971154 0.238453<-52.2736 75.5853>
LayerCount: 2
Fore
SplineSet
529 63 m 0
 529 19 496 0 451 0 c 2
 149 0 l 2
 103 0 92 20 92 38 c 0
 92 82 124 100 170 100 c 2
 271 100 l 1
 358 509 l 1
 266 486 l 2
 246 481 243 480 233 480 c 0
 211 480 197 496 197 519 c 0
 197 559 217 572 262 583 c 2
 486 638 l 1
 371 100 l 1
 472 100 l 2
 509 100 529 88 529 63 c 0
EndSplineSet
Validated: 1
EndChar

StartChar: two
Encoding: 50 50 30
Width: 600
Flags: W
HStem: 0 154<445.277 508> 0 100<228 437.532> 538 100<323.062 472.836>
VStem: 173 92<430.101 483.59> 500 102<410.567 510.763>
LayerCount: 2
Fore
SplineSet
173 460 m 0x78
 173 505 265 638 426 638 c 0
 532 638 602 575 602 485 c 0
 602 360 514 309 228 100 c 1
 429 100 l 1x78
 440 136 460 154 491 154 c 0
 511 154 531 141 531 117 c 0
 531 110 530 102 527 88 c 2
 508 0 l 1xb8
 54 0 l 1
 76 105 l 1
 471 382 500 411 500 464 c 0
 500 507 460 538 402 538 c 0
 299 538 265 451 265 451 c 1
 256 434 235 422 214 422 c 0
 190 422 173 439 173 460 c 0x78
EndSplineSet
Validated: 1
EndChar

StartChar: three
Encoding: 51 51 31
Width: 600
Flags: W
HStem: -15 100<173.283 405.52> 287 96<309.289 425.797> 538 100<317.633 487.64>
VStem: 470 101<137.174 247.999> 507 102<422.052 517.804>
LayerCount: 2
Fore
SplineSet
80 60 m 0xf0
 80 94 113 120 142 120 c 0
 182 120 153 85 286 85 c 0
 379 85 470 108 470 199 c 0xf0
 470 251 412 287 337 287 c 0
 309 287 294 301 294 322 c 0
 294 358 325 383 357 383 c 0
 441 383 507 410 507 477 c 0
 507 515 471 538 409 538 c 0
 294 538 297 477 245 477 c 0
 222 477 206 495 206 517 c 0
 206 585 331 638 437 638 c 0
 567 638 609 561 609 495 c 0xe8
 609 415 567 376 487 333 c 1
 544 302 571 262 571 213 c 0
 571 56 418 -15 268 -15 c 0
 153 -15 80 14 80 60 c 0xf0
EndSplineSet
Validated: 1
EndChar

StartChar: four
Encoding: 52 52 32
Width: 600
Flags: W
HStem: 0 100<265.854 368 468 505.002> 138 100<248 376 498 534.258> 602 20G<431.741 579>
DStem2: 122 221 248 238 0.630811 0.775936<92.6731 407.243> 346.744 0 446.744 0 0.207912 0.978148<123.025 141.067 264.247 490.771>
LayerCount: 2
Fore
SplineSet
520 62 m 0
 520 19 487 0 441 0 c 2
 309 0 l 2
 263 0 252 20 252 38 c 0
 252 82 285 100 330 100 c 2
 368 100 l 1
 376 138 l 1
 104 138 l 1
 122 221 l 1
 448 622 l 1
 579 622 l 1
 498 238 l 1
 532 238 549 224 549 200 c 0
 549 159 519 139 476 138 c 1
 468 100 l 1
 502 100 520 86 520 62 c 0
398 238 m 1
 449 480 l 1
 248 238 l 1
 398 238 l 1
EndSplineSet
Validated: 1
EndChar

StartChar: five
Encoding: 53 53 33
Width: 600
Flags: W
HStem: -15 100<189.282 404.574> 324 100<307.186 448.895> 522 100<330 595.363>
VStem: 475 103<150.143 296.202>
LayerCount: 2
Fore
SplineSet
83 73 m 0
 83 107 115 133 144 133 c 0
 192 133 159 85 295 85 c 0
 408 85 475 130 475 235 c 0
 475 290 442 324 386 324 c 0
 316 324 254 282 229 282 c 0
 204 282 189 299 189 324 c 0
 189 329 190 333 191 338 c 2
 251 622 l 1
 553 622 l 2
 590 622 610 610 610 585 c 0
 610 540 578 522 532 522 c 2
 330 522 l 1
 306 407 l 1
 344 418 379 424 408 424 c 0
 511 424 578 355 578 255 c 0
 578 75 437 -15 275 -15 c 0
 163 -15 83 22 83 73 c 0
EndSplineSet
Validated: 1
EndChar

StartChar: six
Encoding: 54 54 34
Width: 600
Flags: W
HStem: -15 100<289.577 421.648> 294 100<344.718 454.233> 535 103<452.761 622.512>
VStem: 154 108<115.524 227.166> 478 102<142.852 269.604>
LayerCount: 2
Fore
SplineSet
663 583 m 0
 663 549 629 522 600 522 c 0
 587 522 560 535 543 535 c 0
 437 535 326 447 277 324 c 1
 336 375 378 394 429 394 c 0
 519 394 580 326 580 235 c 0
 580 86 466 -15 328 -15 c 0
 206 -15 154 66 154 181 c 0
 154 430 359 638 559 638 c 0
 623 638 663 617 663 583 c 0
262 209 m 1
 262 125 284 85 352 85 c 0
 418 85 478 135 478 214 c 0
 478 260 446 294 400 294 c 0
 357 294 299 258 262 209 c 1
EndSplineSet
Validated: 1
EndChar

StartChar: seven
Encoding: 55 55 35
Width: 600
Flags: W
HStem: -1 21G<284 310> 468 154<207 269.723> 522 100<277.468 514>
LayerCount: 2
Fore
SplineSet
224 468 m 0xc0
 192 468 184 494 184 505 c 0
 184 512 186 521 189 534 c 2
 207 622 l 1xc0
 640 622 l 1
 619 523 l 1
 359 48 l 2
 339 12 323 -1 297 -1 c 0
 271 -1 255 17 255 41 c 0
 255 48 256 56 270 81 c 2
 514 522 l 1
 286 522 l 1xa0
 275 486 255 468 224 468 c 0xc0
EndSplineSet
Validated: 1
EndChar

StartChar: eight
Encoding: 56 56 36
Width: 600
Flags: W
HStem: -15 100<245.101 401.214> 263 101<308.703 425.422> 538 100<337.575 482.653>
VStem: 114 104<110.545 212.381> 186 100<385.883 491.964> 455 101<133.638 235.578> 506 103<410.77 514.115>
LayerCount: 2
Fore
SplineSet
609 490 m 0xea
 609 387 513 334 488 319 c 1
 533 286 556 246 556 199 c 0
 556 102 464 -15 296 -15 c 0
 184 -15 114 41 114 127 c 0xf4
 114 203 160 271 248 319 c 1
 206 351 186 386 186 425 c 0
 186 527 297 638 436 638 c 0
 538 638 609 574 609 490 c 0xea
377 364 m 0
 444 364 506 407 506 468 c 0
 506 510 470 538 414 538 c 0
 342 538 286 491 286 434 c 0xea
 286 392 321 364 377 364 c 0
318 85 m 0
 390 85 455 129 455 187 c 0
 455 231 415 263 356 263 c 0
 295 263 218 223 218 157 c 0xf4
 218 114 257 85 318 85 c 0
EndSplineSet
Validated: 1
EndChar

StartChar: nine
Encoding: 57 57 37
Width: 600
Flags: W
HStem: -15 103<155.989 326.239> 229 100<324.627 433.82> 538 100<356.782 488.923>
VStem: 198 102<353.396 482.861> 516 109<395.834 507.476>
LayerCount: 2
Fore
SplineSet
116 40 m 0
 116 74 149 101 178 101 c 0
 191 101 219 88 236 88 c 0
 342 88 453 176 502 299 c 1
 443 248 401 229 351 229 c 0
 260 229 198 297 198 388 c 0
 198 536 313 638 451 638 c 0
 573 638 625 557 625 442 c 0
 625 193 420 -15 220 -15 c 0
 156 -15 116 6 116 40 c 0
516 414 m 1
 516 498 494 538 426 538 c 0
 360 538 300 488 300 409 c 0
 300 363 332 329 378 329 c 0
 421 329 479 365 516 414 c 1
EndSplineSet
Validated: 1
EndChar

StartChar: colon
Encoding: 58 58 38
Width: 600
Flags: W
HStem: -15 132<262.964 360.359> 304 133<330.898 426.871>
VStem: 234 154<13.6636 88.1026> 302 154<333.21 408.103>
LayerCount: 2
Fore
SplineSet
388 65 m 0xe0
 388 27 353 -15 306 -15 c 2
 288 -15 l 2
 257 -15 234 8 234 37 c 0
 234 80 276 117 316 117 c 2
 334 117 l 2
 366 117 388 95 388 65 c 0xe0
456 385 m 0xd0
 456 347 421 304 374 304 c 2
 356 304 l 2
 325 304 302 327 302 356 c 0
 302 395 340 437 384 437 c 2
 402 437 l 2
 434 437 456 415 456 385 c 0xd0
EndSplineSet
Validated: 1
EndChar

StartChar: semicolon
Encoding: 59 59 39
Width: 600
Flags: W
HStem: 304 133<307.851 402.995>
VStem: 278 154<332.125 407.601>
LayerCount: 2
Fore
SplineSet
247 134 m 1
 379 134 l 1
 182 -134 l 2
 170 -150 156 -158 144 -158 c 0
 129 -158 119 -148 119 -135 c 0
 119 -130 121 -122 126 -111 c 2
 247 134 l 1
278 355 m 0
 278 390 307 437 369 437 c 0
 409 437 432 417 432 385 c 0
 432 352 405 304 341 304 c 0
 302 304 278 324 278 355 c 0
EndSplineSet
Validated: 1
EndChar

StartChar: less
Encoding: 60 60 40
Width: 600
Flags: W
DStem2: 310 279 102 280 0.870055 -0.492955<0 287.207> 102 280 310 279 0.913176 0.407565<189.533 551.794>
LayerCount: 2
Fore
SplineSet
608 501 m 0
 621 501 641 490 641 460 c 0
 641 431 608 416 600 412 c 2
 310 279 l 1
 542 143 l 2
 559 133 566 124 566 110 c 0
 566 82 537 54 513 54 c 0
 505 54 495 57 485 63 c 2
 102 280 l 1
 577 492 l 2
 590 498 600 501 608 501 c 0
EndSplineSet
Validated: 1
EndChar

StartChar: equal
Encoding: 61 61 41
Width: 600
Flags: W
HStem: 138 100<95.6317 584.657> 322 100<135.117 623.657>
LayerCount: 2
Fore
SplineSet
582 422 m 2
 630 422 638 407 638 382 c 0
 638 343 607 322 560 322 c 2
 176 322 l 2
 139 322 120 332 120 362 c 0
 120 399 150 422 198 422 c 2
 582 422 l 2
137 138 m 2
 118 138 81 138 81 178 c 0
 81 217 112 238 159 238 c 2
 543 238 l 2
 591 238 599 223 599 198 c 0
 599 159 568 138 521 138 c 2
 137 138 l 2
EndSplineSet
Validated: 1
EndChar

StartChar: greater
Encoding: 62 62 42
Width: 600
Flags: W
DStem2: 616 274 176 412 0.870605 -0.491983<-469.548 -182.448> 407 275 141 62 0.913176 0.407565<-362.302 0>
LayerCount: 2
Fore
SplineSet
109 53 m 0
 89 53 76 73 76 92 c 0
 76 112 88 128 118 142 c 2
 407 275 l 1
 176 412 l 2
 159 421 151 431 151 444 c 0
 151 467 178 500 204 500 c 0
 212 500 223 497 232 491 c 2
 616 274 l 1
 141 62 l 2
 128 56 116 53 109 53 c 0
EndSplineSet
Validated: 1
EndChar

StartChar: question
Encoding: 63 63 43
Width: 600
Flags: W
HStem: -15 132<265.246 362.359> 498 100<312.481 486.579>
VStem: 198 104<412 481.541> 236 154<13.6636 88.1026> 300 101<189.625 235.295> 507 102<378.681 476.204>
LayerCount: 2
Fore
SplineSet
238 394 m 0xe4
 219 394 198 407 198 431 c 0xe4
 198 438 199 447 202 460 c 2
 219 539 l 1
 324 585 371 598 435 598 c 0
 543 598 609 540 609 452 c 0
 609 317 496 266 401 228 c 1
 390 192 369 174 340 174 c 0
 318 174 300 189 300 211 c 0xcc
 300 218 301 227 304 240 c 2
 316 296 l 1
 463 348 507 376 507 431 c 0
 507 472 471 498 415 498 c 0
 377 498 341 490 305 474 c 1
 302 460 l 2
 293 420 275 394 238 394 c 0xe4
390 65 m 0xd4
 390 27 355 -15 308 -15 c 2
 291 -15 l 2
 259 -15 236 8 236 37 c 0
 236 83 281 117 319 117 c 2
 336 117 l 2
 368 117 390 95 390 65 c 0xd4
EndSplineSet
Validated: 1
EndChar

StartChar: at
Encoding: 64 64 44
Width: 600
Flags: W
HStem: -152 78<226.557 382.091> 72 81<358.226 439.35> 316 81<403.656 474> 541 79<348.608 477.173>
VStem: 98 81<-22.843 204.523> 263 80<169.103 265.223> 501 81<397.883 517.291>
DStem2: 43.9577 -152 122.47 -152 0.207912 0.978148<253.222 617.98> 374.745 -152 453.233 -152 0.207912 0.978148<307.243 478.409 555.364 622.506>
LayerCount: 2
Fore
SplineSet
534 123 m 0
 534 103 523 72 469 72 c 2
 422 72 l 1
 423 75 l 1
 408 73 398 72 389 72 c 0
 315 72 263 126 263 195 c 0
 263 291 356 387 491 397 c 1
 498 429 l 2
 500 439 501 449 501 458 c 0
 501 508 469 541 417 541 c 0
 333 541 250 445 222 317 c 2
 189 161 l 2
 183 131 179 102 179 77 c 0
 179 8 201 -74 289 -74 c 0
 393 -74 400 -25 434 -25 c 0
 453 -25 466 -38 466 -57 c 0
 466 -114 357 -152 270 -152 c 0
 133 -152 98 -46 98 56 c 0
 98 88 102 121 109 154 c 2
 145 323 l 2
 181 495 303 620 433 620 c 0
 525 620 582 562 582 476 c 0
 582 461 581 445 577 429 c 2
 517 148 l 1
 529 143 534 135 534 123 c 0
474 316 m 1
 397 309 343 262 343 211 c 0
 343 177 372 153 414 153 c 0
 421 153 426 153 440 155 c 1
 474 316 l 1
EndSplineSet
Validated: 1
EndChar

StartChar: A
Encoding: 65 65 45
Width: 600
Flags: W
HStem: 0 100<2.70395 67 176 241.069 372.795 460 574 618.069> 158 100<273 430> 483 100<197.41 304>
DStem2: 67 100 176 100 0.526202 0.85036<57.356 125.62 242.754 450.398> 478 583 393 450 0.194944 -0.980814<113.878 309.407 411.388 470.224>
LayerCount: 2
Fore
SplineSet
633 63 m 0
 633 18 600 0 555 0 c 2
 416 0 l 2
 370 0 359 20 359 38 c 0
 359 82 391 100 437 100 c 2
 460 100 l 1
 450 158 l 1
 212 158 l 1
 176 100 l 1
 199 100 l 2
 236 100 256 88 256 63 c 0
 256 18 223 0 178 0 c 2
 45 0 l 2
 7 0 -12 12 -12 37 c 0
 -12 81 20 100 67 100 c 1
 304 483 l 1
 241 483 l 2
 204 483 183 494 183 520 c 0
 183 565 214 583 262 583 c 2
 478 583 l 1
 574 100 l 1
 612 100 633 89 633 63 c 0
430 258 m 1
 393 450 l 1
 273 258 l 1
 430 258 l 1
EndSplineSet
Validated: 1
EndChar

StartChar: B
Encoding: 66 66 46
Width: 600
Flags: W
HStem: 0 100<35.8545 115 215 483.008> 242 100<267 473.579> 483 100<139.931 197 297 504.23>
VStem: 505 104<121.171 212.666> 518 102<381.346 468.188>
DStem2: 93.7443 0 193.744 0 0.207912 0.978148<123.025 268.16 370.548 493.913>
LayerCount: 2
Fore
SplineSet
125 520 m 0xf0
 125 564 158 583 203 583 c 2
 456 583 l 2
 556 583 620 528 620 450 c 0xe8
 620 380 588 344 530 305 c 1
 583 275 609 239 609 192 c 0
 609 73 497 0 374 0 c 2
 79 0 l 2
 33 0 22 20 22 38 c 0
 22 82 55 100 100 100 c 2
 115 100 l 1
 197 483 l 1
 182 483 l 2
 145 483 125 495 125 520 c 0xf0
267 342 m 1
 380 342 l 2
 453 342 518 374 518 431 c 0
 518 464 486 483 430 483 c 2
 297 483 l 1
 267 342 l 1
505 166 m 0xf0
 505 199 478 242 380 242 c 2
 245 242 l 1
 215 100 l 1
 390 100 l 2
 461 100 505 118 505 166 c 0xf0
EndSplineSet
Validated: 1
EndChar

StartChar: C
Encoding: 67 67 47
Width: 600
Flags: W
HStem: -14 100<246.131 457.369> 497 100<325.511 502.324> 563 20G<614.5 636.5>
VStem: 80 102<144.216 321.187>
DStem2: 30.0976 -14 129.673 -14 0.207912 0.978148<255.15 452.058>
LayerCount: 2
Fore
SplineSet
567 563 m 1xb0
 576 559 l 1
 593 577 606 583 623 583 c 0xb0
 650 583 662 569 662 543 c 0
 662 535 661 527 659 517 c 2
 641 433 l 2
 632 390 612 367 577 367 c 0
 543 367 539 385 539 420 c 0
 539 469 476 497 415 497 c 0
 313 497 222 420 200 315 c 2
 186 251 l 2
 183 238 182 226 182 214 c 0
 182 135 243 86 348 86 c 0
 456 86 487 126 508 143 c 0
 521 154 535 159 548 159 c 0
 572 159 588 141 588 119 c 0
 588 59 472 -14 324 -14 c 0
 175 -14 80 71 80 194 c 0
 80 212 82 230 86 249 c 2
 100 315 l 2
 134 475 278 597 432 597 c 0xd0
 484 597 518 589 567 563 c 1xb0
EndSplineSet
Validated: 1
EndChar

StartChar: D
Encoding: 68 68 48
Width: 600
Flags: W
HStem: 0 100<37.6677 95 195 402.337> 483 100<139.083 177 277 466.021>
VStem: 520 102<240.656 431.444>
DStem2: 73.7443 0 173.744 0 0.207912 0.978148<123.025 493.913> 449.523 0 550.16 0 0.207912 0.978148<172.591 355.339>
LayerCount: 2
Fore
SplineSet
22 38 m 0
 22 79 55 100 95 100 c 1
 177 483 l 1
 143 483 125 497 125 521 c 0
 125 565 157 583 204 583 c 2
 416 583 l 2
 541 583 622 495 622 371 c 0
 622 350 620 328 615 305 c 2
 605 258 l 2
 572 103 442 0 284 0 c 2
 80 0 l 2
 43 0 22 12 22 38 c 0
515 307 m 2
 518 319 520 334 520 349 c 0
 520 410 493 483 387 483 c 2
 277 483 l 1
 195 100 l 1
 306 100 l 2
 412 100 483 158 505 261 c 2
 515 307 l 2
EndSplineSet
Validated: 1
EndChar

StartChar: E
Encoding: 69 69 49
Width: 600
Flags: W
HStem: 0 100<37 115 215 471> 243 99<267 331> 366 217<531.047 601.536> 483 100<139.343 197 297 531>
DStem2: 93.7443 0 193.744 0 0.207912 0.978148<123.025 269.346 370.548 493.913>
LayerCount: 2
Fore
SplineSet
352 342 m 1xd0
 362 387 379 416 416 416 c 0
 443 416 455 400 455 374 c 0
 455 366 454 358 452 349 c 2
 428 236 l 2
 419 193 399 170 365 170 c 0
 338 170 326 184 326 210 c 0
 326 219 329 233 331 243 c 1
 246 243 l 1
 215 100 l 1
 471 100 l 1
 482 152 l 2
 492 197 512 219 547 219 c 0
 574 219 586 205 586 179 c 0
 586 171 584 162 582 152 c 2
 550 0 l 1
 79 0 l 2
 43 0 22 12 22 38 c 0
 22 81 55 100 100 100 c 2
 115 100 l 1
 197 483 l 1
 182 483 l 2
 145 483 125 495 125 520 c 0
 125 565 156 583 203 583 c 2
 652 583 l 1xd0
 620 433 l 2
 611 389 591 366 556 366 c 0xe0
 529 366 517 380 517 406 c 0
 517 414 518 423 520 433 c 2
 531 483 l 1
 297 483 l 1
 267 342 l 1
 352 342 l 1xd0
EndSplineSet
Validated: 1
EndChar

StartChar: F
Encoding: 70 70 50
Width: 600
Flags: W
HStem: 0 100<36.0992 115 215 356.845> 243 99<267 331> 366 217<553.482 623.536> 483 100<139.343 197 297 553>
DStem2: 93.7443 0 193.744 0 0.207912 0.978148<123.025 269.346 370.548 493.913>
LayerCount: 2
Fore
SplineSet
372 64 m 0xd0
 372 20 339 0 294 0 c 2
 79 0 l 2
 43 0 22 12 22 38 c 0
 22 82 55 100 100 100 c 2
 115 100 l 1
 197 483 l 1
 182 483 l 2
 145 483 125 495 125 520 c 0
 125 565 156 583 203 583 c 2
 674 583 l 1xd0
 642 432 l 2
 633 389 613 366 578 366 c 0xe0
 552 366 539 380 539 406 c 0
 539 414 540 422 542 432 c 2
 553 483 l 1
 297 483 l 1
 267 342 l 1
 352 342 l 1
 362 387 378 415 417 415 c 0
 443 415 455 402 455 376 c 0
 455 368 454 359 452 349 c 2
 428 236 l 2
 419 193 399 169 365 169 c 0
 338 169 326 183 326 209 c 0
 326 219 329 233 331 243 c 1
 246 243 l 1
 215 100 l 1
 315 100 l 2
 353 100 372 89 372 64 c 0xd0
EndSplineSet
Validated: 1
EndChar

StartChar: G
Encoding: 71 71 51
Width: 600
Flags: W
HStem: -14 100<235.413 463.913> 180 100<346.292 488> 497 100<324.891 521.742>
VStem: 78 103<134.538 316.993>
DStem2: 29.7353 -14 130.247 -14 0.207912 0.978148<245.375 453.247>
LayerCount: 2
Fore
SplineSet
545 432 m 0
 545 475 501 497 424 497 c 0
 276 497 214 383 200 317 c 2
 187 253 l 2
 183 235 181 219 181 204 c 0
 181 120 242 86 343 86 c 0
 391 86 432 94 474 111 c 1
 488 180 l 1
 388 180 l 2
 352 180 331 192 331 217 c 0
 331 261 365 280 410 280 c 2
 585 280 l 2
 623 280 642 269 642 243 c 0
 642 209 621 189 588 180 c 1
 560 48 l 1
 461 1 406 -14 328 -14 c 0
 174 -14 78 51 78 180 c 0
 78 200 80 222 85 246 c 2
 100 317 l 2
 126 441 248 597 444 597 c 0
 498 597 544 586 582 565 c 1
 599 589 611 597 630 597 c 0
 653 597 667 588 667 560 c 0
 667 552 665 543 663 531 c 2
 646 453 l 2
 637 409 617 387 582 387 c 0
 546 387 545 416 545 432 c 0
EndSplineSet
Validated: 1
EndChar

StartChar: H
Encoding: 72 72 52
Width: 600
Flags: W
HStem: 0 100<46.6369 116 216 273.069 351.637 430 530 577.845> 241 100<267 460> 483 100<168.882 198 298 376.363 454.637 512 612 659.953>
VStem: 155 236<498.125 567.546> 440 236<498.932 567.94>
DStem2: 94.7443 0 194.744 0 0.207912 0.978148<123.025 267.181 369.362 493.913> 408.744 0 508.744 0 0.207912 0.978148<123.025 246.39 348.571 493.913>
LayerCount: 2
Fore
SplineSet
337 37 m 0
 337 81 369 100 415 100 c 2
 430 100 l 1
 460 241 l 1
 246 241 l 1
 216 100 l 1
 231 100 l 2
 268 100 288 88 288 63 c 0
 288 18 255 0 210 0 c 2
 89 0 l 2
 52 0 32 12 32 37 c 0
 32 82 64 100 110 100 c 2
 116 100 l 1
 198 483 l 1
 170 486 155 499 155 521 c 0
 155 565 188 583 233 583 c 2
 334 583 l 2
 372 583 391 572 391 547 c 0
 391 502 359 483 313 483 c 2
 298 483 l 1
 267 341 l 1
 481 341 l 1
 512 483 l 1
 497 483 l 2
 460 483 440 495 440 520 c 0
 440 565 472 583 518 583 c 2
 619 583 l 2
 657 583 676 572 676 547 c 0
 676 509 649 486 612 483 c 1
 530 100 l 1
 536 100 l 2
 574 100 593 89 593 64 c 0
 593 19 560 0 515 0 c 2
 394 0 l 2
 357 0 337 12 337 37 c 0
EndSplineSet
Validated: 1
EndChar

StartChar: I
Encoding: 73 73 53
Width: 600
Flags: W
HStem: 0 100<107.733 271 371 513.25> 483 100<209.637 353 453 615.126>
DStem2: 249.744 0 349.744 0 0.207912 0.978148<123.025 493.913>
LayerCount: 2
Fore
SplineSet
575 583 m 2
 615 583 632 575 632 545 c 0
 632 521 616 483 554 483 c 2
 453 483 l 1
 371 100 l 1
 472 100 l 2
 512 100 529 90 529 60 c 0
 529 36 513 0 451 0 c 2
 149 0 l 2
 124 0 93 3 93 40 c 0
 93 78 122 100 170 100 c 2
 271 100 l 1
 353 483 l 1
 252 483 l 2
 212 483 195 492 195 524 c 0
 195 562 227 583 273 583 c 2
 575 583 l 2
EndSplineSet
Validated: 1
EndChar

StartChar: J
Encoding: 74 74 54
Width: 600
Flags: W
HStem: -14 100<198.755 371.819> 483 100<331.343 493 593 713.363>
DStem2: 386.938 -14 487.276 -14 0.207912 0.978148<138.902 508.191>
LayerCount: 2
Fore
SplineSet
728 547 m 0
 728 502 696 483 650 483 c 2
 593 483 l 1
 530 187 l 2
 504 66 387 -14 266 -14 c 0
 209 -14 146 6 65 51 c 1
 99 213 l 2
 108 257 129 280 164 280 c 0
 191 280 203 266 203 240 c 0
 203 232 201 223 199 213 c 2
 179 117 l 1
 223 95 255 86 289 86 c 0
 359 86 415 120 432 198 c 2
 493 483 l 1
 374 483 l 2
 337 483 317 495 317 520 c 0
 317 565 348 583 395 583 c 2
 671 583 l 2
 709 583 728 572 728 547 c 0
EndSplineSet
Validated: 1
EndChar

StartChar: K
Encoding: 75 75 55
Width: 600
Flags: W
HStem: 0 100<35.8545 115 215 292.069 520.62 599.069> 483 100<139.343 197 297 395.363 614 673.183>
VStem: 426 188<15.9771 92.5543> 453 235<498.143 567.193>
DStem2: 93.7443 0 193.744 0 0.207912 0.978148<123.025 233.447 362.307 493.913> 265 334 405 330 0.807155 0.590339<0 1.61599 110.64 260.632>
LayerCount: 2
Fore
SplineSet
307 63 m 0xe0
 307 19 274 0 229 0 c 2
 79 0 l 2
 33 0 22 20 22 38 c 0
 22 82 55 100 100 100 c 2
 115 100 l 1
 197 483 l 1
 182 483 l 2
 145 483 125 495 125 520 c 0
 125 565 156 583 203 583 c 2
 353 583 l 2
 391 583 410 572 410 547 c 0
 410 502 378 483 332 483 c 2
 297 483 l 1
 265 334 l 1
 476 487 l 1
 461 493 453 504 453 519 c 0
 453 565 489 583 531 583 c 2
 631 583 l 2
 669 583 688 572 688 547 c 0xd0
 688 504 658 483 614 483 c 1
 405 330 l 1
 459 298 503 215 525 100 c 1
 557 100 l 2
 594 100 614 88 614 63 c 0
 614 19 581 0 536 0 c 2
 426 0 l 1
 409 143 366 240 309 259 c 1
 238 208 l 1
 215 100 l 1
 250 100 l 2
 287 100 307 88 307 63 c 0xe0
EndSplineSet
Validated: 1
EndChar

StartChar: L
Encoding: 76 76 56
Width: 600
Flags: W
HStem: 0 100<55.7947 177 277 492> 483 100<159.343 259 359 479.363>
DStem2: 155.744 0 255.744 0 0.207912 0.978148<123.025 493.913> 470.744 0 571.189 0 0.207912 0.978148<102.234 243.839>
LayerCount: 2
Fore
SplineSet
494 546 m 0
 494 501 462 483 416 483 c 2
 359 483 l 1
 277 100 l 1
 492 100 l 1
 512 192 l 2
 521 236 541 259 576 259 c 0
 603 259 615 245 615 219 c 0
 615 211 614 202 612 192 c 2
 571 0 l 1
 99 0 l 2
 53 0 42 20 42 38 c 0
 42 82 74 100 120 100 c 2
 177 100 l 1
 259 483 l 1
 202 483 l 2
 165 483 145 495 145 520 c 0
 145 565 176 583 223 583 c 2
 437 583 l 2
 474 583 494 571 494 546 c 0
EndSplineSet
Validated: 1
EndChar

StartChar: M
Encoding: 77 77 57
Width: 600
Flags: W
HStem: 0 100<5.125 63 163 239.845 383.795 483 583 620.06> 483 100<117.743 145 665 712.953>
DStem2: 41.7443 0 141.744 0 0.207912 0.978148<123.025 418.6> 364 286 380 138 0.5547 0.83205<0 186.102> 461.744 0 561.744 0 0.207912 0.978148<123.025 397.809>
LayerCount: 2
Fore
SplineSet
635 62 m 0
 635 19 602 0 557 0 c 2
 427 0 l 2
 381 0 370 20 370 38 c 0
 370 82 402 100 448 100 c 2
 483 100 l 1
 545 389 l 1
 380 138 l 1
 289 138 l 1
 225 389 l 1
 163 100 l 1
 198 100 l 2
 236 100 255 89 255 64 c 0
 255 20 222 0 177 0 c 2
 48 0 l 2
 11 0 -10 11 -10 37 c 0
 -10 78 21 100 63 100 c 1
 145 483 l 1
 117 486 102 499 102 521 c 0
 102 561 135 583 176 583 c 2
 289 583 l 1
 364 286 l 1
 562 583 l 1
 672 583 l 2
 710 583 729 572 729 547 c 0
 729 509 702 486 665 483 c 1
 583 100 l 1
 617 100 635 86 635 62 c 0
EndSplineSet
Validated: 1
EndChar

StartChar: N
Encoding: 78 78 58
Width: 600
Flags: W
HStem: 0 100<36.125 94 194 270.845> 483 100<118.343 176 456.343 534 634 692.258>
DStem2: 72.7443 0 172.744 0 0.207912 0.978148<123.025 423.699> 297 583 257 394 0.405923 -0.913907<156.492 429.288> 431.402 0 531 0 0.207912 0.978148<195.267 493.777>
LayerCount: 2
Fore
SplineSet
707 546 m 0
 707 505 677 483 634 483 c 1
 531 0 l 1
 432 0 l 1
 257 394 l 1
 194 100 l 1
 229 100 l 2
 267 100 286 89 286 64 c 0
 286 20 253 0 208 0 c 2
 79 0 l 2
 42 0 21 11 21 37 c 0
 21 78 52 100 94 100 c 1
 176 483 l 1
 161 483 l 2
 124 483 104 495 104 520 c 0
 104 565 135 583 182 583 c 2
 297 583 l 1
 472 191 l 1
 534 483 l 1
 499 483 l 2
 462 483 442 495 442 520 c 0
 442 565 473 583 520 583 c 2
 650 583 l 2
 687 583 707 571 707 546 c 0
EndSplineSet
Validated: 1
EndChar

StartChar: O
Encoding: 79 79 59
Width: 600
Flags: W
HStem: -14 100<244.642 400.049> 497 100<326.193 481.42>
VStem: 75 103<156.686 338.017> 546 103<244.12 427.311>
LayerCount: 2
Fore
SplineSet
75 222 m 0
 75 415 249 597 427 597 c 0
 546 597 649 508 649 366 c 0
 649 157 466 -14 297 -14 c 0
 165 -14 75 87 75 222 c 0
318 86 m 0
 428 86 546 206 546 340 c 0
 546 430 490 497 406 497 c 0
 296 497 178 376 178 244 c 0
 178 154 234 86 318 86 c 0
EndSplineSet
Validated: 1
EndChar

StartChar: P
Encoding: 80 80 60
Width: 600
Flags: W
HStem: 0 100<35.8545 115 215 356.069> 200 100<258 457.537> 483 100<139.637 197 297 484.918>
VStem: 508 109<347.675 461.88>
DStem2: 93.7443 0 193.744 0 0.207912 0.978148<123.025 225.414 327.595 493.913>
LayerCount: 2
Fore
SplineSet
371 63 m 0
 371 19 338 0 293 0 c 2
 79 0 l 2
 33 0 22 20 22 38 c 0
 22 82 55 100 100 100 c 2
 115 100 l 1
 197 483 l 1
 182 483 l 2
 145 483 125 495 125 520 c 0
 125 564 157 583 203 583 c 2
 436 583 l 2
 547 583 617 523 617 434 c 0
 617 277 479 200 335 200 c 2
 237 200 l 1
 215 100 l 1
 314 100 l 2
 351 100 371 88 371 63 c 0
297 483 m 1
 258 300 l 1
 376 300 l 2
 449 300 508 340 508 412 c 0
 508 456 475 483 415 483 c 2
 297 483 l 1
EndSplineSet
Validated: 1
EndChar

StartChar: Q
Encoding: 81 81 61
Width: 600
Flags: W
HStem: -145 100<335.835 490.361> -117 92<262.904 373.109> -7 92<267.144 400.445> 497 100<323.51 479.358>
VStem: 73 105<155.996 335.269> 546 103<243.416 426.359>
LayerCount: 2
Fore
SplineSet
565 -52 m 0xbc
 565 -110 455 -145 413 -145 c 0xbc
 358 -145 351 -117 294 -117 c 0
 249 -117 147 -143 135 -143 c 0
 113 -143 96 -125 96 -102 c 0
 96 -78 105 -70 126 -53 c 2
 200 7 l 1
 120 59 73 113 73 209 c 0
 73 425 253 597 427 597 c 0
 559 597 649 495 649 361 c 0
 649 166 482 -7 288 -7 c 0
 286 -7 278 -7 270 -6 c 1
 261 -30 l 1
 286 -26 298 -25 313 -25 c 0x7c
 371 -25 401 -45 433 -45 c 0
 472 -45 493 -13 523 -13 c 0
 548 -13 565 -29 565 -52 c 0xbc
406 497 m 0
 299 497 178 384 178 243 c 0
 178 153 234 85 318 85 c 0
 426 85 546 200 546 339 c 0
 546 430 490 497 406 497 c 0
EndSplineSet
Validated: 1
EndChar

StartChar: R
Encoding: 82 82 62
Width: 600
Flags: W
HStem: 0 100<35.8545 115 215 291.845 551.833 615.459> 222 100<262 363.892> 483 100<139.343 197 297 481.26>
VStem: 504 108<369.626 461.261>
DStem2: 93.7443 0 193.744 0 0.207912 0.978148<123.025 247.765 349.946 493.913>
LayerCount: 2
Fore
SplineSet
307 64 m 0
 307 20 274 0 229 0 c 2
 79 0 l 2
 33 0 22 20 22 38 c 0
 22 82 55 100 100 100 c 2
 115 100 l 1
 197 483 l 1
 182 483 l 2
 145 483 125 495 125 520 c 0
 125 565 156 583 203 583 c 2
 426 583 l 2
 541 583 612 526 612 441 c 0
 612 350 558 298 468 254 c 1
 506 213 533 167 561 100 c 1
 574 100 l 2
 611 100 631 90 631 64 c 0
 631 20 598 0 553 0 c 2
 474 0 l 1
 445 97 376 207 337 222 c 1
 241 222 l 1
 215 100 l 1
 250 100 l 2
 288 100 307 89 307 64 c 0
262 322 m 1
 338 322 l 2
 423 322 504 358 504 420 c 0
 504 457 467 483 409 483 c 2
 297 483 l 1
 262 322 l 1
EndSplineSet
Validated: 1
EndChar

StartChar: S
Encoding: 83 83 63
Width: 600
Flags: W
HStem: -14 100<228.205 416.743> 1 21G<99.5 121> 497 100<321.368 483.54>
VStem: 167 107<371.453 455.777> 470 106<128.897 208.705>
LayerCount: 2
Fore
SplineSet
405 497 m 0xb8
 339 497 274 463 274 408 c 0
 274 362 336 351 384 342 c 0
 479 324 576 303 576 197 c 0
 576 69 451 -14 306 -14 c 0xb8
 252 -14 201 -1 158 25 c 1
 137 5 129 1 113 1 c 0x78
 86 1 73 13 73 40 c 0
 73 48 74 57 76 67 c 2
 90 133 l 2
 99 176 119 199 154 199 c 0
 181 199 195 187 195 151 c 0
 195 115 254 86 320 86 c 0
 396 86 470 120 470 174 c 0
 470 219 408 229 342 242 c 0
 252 260 167 288 167 381 c 0
 167 512 292 597 426 597 c 0
 477 597 519 586 549 564 c 1
 564 589 575 597 595 597 c 0
 622 597 633 585 633 560 c 0
 633 552 632 542 630 531 c 2
 611 443 l 2
 602 399 582 376 548 376 c 0
 518 376 509 393 509 429 c 0
 509 470 467 497 405 497 c 0xb8
EndSplineSet
Validated: 1
EndChar

StartChar: T
Encoding: 84 84 64
Width: 600
Flags: W
HStem: 0 100<141.931 270 370 478.069> 483 100<245 352 452 561>
DStem2: 42.1029 0 142.103 0 0.207912 0.978148<373.024 514.63> 248.744 0 348.744 0 0.207912 0.978148<123.025 493.913>
LayerCount: 2
Fore
SplineSet
493 63 m 0
 493 19 460 0 415 0 c 2
 184 0 l 2
 138 0 127 21 127 39 c 0
 127 81 160 100 205 100 c 2
 270 100 l 1
 352 483 l 1
 245 483 l 1
 225 390 l 2
 216 347 196 324 161 324 c 0
 134 324 122 338 122 364 c 0
 122 372 123 380 125 390 c 2
 166 583 l 1
 682 583 l 1
 641 390 l 2
 632 346 612 324 577 324 c 0
 550 324 538 338 538 364 c 0
 538 372 539 380 541 390 c 2
 561 483 l 1
 452 483 l 1
 370 100 l 1
 436 100 l 2
 473 100 493 88 493 63 c 0
EndSplineSet
Validated: 1
EndChar

StartChar: U
Encoding: 85 85 65
Width: 600
Flags: W
HStem: -14 100<246.461 397.44> 483 100<136.94 174 274 372.363 454.343 532 632 689.845>
VStem: 109 102<119.888 227.889>
DStem2: 68.4501 -14 168.363 -14 0.207912 0.978148<215.762 508.084> 426.363 -14 526.45 -14 0.207912 0.978148<151.808 508.102>
LayerCount: 2
Fore
SplineSet
705 547 m 0
 705 505 675 483 632 483 c 1
 573 205 l 2
 544 67 411 -14 297 -14 c 0
 196 -14 109 50 109 158 c 0
 109 173 111 188 115 205 c 2
 174 483 l 1
 140 483 122 496 122 520 c 0
 122 564 155 583 200 583 c 2
 330 583 l 2
 368 583 387 573 387 547 c 0
 387 502 355 483 309 483 c 2
 274 483 l 1
 213 196 l 2
 212 189 211 182 211 176 c 0
 211 125 255 86 318 86 c 0
 389 86 458 135 471 196 c 2
 532 483 l 1
 497 483 l 2
 460 483 440 495 440 520 c 0
 440 565 471 583 518 583 c 2
 648 583 l 2
 686 583 705 572 705 547 c 0
EndSplineSet
Validated: 1
EndChar

StartChar: V
Encoding: 86 86 66
Width: 600
Flags: W
HStem: 0 21G<244.901 360.754> 483 100<105.637 150 262 342.752 483.775 550 656 720.296>
DStem2: 262 483 150 483 0.200794 -0.979633<0 346.553> 334 144 348 0 0.537666 0.843158<0 401.966>
LayerCount: 2
Fore
SplineSet
302 583 m 2
 325 583 358 583 358 544 c 0
 358 510 334 483 281 483 c 2
 262 483 l 1
 334 144 l 1
 550 483 l 1
 526 483 l 2
 503 483 469 483 469 524 c 0
 469 562 501 583 547 583 c 2
 679 583 l 2
 718 583 735 574 735 544 c 0
 735 503 703 483 656 483 c 1
 348 0 l 1
 249 0 l 1
 150 483 l 1
 127 483 91 484 91 524 c 0
 91 562 123 583 169 583 c 2
 302 583 l 2
EndSplineSet
Validated: 1
EndChar

StartChar: W
Encoding: 87 87 67
Width: 600
Flags: W
HStem: 0 21G<98 219.83 390.545 509.749> 417 20G<333.027 450.478> 483 100<116.809 139 242 354.296 473.343 569 666 708.913>
DStem2: 98 0 220 211 0.0845819 0.996417<220.563 489.178> 220 211 359 277 0.476181 0.879347<0 124.226> 476 211 503 0 0.319757 0.9475<0 287.457>
LayerCount: 2
Fore
SplineSet
459 520 m 0
 459 565 490 583 537 583 c 2
 668 583 l 2
 706 583 725 572 725 547 c 0
 725 511 700 489 666 483 c 1
 503 0 l 1
 393 0 l 1
 359 277 l 1
 209 0 l 1
 98 0 l 1
 139 483 l 1
 115 486 101 498 101 518 c 0
 101 563 133 583 180 583 c 2
 311 583 l 2
 349 583 369 572 369 546 c 0
 369 501 337 483 290 483 c 2
 242 483 l 1
 220 211 l 1
 344 437 l 1
 448 437 l 1
 476 211 l 1
 569 483 l 1
 516 483 l 2
 479 483 459 495 459 520 c 0
EndSplineSet
Validated: 1
EndChar

StartChar: X
Encoding: 88 88 68
Width: 600
Flags: W
HStem: 0 100<36.0516 90 220 251.135 372.899 423 552 587.756> 483 100<147.875 180 624 676.857>
VStem: 467 225<498.223 566.253>
DStem2: 90 100 220 100 0.726517 0.687149<94.4472 269.899 399.656 558.831> 308 484 180 483 0.536307 -0.844023<0 130.613 244.274 385.78>
LayerCount: 2
Fore
SplineSet
131 522 m 0
 131 546 150 583 209 583 c 2
 300 583 l 2
 339 583 357 575 357 544 c 0
 357 506 325 491 308 484 c 1
 380 375 l 1
 496 484 l 1
 475 496 467 506 467 522 c 0
 467 536 474 583 546 583 c 2
 636 583 l 2
 675 583 692 575 692 545 c 0
 692 525 680 485 624 483 c 1
 427 297 l 1
 552 100 l 1
 585 99 602 85 602 62 c 0
 602 18 569 0 524 0 c 2
 413 0 l 2
 375 0 357 13 357 37 c 0
 357 55 367 97 423 100 c 1
 348 220 l 1
 220 100 l 1
 249 100 265 85 265 62 c 0
 265 18 232 0 187 0 c 2
 76 0 l 2
 51 0 20 3 20 39 c 0
 20 58 34 100 90 100 c 1
 298 298 l 1
 180 483 l 1
 148 483 131 499 131 522 c 0
EndSplineSet
Validated: 1
EndChar

StartChar: Y
Encoding: 89 89 69
Width: 600
Flags: W
HStem: 0 100<141.704 271 371 479.296> 483 100<148.309 188 617 677.913>
VStem: 133 225<499.68 566.957> 466 228<499.25 568.07>
DStem2: 308 484 188 483 0.431992 -0.901878<0 151.167> 374 348 402 245 0.670342 0.742053<0 183.371>
LayerCount: 2
Fore
SplineSet
466 522 m 0
 466 566 499 583 545 583 c 2
 637 583 l 2
 675 583 694 572 694 547 c 0
 694 505 662 483 617 483 c 1
 402 245 l 1
 371 100 l 1
 436 100 l 2
 474 100 494 89 494 63 c 0
 494 18 462 0 415 0 c 2
 185 0 l 2
 148 0 127 11 127 37 c 0
 127 81 159 100 206 100 c 2
 271 100 l 1
 302 245 l 1
 188 483 l 1
 152 483 133 497 133 521 c 0
 133 566 171 583 212 583 c 2
 301 583 l 2
 339 583 358 572 358 547 c 0
 358 514 340 496 308 484 c 1
 374 348 l 1
 497 484 l 1
 476 492 466 505 466 522 c 0
EndSplineSet
Validated: 1
EndChar

StartChar: Z
Encoding: 90 90 70
Width: 600
Flags: W
HStem: 0 100<222 448> 483 100<299 478>
DStem2: 94 100 222 100 0.706189 0.708023<90.3922 542.349>
LayerCount: 2
Fore
SplineSet
222 100 m 1
 448 100 l 1
 464 172 l 2
 473 215 493 238 528 238 c 0
 555 238 567 225 567 199 c 0
 567 191 566 182 564 172 c 2
 527 0 l 1
 73 0 l 1
 94 100 l 1
 478 483 l 1
 299 483 l 1
 284 413 l 2
 275 369 255 347 220 347 c 0
 194 347 181 361 181 387 c 0
 181 395 182 403 184 413 c 2
 220 583 l 1
 628 583 l 1
 607 486 l 1
 222 100 l 1
EndSplineSet
Validated: 1
EndChar

StartChar: bracketleft
Encoding: 91 91 71
Width: 600
Flags: W
HStem: -148 100<340 441.363> 527 100<462 583.363>
DStem2: 219 -148 318.744 -148 0.207912 0.978148<122.972 710.772>
LayerCount: 2
Fore
SplineSet
598 591 m 0
 598 546 566 527 520 527 c 2
 462 527 l 1
 340 -48 l 1
 399 -48 l 2
 436 -48 456 -60 456 -85 c 0
 456 -129 424 -148 378 -148 c 2
 219 -148 l 1
 383 627 l 1
 541 627 l 2
 579 627 598 616 598 591 c 0
EndSplineSet
Validated: 1
EndChar

StartChar: backslash
Encoding: 92 92 72
Width: 600
Flags: W
VStem: 219 103<624.186 678.123>
DStem2: 322 651 225 610 0.249576 -0.968355<-10.9076 728.762>
LayerCount: 2
Fore
SplineSet
219 636 m 0
 219 662 247 695 281 695 c 0
 304 695 313 685 322 651 c 2
 499 -27 l 2
 502 -39 504 -48 504 -55 c 0
 504 -89 469 -113 443 -113 c 0
 419 -113 409 -103 400 -69 c 2
 225 610 l 2
 221 623 219 630 219 636 c 0
EndSplineSet
Validated: 1
EndChar

StartChar: bracketright
Encoding: 93 93 73
Width: 600
Flags: W
HStem: -148 100<118.637 240> 527 100<260.637 362>
DStem2: 218.744 -148 319 -148 0.207912 0.978148<102.234 690.034>
LayerCount: 2
Fore
SplineSet
104 -112 m 0
 104 -67 136 -48 182 -48 c 2
 240 -48 l 1
 362 527 l 1
 303 527 l 2
 266 527 246 539 246 564 c 0
 246 608 278 627 324 627 c 2
 483 627 l 1
 319 -148 l 1
 161 -148 l 2
 123 -148 104 -137 104 -112 c 0
EndSplineSet
Validated: 1
EndChar

StartChar: asciicircum
Encoding: 94 94 74
Width: 600
Flags: W
HStem: 325 327
DStem2: 194 419 258 356 0.723221 0.690617<-58.4579 203.673> 438 652 404 494 0.530979 -0.847385<115.833 310.811>
LayerCount: 2
Fore
SplineSet
598 385 m 0
 598 351 562 325 536 325 c 0
 517 325 509 330 493 355 c 2
 404 494 l 1
 258 356 l 2
 230 330 222 325 202 325 c 0
 179 325 162 342 162 365 c 0
 162 386 173 399 194 419 c 2
 438 652 l 1
 584 419 l 2
 594 403 598 395 598 385 c 0
EndSplineSet
Validated: 1
EndChar

StartChar: underscore
Encoding: 95 95 75
Width: 600
Flags: W
HStem: -125 50<-28 585>
LayerCount: 2
Fore
SplineSet
596 -75 m 1
 585 -125 l 1
 -39 -125 l 1
 -28 -75 l 1
 596 -75 l 1
EndSplineSet
Validated: 1
EndChar

StartChar: grave
Encoding: 96 96 76
Width: 600
Flags: W
HStem: 496 200
VStem: 264 200
DStem2: 339 680 390 512 0.697444 -0.71664<-31.3344 186.633>
LayerCount: 2
Fore
SplineSet
264 653 m 0
 264 672 283 696 310 696 c 0
 321 696 325 693 339 680 c 2
 448 569 l 2
 459 558 464 549 464 539 c 0
 464 514 438 496 418 496 c 0
 408 496 402 500 390 512 c 2
 281 624 l 2
 269 635 264 643 264 653 c 0
EndSplineSet
Validated: 1
EndChar

StartChar: a
Encoding: 97 97 77
Width: 600
Flags: W
HStem: -16 100<178.524 349.195> 0 100<510 568.363> 185 93<346.499 428> 196 92<225.55 426.688> 350 100<237.499 447.884>
VStem: 65 109<93.7075 154.152> 453 104<279.133 340.984>
LayerCount: 2
Fore
SplineSet
583 64 m 0x6e
 583 19 551 0 505 0 c 2
 388 0 l 1x6e
 393 23 l 1
 340 -2 278 -16 219 -16 c 0
 130 -16 65 34 65 98 c 0
 65 188 182 288 345 288 c 0x9e
 377 288 407 285 447 278 c 1
 452 301 l 2
 453 305 453 308 453 311 c 0
 453 338 426 350 369 350 c 0
 299 350 240 327 209 327 c 0
 185 327 169 343 169 366 c 0
 169 395 185 412 209 420 c 0
 261 437 338 450 388 450 c 0
 496 450 557 407 557 334 c 0
 557 324 555 313 553 302 c 2
 510 100 l 1
 526 100 l 2
 564 100 583 89 583 64 c 0x6e
418 135 m 1
 428 185 l 1xae
 389 192 354 196 320 196 c 0
 254 196 174 161 174 118 c 0
 174 98 202 84 242 84 c 0x9e
 296 84 356 101 418 135 c 1
EndSplineSet
Validated: 1
EndChar

StartChar: b
Encoding: 98 98 78
Width: 600
Flags: W
HStem: -14 100<259.929 430.245> 0 100<15.6369 95> 351 100<310.49 476.608> 524 100<126.998 185>
VStem: 520 103<168.469 309.094>
DStem2: 70.7686 -14 171.262 -14 0.207912 0.978148<230.567 337.46 445.067 549.993>
LayerCount: 2
Fore
SplineSet
112 561 m 0x78
 112 606 145 624 191 624 c 2
 307 624 l 1
 259 401 l 1
 309 435 360 451 420 451 c 0
 563 451 623 364 623 269 c 0
 623 122 501 -14 322 -14 c 0xb8
 263 -14 225 -1 181 35 c 1
 174 0 l 1
 58 0 l 2
 21 0 1 12 1 37 c 0
 1 82 33 100 79 100 c 2
 95 100 l 1
 185 524 l 1
 169 524 l 2
 132 524 112 536 112 561 c 0x78
398 351 m 0
 279 351 230 263 221 220 c 0
 219 210 218 199 218 190 c 0
 218 127 264 86 341 86 c 0
 431 86 520 148 520 243 c 0
 520 288 497 351 398 351 c 0
EndSplineSet
Validated: 1
EndChar

StartChar: c
Encoding: 99 99 79
Width: 600
Flags: W
HStem: -16 100<235.693 477.071> 350 100<294.202 478.93>
VStem: 93 102<121.701 255.87>
LayerCount: 2
Fore
SplineSet
384 350 m 0
 284 350 195 277 195 177 c 0
 195 115 246 84 348 84 c 0
 463 84 491 113 512 128 c 0
 523 136 533 140 545 140 c 0
 569 140 585 123 585 100 c 0
 585 97 585 93 584 89 c 0
 578 63 549 37 504 16 c 0
 459 -4 393 -16 320 -16 c 0
 132 -16 93 80 93 156 c 0
 93 328 246 450 406 450 c 0
 463 450 508 440 543 420 c 1
 553 441 567 450 588 450 c 0
 613 450 625 438 625 412 c 0
 625 404 624 395 622 384 c 2
 605 307 l 2
 596 264 576 241 541 241 c 0
 509 241 500 256 500 289 c 0
 500 307 497 317 485 325 c 0
 462 341 428 350 384 350 c 0
EndSplineSet
Validated: 1
EndChar

StartChar: d
Encoding: 100 100 80
Width: 600
Flags: W
HStem: -14 100<220.319 384.987> 0 100<552 610.363> 351 100<264.427 438.298> 525 99<483.736 543>
VStem: 74 102<127.906 264.241>
DStem2: 427.899 -14 527.769 -14 0.207912 0.978148<159.228 263.714 424.248 551.152>
LayerCount: 2
Fore
SplineSet
625 64 m 0x78
 625 19 593 0 547 0 c 2
 431 0 l 1x78
 438 35 l 1
 377 -1 336 -14 277 -14 c 0xb8
 133 -14 74 74 74 168 c 0
 74 315 195 451 377 451 c 0
 437 451 480 435 516 401 c 1
 543 525 l 1
 527 525 l 2
 490 525 470 537 470 562 c 0
 470 606 502 624 548 624 c 2
 664 624 l 1
 552 100 l 1
 568 100 l 2
 606 100 625 89 625 64 c 0x78
477 217 m 0
 479 225 480 235 480 245 c 0
 480 292 455 351 356 351 c 0
 229 351 176 256 176 191 c 0
 176 130 222 86 300 86 c 0xb8
 419 86 468 175 477 217 c 0
EndSplineSet
Validated: 1
EndChar

StartChar: e
Encoding: 101 101 81
Width: 600
Flags: W
HStem: -16 100<222.908 465.529> 172 88<200 494> 350 100<271.715 450.671>
VStem: 74 105<126.885 172> 494 107<260.497 310.852>
LayerCount: 2
Fore
SplineSet
74 166 m 0
 74 313 214 450 387 450 c 0
 517 450 601 373 601 262 c 0
 601 246 599 229 595 211 c 2
 587 172 l 1
 179 172 l 1
 189 112 236 84 324 84 c 0
 420 84 486 117 527 117 c 0
 550 117 565 101 565 78 c 0
 565 45 538 30 520 22 c 0
 470 2 365 -16 294 -16 c 0
 159 -16 74 57 74 166 c 0
200 260 m 1
 494 260 l 1
 490 315 439 350 366 350 c 0
 293 350 227 314 200 260 c 1
EndSplineSet
Validated: 1
EndChar

StartChar: f
Encoding: 102 102 82
Width: 600
Flags: W
HStem: 0 100<98.3429 220 320 500.845> 337 100<181.099 271 392 585.363> 523 100<414.527 651.871>
DStem2: 198.744 0 298.744 0 0.207912 0.978148<123.025 344.659 467.631 547.117>
LayerCount: 2
Fore
SplineSet
691 570 m 0
 691 535 659 509 632 509 c 0
 618 509 550 523 494 523 c 0
 437 523 407 507 400 474 c 2
 392 437 l 1
 543 437 l 2
 580 437 600 425 600 400 c 0
 600 356 568 337 522 337 c 2
 371 337 l 1
 320 100 l 1
 459 100 l 2
 497 100 516 89 516 64 c 0
 516 20 483 0 438 0 c 2
 141 0 l 2
 105 0 84 11 84 37 c 0
 84 81 115 100 162 100 c 2
 220 100 l 1
 271 337 l 1
 224 337 l 2
 188 337 167 349 167 375 c 0
 167 419 199 437 246 437 c 2
 292 437 l 1
 300 474 l 2
 320 566 405 623 524 623 c 0
 566 623 628 616 658 607 c 0
 680 601 691 588 691 570 c 0
EndSplineSet
Validated: 1
EndChar

StartChar: g
Encoding: 103 103 83
Width: 600
Flags: W
HStem: -205 100<121.637 363.127> -14 100<218.818 365.764> 337 100<582 661.363> 351 100<266.274 417.596>
VStem: 74 103<128.156 263.902>
DStem2: 366.677 -205 466.677 -205 0.207912 0.978148<126.947 245.218 354.748 458.949>
LayerCount: 2
Fore
SplineSet
107 -168 m 0xe8
 107 -124 139 -105 185 -105 c 2
 294 -105 l 2
 351 -105 395 -72 406 -20 c 2
 417 35 l 1
 364 1 318 -14 266 -14 c 0
 150 -14 74 61 74 167 c 0
 74 334 221 451 365 451 c 0xd8
 419 451 463 434 495 401 c 1
 503 437 l 1
 619 437 l 2
 657 437 676 426 676 401 c 0
 676 356 644 337 598 337 c 2
 582 337 l 1
 506 -20 l 2
 483 -126 384 -205 275 -205 c 2
 163 -205 l 2
 127 -205 107 -193 107 -168 c 0xe8
346 351 m 0
 265 351 177 283 177 192 c 0
 177 131 223 86 289 86 c 0
 365 86 441 145 456 217 c 0
 458 227 459 236 459 245 c 0
 459 306 414 351 346 351 c 0
EndSplineSet
Validated: 1
EndChar

StartChar: h
Encoding: 104 104 84
Width: 600
Flags: W
HStem: 0 100<46.77 116 216 264.742 359.213 430 530 577.856> 350 100<337.492 460.946> 524 100<147.998 206>
VStem: 470 104<254.727 338.104>
DStem2: 94.7443 0 194.744 0 0.207912 0.978148<123.025 335.956 418.6 535.681> 408.744 0 508.744 0 0.207912 0.978148<123.025 303.856>
LayerCount: 2
Fore
SplineSet
133 561 m 0
 133 606 166 624 212 624 c 2
 328 624 l 1
 278 389 l 1
 327 430 376 450 428 450 c 0
 519 450 574 401 574 324 c 0
 574 311 572 298 569 284 c 2
 530 100 l 1
 571 100 593 91 593 64 c 0
 593 19 560 0 515 0 c 2
 403 0 l 2
 366 0 345 11 345 37 c 0
 345 85 381 100 430 100 c 1
 467 271 l 2
 469 281 470 290 470 298 c 0
 470 337 443 350 395 350 c 0
 348 350 324 338 255 283 c 1
 216 100 l 1
 258 100 280 91 280 64 c 0
 280 19 247 0 201 0 c 2
 89 0 l 2
 52 0 32 12 32 37 c 0
 32 84 67 100 116 100 c 1
 206 524 l 1
 190 524 l 2
 153 524 133 536 133 561 c 0
EndSplineSet
Validated: 1
EndChar

StartChar: i
Encoding: 105 105 85
Width: 600
Flags: W
HStem: 0 100<84.7947 271 371 535.069> 337 100<200.41 322> 518 105<350 446>
DStem2: 249.744 0 349.744 0 0.207912 0.978148<123.025 344.659>
LayerCount: 2
Fore
SplineSet
550 63 m 0
 550 19 517 0 472 0 c 2
 128 0 l 2
 82 0 71 20 71 38 c 0
 71 82 103 100 149 100 c 2
 271 100 l 1
 322 337 l 1
 244 337 l 2
 207 337 186 348 186 374 c 0
 186 419 217 437 265 437 c 2
 443 437 l 1
 371 100 l 1
 493 100 l 2
 530 100 550 88 550 63 c 0
468 623 m 1
 446 518 l 1
 328 518 l 1
 350 623 l 1
 468 623 l 1
EndSplineSet
Validated: 1
EndChar

StartChar: j
Encoding: 106 106 86
Width: 600
Flags: W
HStem: -205 100<97.9309 341.298> 337 100<215.637 460> 518 105<443 540>
DStem2: 344.677 -205 444.677 -205 0.207912 0.978148<127.456 554.133>
LayerCount: 2
Fore
SplineSet
83 -168 m 0
 83 -124 116 -105 161 -105 c 2
 272 -105 l 2
 329 -105 373 -72 384 -20 c 2
 460 337 l 1
 258 337 l 2
 222 337 201 349 201 374 c 0
 201 418 233 437 279 437 c 2
 581 437 l 1
 484 -20 l 2
 462 -125 362 -205 253 -205 c 2
 139 -205 l 2
 103 -205 83 -193 83 -168 c 0
562 623 m 1
 540 518 l 1
 421 518 l 1
 443 623 l 1
 562 623 l 1
EndSplineSet
Validated: 1
EndChar

StartChar: k
Encoding: 107 107 87
Width: 600
Flags: W
HStem: 0 100<57.1545 136 492 568.002> 337 100<501 592.363> 524 100<167.998 226>
DStem2: 114.744 0 215.141 0 0.207912 0.978148<102.234 188.537 314.255 535.681>
LayerCount: 2
Fore
SplineSet
359 376 m 0
 359 420 392 437 438 437 c 2
 550 437 l 2
 587 437 607 425 607 400 c 0
 607 356 575 337 529 337 c 2
 501 337 l 1
 362 241 l 1
 492 100 l 1
 525 100 l 2
 563 100 583 89 583 63 c 0
 583 18 550 0 504 0 c 2
 386 0 l 2
 348 0 329 12 329 37 c 0
 329 60 337 72 354 87 c 1
 271 178 l 1
 250 164 l 1
 215 0 l 1
 99 0 l 2
 61 0 42 12 42 37 c 0
 42 81 75 100 120 100 c 2
 136 100 l 1
 226 524 l 1
 210 524 l 2
 173 524 153 536 153 561 c 0
 153 606 186 624 232 624 c 2
 348 624 l 1
 276 287 l 1
 368 350 l 1
 361 360 359 367 359 376 c 0
EndSplineSet
Validated: 1
EndChar

StartChar: l
Encoding: 108 108 88
Width: 600
Flags: W
HStem: 0 100<84.7947 271 371 535.069> 524 100<240.998 361>
DStem2: 249.744 0 349.744 0 0.207912 0.978148<123.025 535.681>
LayerCount: 2
Fore
SplineSet
550 63 m 0
 550 19 517 0 472 0 c 2
 128 0 l 2
 82 0 71 20 71 38 c 0
 71 82 103 100 149 100 c 2
 271 100 l 1
 361 524 l 1
 283 524 l 2
 246 524 226 535 226 561 c 0
 226 606 259 624 305 624 c 2
 483 624 l 1
 371 100 l 1
 493 100 l 2
 530 100 550 88 550 63 c 0
EndSplineSet
Validated: 1
EndChar

StartChar: m
Encoding: 109 109 89
Width: 600
Flags: W
HStem: 0 100<5.28391 62 162 199.06 373 408.775 584 620.21> 350 100<252.856 341.5 450.048 561.997> 417 20G<120 234>
VStem: -10 224<15.84 84.375> 531 103<233.352 379.316>
DStem2: 40.7443 0 140.744 0 0.207912 0.978148<123.025 343.543> 252 0 351.744 0 0.207912 0.978148<122.972 333.807> 463 0 562.744 0 0.207912 0.978148<122.972 334.741>
LayerCount: 2
Fore
SplineSet
62 375 m 0xd8
 62 418 99 437 141 437 c 2
 234 437 l 1xb8
 229 413 l 1
 270 441 292 450 322 450 c 0
 361 450 390 434 413 401 c 1
 451 435 487 450 528 450 c 0
 593 450 634 409 634 349 c 0
 634 340 633 329 631 319 c 2
 584 100 l 1
 617 100 635 86 635 62 c 0
 635 20 604 0 557 0 c 2
 463 0 l 1
 529 311 l 2
 530 318 531 323 531 328 c 0
 531 344 522 350 502 350 c 0
 476 350 459 341 417 305 c 1
 373 100 l 1
 406 100 424 86 424 62 c 0
 424 19 390 0 346 0 c 2
 252 0 l 1
 318 311 l 2
 319 317 320 323 320 327 c 0
 320 344 311 350 291 350 c 0
 264 350 243 339 206 305 c 1
 162 100 l 1
 196 100 214 86 214 62 c 0
 214 19 181 0 136 0 c 2
 48 0 l 2
 11 0 -10 12 -10 38 c 0
 -10 79 22 100 62 100 c 1
 113 337 l 1
 80 338 62 351 62 375 c 0xd8
EndSplineSet
Validated: 1
EndChar

StartChar: n
Encoding: 110 110 90
Width: 600
Flags: W
HStem: 0 100<46.6369 116 216 264.069 373.292 431 531 568.867> 350 100<336.771 460.532> 417 20G<173.5 288>
VStem: 358 225<15.4536 84.5703> 471 104<253.045 339.093>
DStem2: 94.7443 0 194.744 0 0.207912 0.978148<123.025 335.497> 409.744 0 509.744 0 0.207912 0.978148<123.025 304.926>
LayerCount: 2
Fore
SplineSet
115 375 m 0xc8
 115 420 153 437 194 437 c 2
 288 437 l 1xa8
 278 389 l 1
 336 435 373 450 428 450 c 0
 514 450 575 407 575 324 c 0xc8
 575 311 573 297 570 282 c 2
 531 100 l 1
 565 100 583 86 583 62 c 0
 583 18 549 0 505 0 c 2
 416 0 l 2
 377 0 358 12 358 37 c 0xd0
 358 78 389 100 431 100 c 1
 469 278 l 2
 471 286 471 293 471 299 c 0
 471 334 446 350 394 350 c 0
 348 350 313 333 255 282 c 1
 216 100 l 1
 222 100 l 2
 259 100 279 88 279 63 c 0
 279 19 246 0 201 0 c 2
 89 0 l 2
 53 0 32 11 32 37 c 0
 32 81 64 100 110 100 c 2
 116 100 l 1
 167 337 l 1
 134 338 115 351 115 375 c 0xc8
EndSplineSet
Validated: 1
EndChar

StartChar: o
Encoding: 111 111 91
Width: 600
Flags: W
HStem: -16 100<235.67 408.628> 350 100<282.516 455.268>
VStem: 83 102<131.748 262.789> 507 102<175.617 302.587>
LayerCount: 2
Fore
SplineSet
83 172 m 0
 83 311 222 450 399 450 c 0
 523 450 609 370 609 263 c 0
 609 117 460 -16 297 -16 c 0
 170 -16 83 64 83 172 c 0
318 84 m 0
 426 84 507 165 507 242 c 0
 507 304 453 350 376 350 c 0
 275 350 185 279 185 192 c 0
 185 130 239 84 318 84 c 0
EndSplineSet
Validated: 1
EndChar

StartChar: p
Encoding: 112 112 92
Width: 600
Flags: W
HStem: -205 100<-27.3631 52 152 251.845> 10 100<262.291 440.211> 337 100<87.6369 146> 350 100<318.451 478.998>
VStem: 522 102<183.046 310.193>
DStem2: 30.7443 -205 130.744 -205 0.207912 0.978148<123.025 297.773 442.712 535.309>
LayerCount: 2
Fore
SplineSet
73 374 m 0xe8
 73 419 105 437 151 437 c 2
 267 437 l 1xe8
 257 392 l 1
 315 434 361 450 423 450 c 0xd8
 545 450 624 376 624 272 c 0
 624 115 481 10 331 10 c 0
 272 10 231 26 188 66 c 1
 152 -105 l 1
 210 -105 l 2
 248 -105 267 -116 267 -141 c 0
 267 -185 234 -205 188 -205 c 2
 14 -205 l 2
 -22 -205 -42 -194 -42 -168 c 0
 -42 -123 -10 -105 36 -105 c 2
 52 -105 l 1
 146 337 l 1
 130 337 l 2
 93 337 73 349 73 374 c 0xe8
522 250 m 0
 522 294 493 350 397 350 c 0xd8
 281 350 232 272 223 231 c 0
 221 223 220 215 220 207 c 0
 220 149 268 110 346 110 c 0
 434 110 522 165 522 250 c 0
EndSplineSet
Validated: 1
EndChar

StartChar: q
Encoding: 113 113 93
Width: 600
Flags: W
HStem: -205 100<287.637 409 509 566.845> 10 100<221.567 381.586> 337 100<603 682.363> 350 100<262.814 439.131>
VStem: 76 104<148.923 277.159>
DStem2: 387.744 -205 487.744 -205 0.207912 0.978148<123.025 276.982 374.753 467.222>
LayerCount: 2
Fore
SplineSet
273 -168 m 0xe8
 273 -124 305 -105 351 -105 c 2
 409 -105 l 1
 445 66 l 1
 384 26 336 10 277 10 c 0
 155 10 76 80 76 180 c 0
 76 340 227 450 373 450 c 0xd8
 436 450 474 434 514 392 c 1
 524 437 l 1
 640 437 l 2
 678 437 697 426 697 401 c 0
 697 356 665 337 619 337 c 2
 603 337 l 1
 509 -105 l 1
 525 -105 l 2
 563 -105 582 -116 582 -141 c 0
 582 -185 549 -205 503 -205 c 2
 329 -205 l 2
 293 -205 273 -194 273 -168 c 0xe8
305 110 m 0
 421 110 471 188 480 229 c 0
 482 237 482 245 482 253 c 0
 482 311 433 350 355 350 c 0
 242 350 180 275 180 210 c 0
 180 167 207 110 305 110 c 0
EndSplineSet
Validated: 1
EndChar

StartChar: r
Encoding: 114 114 94
Width: 600
Flags: W
HStem: 0 100<77.3429 199 299 481.296> 337 100<173.426 250> 349 100<454.114 555.938>
DStem2: 177.744 0 277.744 0 0.207912 0.978148<123.025 295.592>
LayerCount: 2
Fore
SplineSet
649 373 m 0xa0
 649 339 616 313 588 313 c 0
 551 313 554 349 517 349 c 0xa0
 485 349 443 325 331 247 c 1
 299 100 l 1
 438 100 l 2
 476 100 496 89 496 63 c 0
 496 18 464 0 417 0 c 2
 120 0 l 2
 84 0 63 11 63 37 c 0
 63 81 94 100 141 100 c 2
 199 100 l 1
 250 337 l 1
 215 337 l 2
 179 337 158 349 158 374 c 0
 158 415 189 437 236 437 c 2
 371 437 l 1xc0
 357 372 l 1
 450 432 491 449 540 449 c 0
 580 449 649 418 649 373 c 0xa0
EndSplineSet
Validated: 1
EndChar

StartChar: s
Encoding: 115 115 95
Width: 600
Flags: W
HStem: -16 100<221.758 422.399> 1 21G<109.5 130.5> 350 100<281.652 462.046>
VStem: 155 114<255.5 333.691> 445 112<106.75 158.452>
LayerCount: 2
Fore
SplineSet
318 84 m 0xb8
 383 84 445 103 445 132 c 0
 445 169 357 176 329 179 c 0
 209 192 155 225 155 286 c 0
 155 383 268 450 394 450 c 0
 443 450 482 442 517 424 c 1
 529 443 540 450 555 450 c 0
 579 450 591 438 591 412 c 0
 591 404 590 395 588 384 c 2
 580 347 l 2
 571 304 551 281 516 281 c 0
 490 281 480 298 472 321 c 1
 448 341 417 350 375 350 c 0
 323 350 269 334 269 311 c 0
 269 289 313 285 366 277 c 0
 457 263 557 245 557 154 c 0
 557 51 438 -16 301 -16 c 0xb8
 244 -16 195 -6 159 13 c 1
 146 4 137 1 124 1 c 0x78
 95 1 84 16 84 41 c 0
 84 49 85 57 87 67 c 2
 94 100 l 2
 103 144 124 167 159 167 c 0
 185 167 198 153 201 123 c 1
 224 97 264 84 318 84 c 0xb8
EndSplineSet
Validated: 1
EndChar

StartChar: t
Encoding: 116 116 96
Width: 600
Flags: W
HStem: -16 100<246.312 430.577> 24 105<445.35 525.649> 337 100<108.343 186 307 530.363> 571 20G<272 303.5>
VStem: 137 105<89.7444 208.859>
DStem2: 110.667 -16 210.629 -16 0.207912 0.978148<161.587 360.949 483.921 600.614>
LayerCount: 2
Fore
SplineSet
545 400 m 0xb8
 545 355 513 337 467 337 c 2
 286 337 l 1
 244 141 l 2
 242 133 242 127 242 121 c 0
 242 88 269 84 318 84 c 0xb8
 430 84 475 129 508 129 c 0
 531 129 547 112 547 89 c 0
 547 55 528 42 484 24 c 0x78
 430 1 348 -16 296 -16 c 0
 195 -16 137 25 137 93 c 0
 137 102 138 112 140 122 c 2
 186 337 l 1
 151 337 l 2
 115 337 94 348 94 374 c 0
 94 418 125 437 172 437 c 2
 207 437 l 1
 226 525 l 2
 235 567 254 591 290 591 c 0
 317 591 329 578 329 552 c 0
 329 544 328 535 326 525 c 2
 307 437 l 1
 488 437 l 2
 525 437 545 425 545 400 c 0xb8
EndSplineSet
Validated: 1
EndChar

StartChar: u
Encoding: 117 117 97
Width: 600
Flags: W
HStem: -13 100<234.654 360.744> 0 21G<410 527.5> 337 100<107.854 167 403.925 482>
VStem: 123 103<98.0718 184.795>
DStem2: 92.0779 -13 192.44 -13 0.207912 0.978148<175.82 357.929> 407.29 -13 506.981 -13 0.207912 0.978148<146.212 357.885>
LayerCount: 2
Fore
SplineSet
583 62 m 0xb0
 583 19 550 0 505 0 c 2
 410 0 l 1x70
 420 48 l 1
 360 1 325 -13 270 -13 c 0
 182 -13 123 31 123 113 c 0
 123 126 125 141 128 156 c 2
 167 337 l 1
 140 337 l 2
 111 337 94 353 94 376 c 0
 94 419 127 437 172 437 c 2
 288 437 l 1
 229 159 l 2
 227 151 226 144 226 138 c 0
 226 103 250 87 301 87 c 0
 351 87 379 100 443 155 c 1
 482 337 l 1
 447 337 l 2
 413 337 390 350 390 376 c 0
 390 419 423 437 468 437 c 2
 603 437 l 1
 531 100 l 1
 565 100 583 86 583 62 c 0xb0
EndSplineSet
Validated: 1
EndChar

StartChar: v
Encoding: 118 118 98
Width: 600
Flags: W
HStem: 0 21G<241.362 365.184> 337 100<95.6369 152 265 333.29 428.655 481 590 669.363>
DStem2: 265 337 152 337 0.271324 -0.962488<0 224.028> 328 122 351 0 0.578487 0.815691<0 263.882>
LayerCount: 2
Fore
SplineSet
348 400 m 0
 348 353 313 337 265 337 c 1
 328 122 l 1
 481 337 l 1
 439 337 414 344 414 373 c 0
 414 418 446 437 492 437 c 2
 627 437 l 2
 664 437 684 425 684 400 c 0
 684 355 652 337 606 337 c 2
 590 337 l 1
 351 0 l 1
 247 0 l 1
 152 337 l 1
 138 337 l 2
 101 337 81 349 81 374 c 0
 81 419 113 437 159 437 c 2
 291 437 l 2
 328 437 348 425 348 400 c 0
EndSplineSet
Validated: 1
EndChar

StartChar: w
Encoding: 119 119 99
Width: 600
Flags: W
HStem: 0 21G<138.231 244.713 368.354 473.231> 338 99<96.4633 126 232 295.102 471.983 520 620 669.597>
VStem: 81 227<352.5 420.957> 126 112<185 338> 456 228<352.172 420.5>
DStem2: 447 185 464 0 0.419058 0.907959<0 169.509>
LayerCount: 2
Fore
SplineSet
456 374 m 0xd8
 456 414 486 437 534 437 c 2
 627 437 l 2
 664 437 684 425 684 400 c 0
 684 362 656 338 620 338 c 1
 464 0 l 1
 372 0 l 1
 339 181 l 1
 233 0 l 1
 139 0 l 1
 126 338 l 1xd8
 97 338 81 353 81 375 c 0
 81 420 119 437 159 437 c 2
 251 437 l 2
 288 437 308 425 308 400 c 0xe8
 308 356 278 338 232 338 c 1
 238 185 l 1
 332 343 l 1
 420 343 l 1
 447 185 l 1
 520 338 l 1
 480 338 456 347 456 374 c 0xd8
EndSplineSet
Validated: 1
EndChar

StartChar: x
Encoding: 120 120 100
Width: 600
Flags: W
HStem: 0 100<45.6966 96 546 577.135> 337 100<136.446 164 577 625.608>
VStem: 121 226<352.909 420.924> 415 226<353.213 420.547>
DStem2: 268 228 247 100 0.811123 0.584875<-91.8976 0 123.517 201.096>
LayerCount: 2
Fore
SplineSet
415 375 m 0
 415 399 431 437 493 437 c 2
 584 437 l 2
 605 437 641 437 641 398 c 0
 641 382 632 342 577 337 c 1
 421 227 l 1
 546 100 l 1
 575 100 591 85 591 62 c 0
 591 18 558 0 513 0 c 2
 401 0 l 2
 375 0 343 3 343 39 c 0
 343 63 360 91 395 100 c 1
 333 161 l 1
 247 100 l 1
 268 90 277 80 277 64 c 0
 277 44 267 0 198 0 c 2
 87 0 l 2
 49 0 31 13 31 37 c 0
 31 57 41 97 96 100 c 1
 268 228 l 1
 164 337 l 1
 136 337 121 353 121 375 c 0
 121 400 136 437 199 437 c 2
 291 437 l 2
 330 437 347 428 347 398 c 0
 347 387 342 360 311 342 c 1
 361 293 l 1
 433 343 l 1
 420 353 415 363 415 375 c 0
EndSplineSet
Validated: 1
EndChar

StartChar: y
Encoding: 121 121 101
Width: 600
Flags: W
HStem: -205 100<0.854507 165 275 322.002> 337 100<118.401 142 256 311.365 450.309 490 599 647.614>
VStem: 102 225<352.893 420.013> 435 228<351.713 420.957>
DStem2: 256 337 142 337 0.289451 -0.957193<0 232.558> 165 -105 275 -105 0.59239 0.805651<65.163 133.217 269.443 548.625>
LayerCount: 2
Fore
SplineSet
435 375 m 0
 435 420 473 437 514 437 c 2
 606 437 l 2
 644 437 663 426 663 401 c 0
 663 363 635 337 599 337 c 1
 275 -105 l 1
 314 -105 337 -115 337 -142 c 0
 337 -186 304 -205 258 -205 c 2
 43 -205 l 2
 10 -205 -13 -194 -13 -167 c 0
 -13 -123 20 -105 65 -105 c 2
 165 -105 l 1
 243 3 l 1
 142 337 l 1
 116 337 102 352 102 374 c 0
 102 418 140 437 180 437 c 2
 270 437 l 2
 307 437 327 425 327 400 c 0
 327 360 297 338 256 337 c 1
 322 114 l 1
 490 337 l 1
 454 337 435 351 435 375 c 0
EndSplineSet
Validated: 1
EndChar

StartChar: z
Encoding: 122 122 102
Width: 600
Flags: W
HStem: 0 154<456.102 519> 0 100<265 448.957> 337 100<264.085 418>
VStem: 163 106<283.885 336.516>
DStem2: 103 83 265 100 0.777987 0.62828<136.715 404.649>
LayerCount: 2
Fore
SplineSet
269 337 m 1x70
 267 330 259 262 203 262 c 0
 181 262 163 277 163 299 c 0
 163 306 164 315 167 328 c 2
 190 437 l 1
 599 437 l 1
 582 356 l 1
 265 100 l 1
 440 100 l 1x70
 450 135 472 154 502 154 c 0
 533 154 542 129 542 118 c 0
 542 112 541 103 538 88 c 2
 519 0 l 1xb0
 85 0 l 1
 103 83 l 1
 418 337 l 1
 269 337 l 1x70
EndSplineSet
Validated: 1
EndChar

StartChar: braceleft
Encoding: 123 123 103
Width: 600
Flags: W
HStem: -153 101<343.006 396.326> 522 101<457.625 539.138>
VStem: 240 103<-50.8588 65.2266> 282 103<71.7344 201.5>
DStem2: 215.155 -153 315.667 -153 0.207912 0.978148<146.144 328.631 450.101 713.251>
LayerCount: 2
Fore
SplineSet
282 169 m 0xd0
 282 204 217 172 217 227 c 0
 217 243 225 285 278 290 c 0
 304 293 312 301 318 328 c 2
 353 492 l 2
 368 563 440 623 509 623 c 0
 539 623 556 608 556 584 c 0
 556 558 534 525 495 522 c 1
 467 521 457 512 451 485 c 2
 418 328 l 2
 409 285 399 268 370 240 c 1
 380 223 385 210 385 193 c 0xd0
 385 180 383 164 378 142 c 2
 345 -15 l 2
 344 -21 343 -26 343 -31 c 0
 343 -45 351 -50 373 -52 c 0
 398 -54 412 -69 412 -91 c 0
 412 -128 381 -153 345 -153 c 0
 284 -153 240 -107 240 -48 c 0xe0
 240 -40 241 -31 243 -22 c 2
 280 151 l 2
 282 158 282 164 282 169 c 0xd0
EndSplineSet
Validated: 1
EndChar

StartChar: bar
Encoding: 124 124 104
Width: 600
Flags: W
HStem: 602 20G<414.5 445.5>
VStem: 228 243
DStem2: 217.971 -153 317.971 -153 0.207912 0.978148<41.5781 771.179>
LayerCount: 2
Fore
SplineSet
468 556 m 2
 332 -87 l 2
 323 -129 302 -153 267 -153 c 0
 241 -153 228 -139 228 -113 c 0
 228 -105 230 -97 232 -87 c 2
 368 556 l 2
 377 599 397 622 432 622 c 0
 459 622 471 608 471 582 c 0
 471 574 470 566 468 556 c 2
EndSplineSet
Validated: 1
EndChar

StartChar: braceright
Encoding: 125 125 105
Width: 600
Flags: W
HStem: -153 101<160.08 241.531> 522 101<303.909 356.848>
VStem: 315 103<268.5 398.266> 357 103<404.773 520.859>
DStem2: 219.667 -153 319.155 -153 0.207912 0.978148<100.893 364.075 485.545 668.032>
LayerCount: 2
Fore
SplineSet
418 301 m 0xe0
 418 266 483 298 483 243 c 0
 483 227 475 185 422 180 c 0
 396 177 388 169 382 142 c 2
 347 -22 l 2
 332 -93 259 -153 190 -153 c 0
 161 -153 144 -138 144 -114 c 0
 144 -85 169 -54 205 -52 c 0
 233 -51 243 -42 249 -15 c 2
 282 142 l 2
 291 185 301 202 330 230 c 1
 320 247 315 260 315 277 c 0xe0
 315 290 317 306 322 328 c 2
 355 485 l 2
 356 491 357 496 357 501 c 0
 357 515 349 520 327 522 c 0
 302 524 288 539 288 561 c 0
 288 596 317 623 354 623 c 0
 415 623 460 577 460 518 c 0xd0
 460 509 459 501 457 492 c 2
 420 319 l 2
 418 312 418 306 418 301 c 0xe0
EndSplineSet
Validated: 1
EndChar

StartChar: asciitilde
Encoding: 126 126 106
Width: 600
Flags: W
HStem: 179 105<416.929 482.854> 281 104<238.243 302.992>
LayerCount: 2
Fore
SplineSet
295 385 m 0x40
 384 385 411 284 449 284 c 0
 479 284 524 364 565 364 c 0
 589 364 606 346 606 324 c 0
 606 277 496 179 429 179 c 0x80
 347 179 301 281 272 281 c 0
 243 281 199 201 156 201 c 0
 132 201 115 219 115 242 c 0
 115 289 220 385 295 385 c 0x40
EndSplineSet
Validated: 1
EndChar

StartChar: exclamdown
Encoding: 161 161 108
Width: 600
Flags: W
HStem: 294 132<328.717 425.33>
VStem: 187 168<-182.723 -81.5156> 290 99<160.402 218.329> 300 153<322.514 397.89>
LayerCount: 2
Fore
SplineSet
187 -166 m 0xc0
 187 -151 191 -134 198 -114 c 2
 290 183 l 2
 299 214 321 232 349 232 c 0
 375 232 389 216 389 190 c 2
 389 183 l 1xa0
 355 -114 l 2
 348 -179 317 -227 252 -227 c 0
 212 -227 187 -202 187 -166 c 0xc0
300 346 m 0x90
 300 390 341 426 383 426 c 2
 400 426 l 2
 432 426 453 404 453 373 c 0
 453 336 418 294 371 294 c 2
 354 294 l 2
 322 294 300 316 300 346 c 0x90
EndSplineSet
Validated: 1
EndChar

StartChar: cent
Encoding: 162 162 109
Width: 600
Flags: W
HStem: -44 241<280.984 393>
VStem: 144 103<231.285 354.866>
DStem2: 241.971 -44 341.971 -44 0.207912 0.978148<37.6217 151.882 604.477 702.985>
LayerCount: 2
Fore
SplineSet
352 197 m 0
 434 197 464 245 501 245 c 0
 524 245 541 227 541 204 c 0
 541 162 478 117 372 99 c 1
 356 22 l 2
 347 -18 329 -44 292 -44 c 0
 264 -44 252 -22 252 -8 c 0
 252 -1 253 9 256 22 c 2
 273 103 l 1
 191 124 144 184 144 264 c 0
 144 393 253 492 361 517 c 1
 377 594 l 2
 378 597 386 661 442 661 c 0
 463 661 482 646 482 624 c 0
 482 617 480 608 477 594 c 2
 463 527 l 1
 493 522 513 515 531 503 c 1
 541 506 546 507 552 507 c 0
 580 507 593 486 593 471 c 0
 593 465 592 456 589 441 c 2
 580 399 l 2
 571 359 553 333 516 333 c 0
 491 333 478 347 478 373 c 0
 478 399 478 427 411 427 c 0
 312 427 247 354 247 288 c 0
 247 236 288 197 352 197 c 0
EndSplineSet
Validated: 1
EndChar

StartChar: sterling
Encoding: 163 163 110
Width: 600
Flags: W
HStem: 0 100<80.7761 169.969 268 481.027> 243 100<108.637 216 317.657 426.063> 444 21G<477.5 517> 498 100<344.987 456.866>
VStem: 213 102<344.189 469.337>
LayerCount: 2
Fore
SplineSet
387 343 m 2
 426 343 444 334 444 304 c 0
 444 277 419 243 366 243 c 2
 321 243 l 1
 311 182 300 151 268 100 c 1
 471 100 l 1
 482 130 502 146 530 146 c 0
 556 146 571 131 571 106 c 0
 571 70 545 0 442 0 c 2
 121 0 l 2
 96 0 65 3 65 40 c 0
 65 56 72 89 126 100 c 0
 152 105 165 113 178 132 c 0
 196 157 209 188 217 224 c 0
 217 227 219 235 220 243 c 1
 151 243 l 2
 111 243 94 252 94 284 c 0
 94 322 126 343 172 343 c 2
 216 343 l 1
 214 359 213 373 213 386 c 0
 213 515 318 598 426 598 c 0
 498 598 563 553 563 506 c 0
 563 473 532 444 502 444 c 0
 453 444 476 498 404 498 c 0
 373 498 315 480 315 409 c 0
 315 397 316 378 319 343 c 1
 387 343 l 2
EndSplineSet
Validated: 1
EndChar

StartChar: currency
Encoding: 164 164 111
Width: 600
Flags: W
HStem: 97 100<287.661 406.148> 388 100<318.135 437.214>
VStem: 163 103<218.946 336.747> 458 103<248.411 367.112>
DStem2: 133 162 190 91 0.771539 0.636182<-57.8769 57.9609 461.651 573.968> 276 493 188 419 0.616244 -0.787555<-36.793 44.5348 376.063 459.325>
LayerCount: 2
Fore
SplineSet
553 126 m 0
 553 91 519 64 489 64 c 0
 472 64 466 69 448 90 c 2
 421 122 l 1
 381 103 356 97 321 97 c 0
 285 97 263 103 230 123 c 1
 190 91 l 2
 162 68 155 64 138 64 c 0
 114 64 96 81 96 104 c 0
 96 131 104 137 133 162 c 2
 173 196 l 1
 167 217 163 234 163 251 c 0
 163 310 181 345 213 388 c 1
 188 419 l 2
 178 431 172 445 172 459 c 0
 172 492 204 519 234 519 c 0
 251 519 258 515 276 493 c 2
 301 462 l 1
 342 482 368 488 404 488 c 0
 440 488 462 481 495 461 c 1
 532 491 l 2
 559 513 568 517 585 517 c 0
 609 517 626 500 626 477 c 0
 626 450 618 444 589 420 c 2
 551 388 l 1
 557 367 561 350 561 333 c 0
 561 273 544 241 510 196 c 1
 535 162 l 2
 548 146 553 137 553 126 c 0
342 197 m 0
 398 197 458 248 458 313 c 0
 458 356 428 388 382 388 c 0
 327 388 266 339 266 273 c 0
 266 230 298 197 342 197 c 0
EndSplineSet
Validated: 1
EndChar

StartChar: yen
Encoding: 165 165 112
Width: 600
Flags: W
HStem: 0 100<160.775 271 371 459.574> 135 56<158.508 279 391 511.492> 225 56<177.382 285 435 530.492> 481 99<146.637 189 616 677.548>
VStem: 132 228<496.568 564.658> 466 227<496.887 564.297>
DStem2: 309 482 189 481 0.432731 -0.901523<0 149.364> 375 348 435 281 0.672858 0.739772<0 181.151>
LayerCount: 2
Fore
SplineSet
475 64 m 0
 475 21 444 0 397 0 c 2
 203 0 l 2
 157 0 146 20 146 38 c 0
 146 42 147 46 148 50 c 0
 155 85 180 100 225 100 c 2
 271 100 l 1
 279 135 l 1
 182 135 l 2
 165 135 156 142 156 155 c 0
 156 178 172 191 194 191 c 2
 291 191 l 1
 298 225 l 1
 201 225 l 2
 184 225 175 232 175 245 c 0
 175 268 190 281 213 281 c 2
 285 281 l 1
 189 481 l 1
 159 481 132 489 132 518 c 0
 132 561 164 580 210 580 c 2
 302 580 l 2
 340 580 360 569 360 543 c 0
 360 511 336 487 309 482 c 1
 375 348 l 1
 498 481 l 1
 477 487 466 501 466 519 c 0
 466 561 499 580 545 580 c 2
 636 580 l 2
 674 580 693 569 693 544 c 0
 693 501 658 480 616 480 c 1
 435 281 l 1
 507 281 l 2
 524 281 533 274 533 261 c 0
 533 238 517 225 495 225 c 2
 398 225 l 1
 391 191 l 1
 488 191 l 2
 505 191 514 184 514 171 c 0
 514 148 498 135 476 135 c 2
 379 135 l 1
 371 100 l 1
 418 100 l 2
 456 100 475 89 475 64 c 0
EndSplineSet
Validated: 1
EndChar

StartChar: brokenbar
Encoding: 166 166 113
Width: 600
Flags: W
HStem: 602 20G<414.5 448>
DStem2: 217.971 -153 317.971 -153 0.207912 0.978148<41.5781 321.458 491.507 772.274>
LayerCount: 2
Fore
SplineSet
432 622 m 0
 464 622 472 603 472 583 c 0
 472 573 470 564 468 556 c 2
 425 353 l 2
 416 310 396 287 361 287 c 0
 334 287 322 301 322 327 c 0
 322 335 323 343 325 353 c 2
 368 556 l 2
 377 599 397 622 432 622 c 0
375 116 m 2
 332 -87 l 2
 323 -129 302 -153 267 -153 c 0
 241 -153 228 -139 228 -113 c 0
 228 -105 230 -97 232 -87 c 2
 275 116 l 2
 284 159 304 182 339 182 c 0
 366 182 378 168 378 142 c 0
 378 134 377 126 375 116 c 2
EndSplineSet
Validated: 1
EndChar

StartChar: section
Encoding: 167 167 114
Width: 600
Flags: W
HStem: -170 182<85.3242 151.695> -170 88<152 353.469> 401 182<536.309 603.064> 493 90<331.875 536>
VStem: 93 100<242.604 316.334> 222 88<395.899 472> 376 88<-57.3594 14.947> 495 100<96.6858 167.07>
DStem2: 352 147 198 130 0.836177 -0.54846<-202.108 93.3037> 397 342 330 271 0.833538 -0.552462<-102.62 193.021>
LayerCount: 2
Fore
SplineSet
560 401 m 0x2f
 547 401 525 409 525 431 c 0
 525 437 526 445 528 456 c 2
 536 493 l 1
 392 493 l 2
 341 493 310 457 310 433 c 0
 310 409 339 379 397 342 c 2
 478 291 l 2
 564 237 595 204 595 158 c 0
 595 112 567 33 464 10 c 1
 464 -83 390 -170 276 -170 c 2
 45 -170 l 1x5f
 72 -43 l 2
 80 -6 98 12 128 12 c 0x8f
 156 12 164 -13 164 -19 c 0
 164 -24 162 -31 160 -43 c 2
 152 -82 l 1
 297 -82 l 2
 341 -82 376 -48 376 -23 c 0
 376 2 348 32 291 69 c 2
 198 130 l 2
 124 179 93 214 93 259 c 0
 93 316 135 379 222 402 c 1
 222 501 316 583 418 583 c 2
 643 583 l 1x5f
 616 456 l 2
 609 425 595 401 560 401 c 0x2f
495 126 m 0
 495 149 467 181 416 214 c 2
 330 271 l 2
 300 290 291 297 261 326 c 1
 205 326 193 301 193 285 c 0
 193 261 215 236 262 205 c 2
 352 147 l 2
 400 116 412 103 426 88 c 1
 474 88 495 104 495 126 c 0
EndSplineSet
Validated: 1
EndChar

StartChar: dieresis
Encoding: 168 168 115
Width: 600
Flags: W
HStem: 534 120<284.795 359.999 492.795 567.999>
VStem: 261 122<556.892 630> 469 122<556.892 630>
LayerCount: 2
Fore
SplineSet
261 582 m 0
 261 614 293 654 335 654 c 0
 364 654 383 634 383 606 c 0
 383 564 343 534 310 534 c 0
 281 534 261 555 261 582 c 0
469 582 m 0
 469 614 501 654 543 654 c 0
 572 654 591 634 591 606 c 0
 591 564 551 534 518 534 c 0
 489 534 469 555 469 582 c 0
EndSplineSet
Validated: 1
EndChar

StartChar: copyright
Encoding: 169 169 116
Width: 600
Flags: W
HStem: -15 73<219.986 406.522> 118 71<278.803 413.969> 395 71<314.488 432.357> 525 73<315.21 504.363>
VStem: 48 75<154.786 340.074> 189 72<205.854 334.275> 600 75<244.34 430.112>
DStem2: 131.634 -15 202.421 -15 0.207912 0.978148<288.337 407.011>
LayerCount: 2
Fore
SplineSet
192 269 m 2
 200 305 l 2
 220 397 301 466 390 466 c 0
 418 466 440 461 465 447 c 1
 473 459 483 466 497 466 c 0
 514 466 523 456 523 439 c 0
 523 436 523 432 522 428 c 2
 509 368 l 2
 503 340 487 324 465 324 c 0
 444 324 437 335 437 359 c 0
 437 379 413 395 377 395 c 0
 326 395 283 357 271 304 c 2
 263 270 l 2
 262 264 261 258 261 252 c 0
 261 213 292 189 343 189 c 0
 382 189 396 194 424 218 c 0
 432 225 443 229 452 229 c 0
 469 229 481 216 481 200 c 0
 481 154 397 118 327 118 c 0
 243 118 189 167 189 237 c 0
 189 247 190 258 192 269 c 2
426 598 m 0
 574 598 675 494 675 356 c 0
 675 150 478 -15 293 -15 c 0
 149 -15 48 91 48 229 c 0
 48 433 246 598 426 598 c 0
412 525 m 0
 273 525 123 401 123 244 c 0
 123 139 199 58 309 58 c 0
 450 58 600 184 600 341 c 0
 600 447 523 525 412 525 c 0
EndSplineSet
Validated: 1
EndChar

StartChar: ordfeminine
Encoding: 170 170 117
Width: 600
Flags: W
HStem: 182 77<175.136 522.71> 273 79<288.677 415.977> 284 78<509 550.1> 410 72<396.932 441> 417 70<304.997 440.138> 501 74<270.957 403.392> 517 78<294.28 458.56>
VStem: 194 94<330.809 397.871> 459 80<482.185 540.268>
LayerCount: 2
Fore
SplineSet
559 333 m 0xa380
 559 314 547 284 499 284 c 2
 414 284 l 1xa380
 417 295 l 1
 373 279 343 273 304 273 c 0
 240 273 194 308 194 354 c 0
 194 394 246 487 396 487 c 0xc980
 416 487 428 486 456 482 c 1
 458 490 459 491 459 496 c 0
 459 511 443 517 406 517 c 0x9380
 350 517 317 501 295 501 c 0
 277 501 265 514 265 532 c 0
 265 545 272 565 297 575 c 1x8580
 334 587 383 595 418 595 c 0
 496 595 539 566 539 514 c 0
 539 506 538 498 536 490 c 2
 509 362 l 1
 515 362 l 2
 545 362 559 353 559 333 c 0xa380
435 383 m 1
 441 410 l 1xd180
 410 416 396 417 377 417 c 0
 326 417 288 390 288 372 c 0
 288 360 303 352 327 352 c 0xc980
 359 352 406 365 435 383 c 1
531 232 m 0
 531 218 525 182 471 182 c 2
 215 182 l 2
 181 182 169 186 169 206 c 0
 169 258 201 259 231 259 c 2
 486 259 l 2
 517 259 531 250 531 232 c 0
EndSplineSet
Validated: 1
EndChar

StartChar: guillemotleft
Encoding: 171 171 118
Width: 600
Flags: W
LayerCount: 2
Fore
SplineSet
354 54 m 0
 354 35 331 20 313 20 c 0
 304 20 300 22 288 33 c 2
 79 218 l 1
 366 402 l 2
 383 413 388 415 398 415 c 0
 413 415 424 404 424 390 c 0
 424 384 423 373 402 358 c 2
 221 218 l 1
 342 77 l 2
 349 69 354 61 354 54 c 0
583 54 m 0
 583 35 560 20 542 20 c 0
 533 20 529 22 517 33 c 2
 308 218 l 1
 595 402 l 2
 612 413 617 415 627 415 c 0
 642 415 653 404 653 390 c 0
 653 384 652 373 631 358 c 2
 450 218 l 1
 571 77 l 2
 578 69 583 61 583 54 c 0
EndSplineSet
Validated: 1
EndChar

StartChar: logicalnot
Encoding: 172 172 119
Width: 600
Flags: W
HStem: 345 100<138.623 438>
DStem2: 388.971 115 488.971 115 0.207912 0.978148<41.7859 235.168>
LayerCount: 2
Fore
SplineSet
125 383 m 0
 125 427 157 445 203 445 c 2
 560 445 l 1
 503 181 l 2
 494 138 474 115 439 115 c 0
 412 115 400 129 400 155 c 0
 400 163 401 171 403 181 c 2
 438 345 l 1
 181 345 l 2
 145 345 125 357 125 383 c 0
EndSplineSet
Validated: 1
EndChar

StartChar: registered
Encoding: 174 174 121
Width: 600
Flags: W
HStem: -15 73<217.018 410.788> 126 71<193.437 239 311 339.832> 387 71<249.227 279 351 420.734> 525 73<309.895 504.667>
VStem: 48 75<154.378 340.838> 187 159<132.812 189.839> 390 92<133.013 195.277> 424 72<328.104 382.631> 600 75<244.117 429.506>
DStem2: 193.938 -15 265.938 -15 0.207912 0.978148<231.706 281.714 353.303 410.901>
LayerCount: 2
Fore
SplineSet
482 171 m 0xfe80
 482 154 472 126 430 126 c 2
 390 126 l 1xfe80
 388 175 362 233 336 246 c 1
 321 246 l 1
 311 197 l 1
 333 197 346 187 346 171 c 0
 346 153 336 126 294 126 c 2
 226 126 l 2
 200 126 187 136 187 154 c 0
 187 171 200 197 239 197 c 1
 279 387 l 1
 255 388 243 397 243 414 c 0
 243 432 254 458 296 458 c 2
 389 458 l 2
 455 458 496 425 496 375 c 0xfd80
 496 331 466 288 415 266 c 1
 434 244 439 235 453 197 c 1
 471 195 482 186 482 171 c 0xfe80
361 316 m 2
 402 316 424 342 424 360 c 0xfd80
 424 376 406 387 376 387 c 2
 351 387 l 1
 336 316 l 1
 361 316 l 2
48 229 m 0
 48 414 230 598 427 598 c 0
 573 598 675 494 675 356 c 0
 675 170 498 -15 293 -15 c 0
 149 -15 48 90 48 229 c 0
309 58 m 0
 468 58 600 202 600 340 c 0
 600 445 524 525 412 525 c 0
 261 525 123 386 123 244 c 0
 123 138 199 58 309 58 c 0
EndSplineSet
Validated: 1
EndChar

StartChar: macron
Encoding: 175 175 122
Width: 600
Flags: W
HStem: 546 80<257.701 590.93>
LayerCount: 2
Fore
SplineSet
249 579 m 0
 249 598 264 626 311 626 c 2
 555 626 l 2
 586 626 600 621 600 591 c 0
 600 570 578 546 538 546 c 2
 294 546 l 2
 273 546 249 546 249 579 c 0
EndSplineSet
Validated: 1
EndChar

StartChar: degree
Encoding: 176 176 123
Width: 600
Flags: W
HStem: 243 61<305.804 433.878> 535 61<343.814 475.252>
VStem: 210 63<336.917 463.388> 506 62<375.114 503.881>
LayerCount: 2
Fore
SplineSet
210 384 m 0
 210 489 312 596 427 596 c 0
 511 596 568 537 568 458 c 0
 568 350 467 243 350 243 c 0
 268 243 210 304 210 384 c 0
364 304 m 0
 435 304 506 370 506 445 c 0
 506 496 469 535 414 535 c 0
 341 535 273 466 273 397 c 0
 273 345 311 304 364 304 c 0
EndSplineSet
Validated: 1
EndChar

StartChar: plusminus
Encoding: 177 177 124
Width: 600
Flags: W
HStem: 0 100<65.0991 555.363> 330 100<135.099 320 441 625.296> 604 20G<416 446.5>
DStem2: 250.112 0 350.112 0 0.207912 0.978148<209.45 337.319 460.291 617.982>
LayerCount: 2
Fore
SplineSet
640 393 m 0
 640 348 608 330 561 330 c 2
 420 330 l 1
 399 230 l 2
 390 187 370 164 335 164 c 0
 308 164 296 178 296 204 c 0
 296 212 297 220 299 230 c 2
 320 330 l 1
 178 330 l 2
 142 330 121 342 121 368 c 0
 121 412 154 430 199 430 c 2
 341 430 l 1
 369 558 l 2
 378 600 399 624 433 624 c 0
 460 624 472 611 472 585 c 0
 472 577 471 568 469 558 c 2
 441 430 l 1
 582 430 l 2
 620 430 640 419 640 393 c 0
51 38 m 0
 51 82 84 100 129 100 c 2
 513 100 l 2
 550 100 570 88 570 63 c 0
 570 18 538 0 492 0 c 2
 108 0 l 2
 72 0 51 12 51 38 c 0
EndSplineSet
Validated: 1
EndChar

StartChar: twosuperior
Encoding: 178 178 125
Width: 600
Flags: W
HStem: 247 99<433.663 482> 247 67<320 442.04> 570 67<357.077 463.528>
VStem: 470 68<487.813 562.026>
LayerCount: 2
Fore
SplineSet
538 542 m 0x70
 538 470 486 433 320 314 c 1
 429 314 l 1x70
 436 335 450 346 469 346 c 0
 487 346 495 338 495 321 c 0
 495 316 495 310 493 303 c 2
 482 247 l 1xb0
 202 247 l 1
 216 315 l 1
 437 470 470 494 470 528 c 0
 470 552 448 570 414 570 c 0
 361 570 343 533 336 520 c 0
 329 508 314 500 301 500 c 0
 284 500 273 511 273 526 c 0
 273 556 334 637 429 637 c 0
 494 637 538 598 538 542 c 0x70
EndSplineSet
Validated: 1
EndChar

StartChar: threesuperior
Encoding: 179 179 126
Width: 600
Flags: W
HStem: 238 67<246.769 431.719> 418 66<352.189 438.184> 570 67<354.055 471.355>
VStem: 452 68<325.5 403.67> 475 69<498.042 564.139>
LayerCount: 2
Fore
SplineSet
348 305 m 0xf0
 410 305 452 324 452 367 c 0xf0
 452 397 420 418 375 418 c 0
 357 418 347 428 347 443 c 0
 347 467 368 484 389 484 c 0
 439 484 475 498 475 536 c 0
 475 557 454 570 420 570 c 0
 351 570 355 533 321 533 c 0
 305 533 295 545 295 560 c 0
 295 604 372 637 437 637 c 0
 501 637 544 601 544 550 c 0xe8
 544 481 477 452 473 448 c 1
 503 431 520 404 520 374 c 0
 520 324 472 238 336 238 c 0
 263 238 218 256 218 285 c 0
 218 308 240 326 259 326 c 0
 287 326 264 305 348 305 c 0xf0
EndSplineSet
Validated: 1
EndChar

StartChar: acute
Encoding: 180 180 127
Width: 600
Flags: W
HStem: 496 200
VStem: 362 254
DStem2: 551 680 428 512 0.814084 0.580748<-235.915 37.3668>
LayerCount: 2
Fore
SplineSet
616 668 m 0
 616 650 606 639 585 624 c 2
 428 512 l 2
 410 500 402 496 392 496 c 0
 374 496 362 509 362 525 c 0
 362 534 365 549 394 569 c 2
 551 680 l 2
 569 693 575 696 586 696 c 0
 604 696 616 684 616 668 c 0
EndSplineSet
Validated: 1
EndChar

StartChar: paragraph
Encoding: 182 182 128
Width: 600
Flags: W
HStem: -174 78<116.085 250 448 522.225> 185 81<273.401 309> 505 78<455 499 575 665.145>
VStem: 123 114<299.27 385.769>
DStem2: 233.421 -174 311.421 -174 0.207912 0.978148<79.7426 366.869 449.841 688.915> 355.421 -174 431.421 -174 0.207912 0.978148<95.5438 694.014>
LayerCount: 2
Fore
SplineSet
673 554 m 0
 673 521 648 505 609 505 c 2
 575 505 l 1
 448 -96 l 1
 484 -96 l 2
 516 -96 530 -106 530 -125 c 0
 530 -159 505 -174 467 -174 c 2
 374 -174 l 2
 353 -174 345 -165 341 -140 c 1
 324 -168 315 -174 291 -174 c 2
 154 -174 l 2
 124 -174 108 -165 108 -145 c 0
 108 -111 135 -96 171 -96 c 2
 250 -96 l 1
 309 185 l 1
 196 197 123 257 123 334 c 0
 123 343 124 352 126 361 c 2
 136 407 l 2
 157 504 287 583 429 583 c 2
 626 583 l 2
 657 583 673 574 673 554 c 0
327 266 m 1
 376 500 l 1
 306 486 258 450 248 405 c 2
 239 361 l 2
 238 356 237 351 237 346 c 0
 237 308 270 278 327 266 c 1
499 505 m 1
 455 505 l 1
 328 -96 l 1
 340 -102 343 -108 345 -124 c 1
 352 -109 360 -102 372 -96 c 1
 499 505 l 1
EndSplineSet
Validated: 1
EndChar

StartChar: periodcentered
Encoding: 183 183 129
Width: 600
Flags: W
HStem: 214 132<311.964 408.33>
VStem: 283 153<242.514 317.873>
LayerCount: 2
Fore
SplineSet
436 293 m 0
 436 256 401 214 354 214 c 2
 336 214 l 2
 305 214 283 236 283 266 c 0
 283 309 325 346 365 346 c 2
 383 346 l 2
 415 346 436 324 436 293 c 0
EndSplineSet
Validated: 1
EndChar

StartChar: cedilla
Encoding: 184 184 130
Width: 600
Flags: W
HStem: -229 70<207.403 307.61> -100 100<262 309.252>
VStem: 310 72<-155.404 -103.396>
LayerCount: 2
Fore
SplineSet
382 -105 m 0
 382 -171 328 -229 251 -229 c 0
 215 -229 144 -211 144 -173 c 0
 144 -149 168 -131 187 -131 c 0
 208 -131 227 -159 267 -159 c 0
 301 -159 310 -140 310 -128 c 0
 310 -111 294 -100 263 -100 c 0
 258 -100 254 -100 240 -102 c 1
 262 0 l 1
 332 0 l 1
 323 -41 l 1
 363 -50 382 -71 382 -105 c 0
EndSplineSet
Validated: 1
EndChar

StartChar: onesuperior
Encoding: 185 185 131
Width: 600
Flags: W
HStem: 247 67<229.8 334 401 489.674> 618 20G<387.647 465.741>
VStem: 225 270<253.317 307.908>
DStem2: 319.759 247 386.759 247 0.207912 0.978148<82.4269 310.713>
LayerCount: 2
Fore
SplineSet
225 273 m 0
 225 287 232 314 277 314 c 2
 334 314 l 1
 384 551 l 1
 334 539 l 2
 322 536 319 535 313 535 c 0
 298 535 288 547 288 562 c 0
 288 596 323 602 330 604 c 2
 470 638 l 1
 401 314 l 1
 458 314 l 2
 483 314 495 306 495 289 c 0
 495 272 485 247 444 247 c 2
 263 247 l 2
 239 247 225 256 225 273 c 0
EndSplineSet
Validated: 1
EndChar

StartChar: ordmasculine
Encoding: 186 186 132
Width: 600
Flags: W
HStem: 182 77<175.828 519.71> 273 78<320.75 440.087> 517 78<348.75 464.579>
VStem: 219 81<370.464 468.743> 485 81<394.169 496.824>
LayerCount: 2
Fore
SplineSet
219 400 m 0
 219 499 323 595 427 595 c 0
 510 595 566 539 566 463 c 0
 566 351 454 273 359 273 c 0
 276 273 219 327 219 400 c 0
376 351 m 0
 423 351 485 390 485 447 c 0
 485 486 454 517 411 517 c 0
 350 517 300 460 300 417 c 0
 300 381 333 351 376 351 c 0
528 232 m 0
 528 218 523 182 467 182 c 2
 213 182 l 2
 183 182 168 192 168 211 c 0
 168 242 191 259 229 259 c 2
 483 259 l 2
 514 259 528 250 528 232 c 0
EndSplineSet
Validated: 1
EndChar

StartChar: guillemotright
Encoding: 187 187 133
Width: 600
Flags: W
LayerCount: 2
Fore
SplineSet
476 217 m 1
 355 358 l 2
 348 366 345 374 345 381 c 0
 345 401 368 415 384 415 c 0
 393 415 398 413 409 402 c 2
 617 217 l 1
 331 33 l 2
 315 22 309 20 299 20 c 0
 284 20 273 31 273 44 c 0
 273 56 281 67 295 77 c 2
 476 217 l 1
246 217 m 1
 125 358 l 2
 118 366 115 374 115 381 c 0
 115 401 138 415 154 415 c 0
 163 415 168 413 179 402 c 2
 387 217 l 1
 101 33 l 2
 85 22 79 20 69 20 c 0
 54 20 43 31 43 44 c 0
 43 56 51 67 65 77 c 2
 246 217 l 1
EndSplineSet
Validated: 1
EndChar

StartChar: onequarter
Encoding: 188 188 134
Width: 600
Flags: W
HStem: 0 67<473.601 539 606 631.357> 83 67<478 543 624 649.631> 247 67<29.8004 134 201 289.674> 567 20G<567.5 582.5> 618 20G<187.647 265.741>
DStem2: 67.2572 0 134.257 0 0.207912 0.978148<334.945 563.232> 130 604 184 551 0.971754 0.235997<-32.5322 39.9668> 178 110 229 77 0.619588 0.784927<-34.5494 615.665> 391 138 478 150 0.633238 0.773957<64.3792 231.343> 524.759 0 591.759 0 0.207912 0.978148<82.4269 84.9788 167.356 285.22>
LayerCount: 2
Fore
SplineSet
25 273 m 0
 25 287 32 314 77 314 c 2
 134 314 l 1
 184 551 l 1
 134 539 l 2
 122 536 119 535 113 535 c 0
 98 535 88 547 88 562 c 0
 88 596 123 602 130 604 c 2
 270 638 l 1
 201 314 l 1
 258 314 l 2
 283 314 295 306 295 289 c 0
 295 272 285 247 244 247 c 2
 63 247 l 2
 39 247 25 256 25 273 c 0
585 528 m 2
 229 77 l 2
 214 58 204 51 190 51 c 0
 174 51 162 63 162 78 c 0
 162 91 172 102 178 110 c 2
 534 561 l 2
 550 581 560 587 575 587 c 0
 590 587 602 574 602 560 c 0
 602 553 601 547 585 528 c 2
469 26 m 0
 469 43 478 67 520 67 c 2
 539 67 l 1
 543 83 l 1
 380 83 l 1
 391 138 l 1
 589 380 l 1
 673 380 l 1
 624 150 l 1
 644 149 655 140 655 125 c 0
 655 112 647 85 610 83 c 1
 606 67 l 1
 626 66 637 57 637 42 c 0
 637 25 626 0 585 0 c 2
 506 0 l 2
 482 0 469 9 469 26 c 0
557 150 m 1
 584 279 l 1
 478 150 l 1
 557 150 l 1
EndSplineSet
Validated: 1
LCarets2: 2 0 0
EndChar

StartChar: onehalf
Encoding: 189 189 135
Width: 600
Flags: W
HStem: 0 99<581.034 629> 0 67<467 589.455> 247 67<29.8004 134 201 289.674> 323 67<505.307 610.997> 567 20G<567.5 582.5> 618 20G<187.647 265.741>
VStem: 617 68<241.381 314.201>
DStem2: 67.2572 0 134.257 0 0.207912 0.978148<334.945 563.232> 130 604 184 551 0.971754 0.235997<-32.5322 39.9668> 178 110 229 77 0.619588 0.784927<-34.5494 615.665>
LayerCount: 2
Fore
SplineSet
25 273 m 0x3e
 25 287 32 314 77 314 c 2
 134 314 l 1
 184 551 l 1
 134 539 l 2
 122 536 119 535 113 535 c 0
 98 535 88 547 88 562 c 0
 88 596 123 602 130 604 c 2
 270 638 l 1
 201 314 l 1
 258 314 l 2
 283 314 295 306 295 289 c 0
 295 272 285 247 244 247 c 2
 63 247 l 2
 39 247 25 256 25 273 c 0x3e
585 528 m 2
 229 77 l 2
 214 58 204 51 190 51 c 0
 174 51 162 63 162 78 c 0
 162 91 172 102 178 110 c 2
 534 561 l 2
 550 581 560 587 575 587 c 0
 590 587 602 574 602 560 c 0
 602 553 601 547 585 528 c 2
685 296 m 0
 685 221 632 184 467 67 c 1
 576 67 l 1x7e
 584 88 597 99 616 99 c 0
 634 99 643 90 643 72 c 0
 643 68 642 62 641 56 c 2
 629 0 l 1xbe
 349 0 l 1x7e
 363 68 l 1
 576 218 617 247 617 282 c 0
 617 305 595 323 562 323 c 0
 504 323 486 278 483 273 c 0
 476 261 462 253 449 253 c 0
 432 253 421 264 421 279 c 0
 421 313 484 390 577 390 c 0
 642 390 685 351 685 296 c 0
EndSplineSet
Validated: 1
LCarets2: 2 0 0
EndChar

StartChar: threequarters
Encoding: 190 190 136
Width: 600
Flags: W
HStem: 0 67<474.115 540 607 632.357> 83 67<478 544 625 650.631> 238 67<46.7687 231.719> 418 66<152.189 238.184> 567 20G<567.5 582.5> 570 67<154.055 271.355>
VStem: 252 68<325.5 403.67> 275 69<498.042 564.139>
DStem2: 178 110 229 77 0.620658 0.784081<-34.543 615.662> 391 138 478 150 0.635148 0.772391<64.5265 232.126> 525.759 0 592.759 0 0.207912 0.978148<82.4269 84.9788 167.356 285.22>
LayerCount: 2
Fore
SplineSet
148 305 m 0xf6
 210 305 252 324 252 367 c 0xf6
 252 397 220 418 175 418 c 0
 157 418 147 428 147 443 c 0
 147 467 168 484 189 484 c 0
 239 484 275 498 275 536 c 0
 275 557 254 570 220 570 c 0
 151 570 155 533 121 533 c 0
 105 533 95 545 95 560 c 0
 95 604 172 637 237 637 c 0
 301 637 344 601 344 550 c 0xf5
 344 481 277 452 273 448 c 1
 303 431 320 404 320 374 c 0
 320 324 272 238 136 238 c 0
 63 238 18 256 18 285 c 0
 18 308 40 326 59 326 c 0
 87 326 64 305 148 305 c 0xf6
586 528 m 2
 229 77 l 2
 214 58 204 51 190 51 c 0
 174 51 162 63 162 78 c 0
 162 91 169 99 178 110 c 2
 535 561 l 2
 550 581 560 587 575 587 c 0xf8
 590 587 602 574 602 560 c 0
 602 551 597 541 586 528 c 2
469 27 m 0
 469 41 478 67 521 67 c 2
 540 67 l 1
 544 83 l 1
 380 83 l 1
 391 138 l 1
 590 380 l 1
 674 380 l 1
 625 150 l 1
 645 149 656 140 656 125 c 0
 656 112 648 85 611 83 c 1
 607 67 l 1
 627 66 638 57 638 42 c 0
 638 25 627 0 586 0 c 2
 507 0 l 2
 482 0 469 9 469 27 c 0
558 150 m 1
 585 279 l 1
 478 150 l 1
 558 150 l 1
EndSplineSet
Validated: 1
LCarets2: 2 0 0
EndChar

StartChar: questiondown
Encoding: 191 191 137
Width: 600
Flags: W
HStem: -227 100<192.421 366.076> 254 132<316.641 413.754>
VStem: 70 102<-105.204 -7.68148> 277 102<135.705 180.635> 289 154<282.897 357.336> 377 104<-110.541 -41>
LayerCount: 2
Fore
SplineSet
441 -23 m 0xe4
 460 -23 481 -36 481 -60 c 0xe4
 481 -67 480 -76 477 -89 c 2
 460 -168 l 1
 353 -215 308 -227 244 -227 c 0
 136 -227 70 -169 70 -81 c 0
 70 54 183 105 277 143 c 1
 289 179 310 197 339 197 c 0
 361 197 379 182 379 160 c 0xf0
 379 153 378 144 375 131 c 2
 363 75 l 1
 216 23 172 -5 172 -60 c 0
 172 -101 208 -127 264 -127 c 0
 302 -127 338 -119 374 -103 c 1
 377 -89 l 2
 386 -49 404 -23 441 -23 c 0xe4
289 306 m 0xe8
 289 344 324 386 371 386 c 2
 388 386 l 2
 420 386 443 363 443 334 c 0
 443 289 398 254 360 254 c 2
 343 254 l 2
 311 254 289 276 289 306 c 0xe8
EndSplineSet
Validated: 1
EndChar

StartChar: Agrave
Encoding: 192 192 138
Width: 600
Flags: W
HStem: 0 100<2.70395 67 176 241.069 372.795 460 574 618.069> 158 100<273 430> 483 100<197.41 304>
DStem2: 67 100 176 100 0.526202 0.85036<57.356 125.62 242.754 450.398> 478 583 393 450 0.194944 -0.980814<113.878 309.407 411.388 470.224> 385 824 436 656 0.697444 -0.71664<-30.5239 187.36>
LayerCount: 2
Fore
SplineSet
633 63 m 0
 633 18 600 0 555 0 c 2
 416 0 l 2
 370 0 359 20 359 38 c 0
 359 82 391 100 437 100 c 2
 460 100 l 1
 450 158 l 1
 212 158 l 1
 176 100 l 1
 199 100 l 2
 236 100 256 88 256 63 c 0
 256 18 223 0 178 0 c 2
 45 0 l 2
 7 0 -12 12 -12 37 c 0
 -12 81 20 100 67 100 c 1
 304 483 l 1
 241 483 l 2
 204 483 183 494 183 520 c 0
 183 565 214 583 262 583 c 2
 478 583 l 1
 574 100 l 1
 612 100 633 89 633 63 c 0
430 258 m 1
 393 450 l 1
 273 258 l 1
 430 258 l 1
311 795 m 0
 311 816 330 839 356 839 c 0
 366 839 373 835 385 824 c 2
 494 712 l 2
 506 701 510 692 510 682 c 0
 510 657 483 640 465 640 c 0
 456 640 447 645 436 656 c 2
 327 767 l 2
 316 778 311 786 311 795 c 0
EndSplineSet
Validated: 1
EndChar

StartChar: Aacute
Encoding: 193 193 139
Width: 600
Flags: W
HStem: 0 100<2.70395 67 176 241.069 372.795 460 574 618.069> 158 100<273 430> 483 100<197.41 304>
DStem2: 67 100 176 100 0.526202 0.85036<57.356 125.62 242.754 450.398> 478 583 393 450 0.194944 -0.980814<113.878 309.407 411.388 470.224> 539 824 416 656 0.814084 0.580748<-235.136 36.8214>
LayerCount: 2
Fore
SplineSet
633 63 m 0
 633 18 600 0 555 0 c 2
 416 0 l 2
 370 0 359 20 359 38 c 0
 359 82 391 100 437 100 c 2
 460 100 l 1
 450 158 l 1
 212 158 l 1
 176 100 l 1
 199 100 l 2
 236 100 256 88 256 63 c 0
 256 18 223 0 178 0 c 2
 45 0 l 2
 7 0 -12 12 -12 37 c 0
 -12 81 20 100 67 100 c 1
 304 483 l 1
 241 483 l 2
 204 483 183 494 183 520 c 0
 183 565 214 583 262 583 c 2
 478 583 l 1
 574 100 l 1
 612 100 633 89 633 63 c 0
430 258 m 1
 393 450 l 1
 273 258 l 1
 430 258 l 1
605 810 m 0
 605 793 593 780 573 767 c 2
 416 656 l 2
 401 645 390 640 381 640 c 0
 363 640 351 653 351 669 c 0
 351 684 361 698 382 712 c 2
 539 824 l 2
 555 835 564 839 574 839 c 0
 592 839 605 827 605 810 c 0
EndSplineSet
Validated: 1
EndChar

StartChar: Acircumflex
Encoding: 194 194 140
Width: 600
Flags: W
HStem: 0 100<2.70395 67 176 241.069 372.795 460 574 618.069> 158 100<273 430> 483 100<197.41 304>
DStem2: 67 100 176 100 0.526202 0.85036<57.356 125.62 242.754 450.398> 478 583 393 450 0.194944 -0.980814<113.878 309.407 411.388 470.224> 462 839 443 750 0.695795 -0.71824<50.7033 210.431> 462 839 310 653 0.813426 0.581668<-264.265 -67.2235>
LayerCount: 2
Fore
SplineSet
633 63 m 0
 633 18 600 0 555 0 c 2
 416 0 l 2
 370 0 359 20 359 38 c 0
 359 82 391 100 437 100 c 2
 460 100 l 1
 450 158 l 1
 212 158 l 1
 176 100 l 1
 199 100 l 2
 236 100 256 88 256 63 c 0
 256 18 223 0 178 0 c 2
 45 0 l 2
 7 0 -12 12 -12 37 c 0
 -12 81 20 100 67 100 c 1
 304 483 l 1
 241 483 l 2
 204 483 183 494 183 520 c 0
 183 565 214 583 262 583 c 2
 478 583 l 1
 574 100 l 1
 612 100 633 89 633 63 c 0
430 258 m 1
 393 450 l 1
 273 258 l 1
 430 258 l 1
603 682 m 0
 603 658 579 640 561 640 c 0
 551 640 544 644 535 653 c 2
 443 750 l 1
 310 653 l 2
 296 643 288 640 279 640 c 0
 262 640 251 654 251 669 c 0
 251 687 260 694 283 711 c 2
 462 839 l 1
 586 711 l 2
 593 703 603 695 603 682 c 0
EndSplineSet
Validated: 1
EndChar

StartChar: Atilde
Encoding: 195 195 141
Width: 600
Flags: W
HStem: 0 100<2.70395 67 176 241.069 372.795 460 574 618.069> 158 100<273 430> 483 100<197.41 304> 667 69<466.878 549.451> 730 69<324.917 411.886>
DStem2: 67 100 176 100 0.526202 0.85036<57.356 125.62 242.754 450.398> 478 583 393 450 0.194944 -0.980814<113.878 309.407 411.388 470.224>
LayerCount: 2
Fore
SplineSet
633 63 m 0xe0
 633 18 600 0 555 0 c 2
 416 0 l 2
 370 0 359 20 359 38 c 0
 359 82 391 100 437 100 c 2
 460 100 l 1
 450 158 l 1
 212 158 l 1
 176 100 l 1
 199 100 l 2
 236 100 256 88 256 63 c 0
 256 18 223 0 178 0 c 2
 45 0 l 2
 7 0 -12 12 -12 37 c 0
 -12 81 20 100 67 100 c 1
 304 483 l 1
 241 483 l 2
 204 483 183 494 183 520 c 0
 183 565 214 583 262 583 c 2
 478 583 l 1
 574 100 l 1
 612 100 633 89 633 63 c 0xe0
430 258 m 1
 393 450 l 1
 273 258 l 1
 430 258 l 1
512 736 m 0xf0
 548 736 571 799 606 799 c 0xe8
 621 799 632 788 632 775 c 0
 632 749 560 667 501 667 c 0xf0
 448 667 401 730 365 730 c 0
 325 730 305 670 271 670 c 0
 256 670 246 680 246 693 c 0
 246 724 317 799 378 799 c 0xe8
 431 799 478 736 512 736 c 0xf0
EndSplineSet
Validated: 1
EndChar

StartChar: Adieresis
Encoding: 196 196 142
Width: 600
Flags: W
HStem: 0 100<2.70395 67 176 241.069 372.795 460 574 618.069> 158 100<273 430> 483 100<197.41 304> 678 120<299.017 373.875 507.017 581.875>
VStem: 275 122<701.142 774.555> 483 122<701.142 774.555>
DStem2: 67 100 176 100 0.526202 0.85036<57.356 125.62 242.754 450.398> 478 583 393 450 0.194944 -0.980814<113.878 309.407 411.388 470.224>
LayerCount: 2
Fore
SplineSet
633 63 m 0
 633 18 600 0 555 0 c 2
 416 0 l 2
 370 0 359 20 359 38 c 0
 359 82 391 100 437 100 c 2
 460 100 l 1
 450 158 l 1
 212 158 l 1
 176 100 l 1
 199 100 l 2
 236 100 256 88 256 63 c 0
 256 18 223 0 178 0 c 2
 45 0 l 2
 7 0 -12 12 -12 37 c 0
 -12 81 20 100 67 100 c 1
 304 483 l 1
 241 483 l 2
 204 483 183 494 183 520 c 0
 183 565 214 583 262 583 c 2
 478 583 l 1
 574 100 l 1
 612 100 633 89 633 63 c 0
430 258 m 1
 393 450 l 1
 273 258 l 1
 430 258 l 1
275 725 m 0
 275 767 316 798 349 798 c 0
 378 798 397 778 397 750 c 0
 397 712 360 678 323 678 c 0
 294 678 275 698 275 725 c 0
483 725 m 0
 483 767 524 798 557 798 c 0
 586 798 605 778 605 750 c 0
 605 712 568 678 531 678 c 0
 502 678 483 698 483 725 c 0
EndSplineSet
Validated: 1
EndChar

StartChar: Aring
Encoding: 197 197 143
Width: 600
Flags: W
HStem: 0 100<2.70395 67 176 241.069 372.795 460 574 618.069> 158 100<273 430> 483 100<197.41 304> 630 54<382.992 482.645> 818 53<401.501 502.008>
VStem: 317 55<695.006 788.7> 513 55<713.481 806.494>
DStem2: 67 100 176 100 0.526202 0.85036<57.356 125.62 242.754 450.398> 478 583 393 450 0.194944 -0.980814<113.878 309.407 411.388 470.224>
LayerCount: 2
Fore
SplineSet
633 63 m 0
 633 18 600 0 555 0 c 2
 416 0 l 2
 370 0 359 20 359 38 c 0
 359 82 391 100 437 100 c 2
 460 100 l 1
 450 158 l 1
 212 158 l 1
 176 100 l 1
 199 100 l 2
 236 100 256 88 256 63 c 0
 256 18 223 0 178 0 c 2
 45 0 l 2
 7 0 -12 12 -12 37 c 0
 -12 81 20 100 67 100 c 1
 304 483 l 1
 241 483 l 2
 204 483 183 494 183 520 c 0
 183 565 214 583 262 583 c 2
 478 583 l 1
 574 100 l 1
 612 100 633 89 633 63 c 0
430 258 m 1
 393 450 l 1
 273 258 l 1
 430 258 l 1
317 727 m 0
 317 799 389 871 468 871 c 0
 527 871 568 829 568 774 c 0
 568 699 493 630 417 630 c 0
 358 630 317 672 317 727 c 0
428 684 m 0
 465 684 513 717 513 764 c 0
 513 794 490 818 457 818 c 0
 419 818 372 784 372 738 c 0
 372 708 395 684 428 684 c 0
EndSplineSet
Validated: 1
EndChar

StartChar: AE
Encoding: 198 198 144
Width: 600
Flags: W
HStem: 0 100<3.25 74 234.247 288 388 535> 158 101<258 301> 483 100<214.637 271 470 596>
VStem: -11 222<15.7865 84.2806>
DStem2: 74 100 178 100 0.4574 0.889261<47.5696 112.869 225.554 430.695> 266.744 0 366.744 0 0.207912 0.978148<123.025 161.669 264.829 269.346 370.548 481.552>
LayerCount: 2
Fore
SplineSet
-11 37 m 0
 -11 85 26 100 74 100 c 1
 271 483 l 1
 257 483 l 2
 220 483 200 495 200 520 c 0
 200 564 232 583 278 583 c 2
 717 583 l 1
 682 418 l 2
 673 375 653 352 618 352 c 0
 592 352 579 366 579 392 c 0
 579 400 580 408 582 418 c 2
 596 483 l 1
 470 483 l 1
 440 342 l 1
 459 342 l 1
 468 377 490 397 520 397 c 0
 547 397 560 384 560 358 c 0
 560 350 558 341 556 331 c 2
 540 253 l 2
 531 210 511 187 476 187 c 0
 451 187 436 202 436 228 c 0
 436 233 437 238 438 243 c 1
 419 243 l 1
 388 100 l 1
 535 100 l 1
 540 123 l 2
 549 165 569 189 604 189 c 0
 631 189 643 175 643 149 c 0
 643 141 642 133 640 123 c 2
 614 0 l 1
 265 0 l 2
 236 0 219 15 219 39 c 0
 219 74 249 100 280 100 c 2
 288 100 l 1
 301 158 l 1
 208 158 l 1
 178 100 l 1
 199 97 211 84 211 65 c 0
 211 23 179 0 141 0 c 2
 46 0 l 2
 8 0 -11 12 -11 37 c 0
322 259 m 1
 367 471 l 1
 258 259 l 1
 322 259 l 1
EndSplineSet
Validated: 1
EndChar

StartChar: Ccedilla
Encoding: 199 199 145
Width: 600
Flags: W
HStem: -229 70<211.39 312.792> -9 95<334 460.017> 497 100<325.406 503.524> 563 20G<614.5 638.5>
VStem: 80 102<143.938 272.1> 315 72<-155.404 -103.243>
DStem2: -15.602 -229 83.9729 -229 0.207912 0.978148<474.954 672.387>
LayerCount: 2
Fore
SplineSet
387 -105 m 0xec
 387 -171 332 -229 258 -229 c 0
 220 -229 149 -213 149 -174 c 0
 149 -149 173 -131 192 -131 c 0
 214 -131 228 -159 272 -159 c 0
 306 -159 315 -140 315 -128 c 0
 315 -111 299 -100 271 -100 c 0
 267 -100 263 -100 245 -102 c 1
 265 -9 l 1
 163 7 80 78 80 195 c 0
 80 212 82 231 86 249 c 2
 100 315 l 2
 134 475 277 597 432 597 c 0xec
 486 597 520 588 576 559 c 1
 593 577 606 583 623 583 c 0xdc
 654 583 663 558 663 547 c 0
 663 540 662 532 659 517 c 2
 641 433 l 2
 640 429 632 367 577 367 c 0
 543 367 538 390 538 424 c 0
 538 476 464 497 415 497 c 0
 313 497 223 421 200 315 c 2
 186 251 l 2
 183 238 182 226 182 214 c 0
 182 135 243 86 347 86 c 0
 500 86 492 159 548 159 c 0
 571 159 588 142 588 119 c 0
 588 52 450 -14 334 -14 c 1
 328 -42 l 1
 368 -50 387 -71 387 -105 c 0xec
EndSplineSet
Validated: 1
EndChar

StartChar: Egrave
Encoding: 200 200 146
Width: 600
Flags: W
HStem: 0 100<37 115 215 471> 243 99<267 331> 366 217<531.047 601.536> 483 100<139.343 197 297 531>
DStem2: 93.7443 0 193.744 0 0.207912 0.978148<123.025 269.346 370.548 493.913> 386 824 437 656 0.697444 -0.71664<-30.5239 187.36>
LayerCount: 2
Fore
SplineSet
352 342 m 1xd0
 362 387 379 416 416 416 c 0
 443 416 455 400 455 374 c 0
 455 366 454 358 452 349 c 2
 428 236 l 2
 419 193 399 170 365 170 c 0
 338 170 326 184 326 210 c 0
 326 219 329 233 331 243 c 1
 246 243 l 1
 215 100 l 1
 471 100 l 1
 482 152 l 2
 492 197 512 219 547 219 c 0
 574 219 586 205 586 179 c 0
 586 171 584 162 582 152 c 2
 550 0 l 1
 79 0 l 2
 43 0 22 12 22 38 c 0
 22 81 55 100 100 100 c 2
 115 100 l 1
 197 483 l 1
 182 483 l 2
 145 483 125 495 125 520 c 0
 125 565 156 583 203 583 c 2
 652 583 l 1xd0
 620 433 l 2
 611 389 591 366 556 366 c 0xe0
 529 366 517 380 517 406 c 0
 517 414 518 423 520 433 c 2
 531 483 l 1
 297 483 l 1
 267 342 l 1
 352 342 l 1xd0
312 795 m 0
 312 816 331 839 357 839 c 0
 367 839 374 835 386 824 c 2
 495 712 l 2
 507 701 511 692 511 682 c 0
 511 657 484 640 466 640 c 0
 457 640 448 645 437 656 c 2
 328 767 l 2
 317 778 312 786 312 795 c 0
EndSplineSet
Validated: 1
EndChar

StartChar: Eacute
Encoding: 201 201 147
Width: 600
Flags: W
HStem: 0 100<37 115 215 471> 243 99<267 331> 366 217<531.047 601.536> 483 100<139.343 197 297 531>
DStem2: 93.7443 0 193.744 0 0.207912 0.978148<123.025 269.346 370.548 493.913> 546 824 423 656 0.814084 0.580748<-235.136 36.8214>
LayerCount: 2
Fore
SplineSet
352 342 m 1xd0
 362 387 379 416 416 416 c 0
 443 416 455 400 455 374 c 0
 455 366 454 358 452 349 c 2
 428 236 l 2
 419 193 399 170 365 170 c 0
 338 170 326 184 326 210 c 0
 326 219 329 233 331 243 c 1
 246 243 l 1
 215 100 l 1
 471 100 l 1
 482 152 l 2
 492 197 512 219 547 219 c 0
 574 219 586 205 586 179 c 0
 586 171 584 162 582 152 c 2
 550 0 l 1
 79 0 l 2
 43 0 22 12 22 38 c 0
 22 81 55 100 100 100 c 2
 115 100 l 1
 197 483 l 1
 182 483 l 2
 145 483 125 495 125 520 c 0
 125 565 156 583 203 583 c 2
 652 583 l 1xd0
 620 433 l 2
 611 389 591 366 556 366 c 0xe0
 529 366 517 380 517 406 c 0
 517 414 518 423 520 433 c 2
 531 483 l 1
 297 483 l 1
 267 342 l 1
 352 342 l 1xd0
612 810 m 0
 612 793 600 780 580 767 c 2
 423 656 l 2
 408 645 397 640 388 640 c 0
 370 640 358 653 358 669 c 0
 358 684 368 698 389 712 c 2
 546 824 l 2
 562 835 571 839 581 839 c 0
 599 839 612 827 612 810 c 0
EndSplineSet
Validated: 1
EndChar

StartChar: Ecircumflex
Encoding: 202 202 148
Width: 600
Flags: W
HStem: 0 100<37 115 215 471> 243 99<267 331> 366 217<531.047 601.536> 483 100<139.343 197 297 531>
DStem2: 93.7443 0 193.744 0 0.207912 0.978148<123.025 269.346 370.548 493.913> 470 839 451 750 0.695795 -0.71824<50.7033 210.431> 470 839 318 653 0.813426 0.581668<-264.265 -67.2235>
LayerCount: 2
Fore
SplineSet
352 342 m 1xd0
 362 387 379 416 416 416 c 0
 443 416 455 400 455 374 c 0
 455 366 454 358 452 349 c 2
 428 236 l 2
 419 193 399 170 365 170 c 0
 338 170 326 184 326 210 c 0
 326 219 329 233 331 243 c 1
 246 243 l 1
 215 100 l 1
 471 100 l 1
 482 152 l 2
 492 197 512 219 547 219 c 0
 574 219 586 205 586 179 c 0
 586 171 584 162 582 152 c 2
 550 0 l 1
 79 0 l 2
 43 0 22 12 22 38 c 0
 22 81 55 100 100 100 c 2
 115 100 l 1
 197 483 l 1
 182 483 l 2
 145 483 125 495 125 520 c 0
 125 565 156 583 203 583 c 2
 652 583 l 1xd0
 620 433 l 2
 611 389 591 366 556 366 c 0xe0
 529 366 517 380 517 406 c 0
 517 414 518 423 520 433 c 2
 531 483 l 1
 297 483 l 1
 267 342 l 1
 352 342 l 1xd0
611 682 m 0
 611 658 587 640 569 640 c 0
 559 640 552 644 543 653 c 2
 451 750 l 1
 318 653 l 2
 304 643 296 640 287 640 c 0
 270 640 259 654 259 669 c 0
 259 687 268 694 291 711 c 2
 470 839 l 1
 594 711 l 2
 601 703 611 695 611 682 c 0
EndSplineSet
Validated: 1
EndChar

StartChar: Edieresis
Encoding: 203 203 149
Width: 600
Flags: W
HStem: 0 100<37 115 215 471> 243 99<267 331> 366 217<531.047 601.536> 483 100<139.343 197 297 531> 678 120<307.017 381.875 515.017 589.875>
VStem: 283 122<701.142 774.555> 491 122<701.142 774.555>
DStem2: 93.7443 0 193.744 0 0.207912 0.978148<123.025 269.346 370.548 493.913>
LayerCount: 2
Fore
SplineSet
352 342 m 1xde
 362 387 379 416 416 416 c 0
 443 416 455 400 455 374 c 0
 455 366 454 358 452 349 c 2
 428 236 l 2
 419 193 399 170 365 170 c 0
 338 170 326 184 326 210 c 0
 326 219 329 233 331 243 c 1
 246 243 l 1
 215 100 l 1
 471 100 l 1
 482 152 l 2
 492 197 512 219 547 219 c 0
 574 219 586 205 586 179 c 0
 586 171 584 162 582 152 c 2
 550 0 l 1
 79 0 l 2
 43 0 22 12 22 38 c 0
 22 81 55 100 100 100 c 2
 115 100 l 1
 197 483 l 1
 182 483 l 2
 145 483 125 495 125 520 c 0
 125 565 156 583 203 583 c 2
 652 583 l 1xde
 620 433 l 2
 611 389 591 366 556 366 c 0xee
 529 366 517 380 517 406 c 0
 517 414 518 423 520 433 c 2
 531 483 l 1
 297 483 l 1
 267 342 l 1
 352 342 l 1xde
283 725 m 0
 283 767 324 798 357 798 c 0
 386 798 405 778 405 750 c 0
 405 712 368 678 331 678 c 0
 302 678 283 698 283 725 c 0
491 725 m 0
 491 767 532 798 565 798 c 0
 594 798 613 778 613 750 c 0
 613 712 576 678 539 678 c 0
 510 678 491 698 491 725 c 0
EndSplineSet
Validated: 1
EndChar

StartChar: Igrave
Encoding: 204 204 150
Width: 600
Flags: W
HStem: 0 100<107.733 271 371 513.25> 483 100<209.637 353 453 615.126>
DStem2: 249.744 0 349.744 0 0.207912 0.978148<123.025 493.913> 395 824 446 656 0.697444 -0.71664<-30.5239 187.36>
LayerCount: 2
Fore
SplineSet
575 583 m 2
 615 583 632 575 632 545 c 0
 632 521 616 483 554 483 c 2
 453 483 l 1
 371 100 l 1
 472 100 l 2
 512 100 529 90 529 60 c 0
 529 36 513 0 451 0 c 2
 149 0 l 2
 124 0 93 3 93 40 c 0
 93 78 122 100 170 100 c 2
 271 100 l 1
 353 483 l 1
 252 483 l 2
 212 483 195 492 195 524 c 0
 195 562 227 583 273 583 c 2
 575 583 l 2
321 795 m 0
 321 816 340 839 366 839 c 0
 376 839 383 835 395 824 c 2
 504 712 l 2
 516 701 520 692 520 682 c 0
 520 657 493 640 475 640 c 0
 466 640 457 645 446 656 c 2
 337 767 l 2
 326 778 321 786 321 795 c 0
EndSplineSet
Validated: 1
EndChar

StartChar: Iacute
Encoding: 205 205 151
Width: 600
Flags: W
HStem: 0 100<107.733 271 371 513.25> 483 100<209.637 353 453 615.126>
DStem2: 249.744 0 349.744 0 0.207912 0.978148<123.025 493.913> 581 824 458 656 0.814084 0.580748<-235.136 36.8214>
LayerCount: 2
Fore
SplineSet
575 583 m 2
 615 583 632 575 632 545 c 0
 632 521 616 483 554 483 c 2
 453 483 l 1
 371 100 l 1
 472 100 l 2
 512 100 529 90 529 60 c 0
 529 36 513 0 451 0 c 2
 149 0 l 2
 124 0 93 3 93 40 c 0
 93 78 122 100 170 100 c 2
 271 100 l 1
 353 483 l 1
 252 483 l 2
 212 483 195 492 195 524 c 0
 195 562 227 583 273 583 c 2
 575 583 l 2
647 810 m 0
 647 793 635 780 615 767 c 2
 458 656 l 2
 443 645 432 640 423 640 c 0
 405 640 393 653 393 669 c 0
 393 684 403 698 424 712 c 2
 581 824 l 2
 597 835 606 839 616 839 c 0
 634 839 647 827 647 810 c 0
EndSplineSet
Validated: 1
EndChar

StartChar: Icircumflex
Encoding: 206 206 152
Width: 600
Flags: W
HStem: 0 100<107.733 271 371 513.25> 483 100<209.637 353 453 615.126>
DStem2: 249.744 0 349.744 0 0.207912 0.978148<123.025 493.913> 478 839 459 750 0.695795 -0.71824<50.7033 210.431> 478 839 326 653 0.813426 0.581668<-264.265 -67.2235>
LayerCount: 2
Fore
SplineSet
575 583 m 2
 615 583 632 575 632 545 c 0
 632 521 616 483 554 483 c 2
 453 483 l 1
 371 100 l 1
 472 100 l 2
 512 100 529 90 529 60 c 0
 529 36 513 0 451 0 c 2
 149 0 l 2
 124 0 93 3 93 40 c 0
 93 78 122 100 170 100 c 2
 271 100 l 1
 353 483 l 1
 252 483 l 2
 212 483 195 492 195 524 c 0
 195 562 227 583 273 583 c 2
 575 583 l 2
619 682 m 0
 619 658 595 640 577 640 c 0
 567 640 560 644 551 653 c 2
 459 750 l 1
 326 653 l 2
 312 643 304 640 295 640 c 0
 278 640 267 654 267 669 c 0
 267 687 276 694 299 711 c 2
 478 839 l 1
 602 711 l 2
 609 703 619 695 619 682 c 0
EndSplineSet
Validated: 1
EndChar

StartChar: Idieresis
Encoding: 207 207 153
Width: 600
Flags: W
HStem: 0 100<107.733 271 371 513.25> 483 100<209.637 353 453 615.126> 678 120<316.017 390.875 524.017 598.875>
VStem: 292 122<701.142 774.555> 500 122<701.142 774.555>
DStem2: 249.744 0 349.744 0 0.207912 0.978148<123.025 493.913>
LayerCount: 2
Fore
SplineSet
575 583 m 2
 615 583 632 575 632 545 c 0
 632 521 616 483 554 483 c 2
 453 483 l 1
 371 100 l 1
 472 100 l 2
 512 100 529 90 529 60 c 0
 529 36 513 0 451 0 c 2
 149 0 l 2
 124 0 93 3 93 40 c 0
 93 78 122 100 170 100 c 2
 271 100 l 1
 353 483 l 1
 252 483 l 2
 212 483 195 492 195 524 c 0
 195 562 227 583 273 583 c 2
 575 583 l 2
292 725 m 0
 292 767 333 798 366 798 c 0
 395 798 414 778 414 750 c 0
 414 712 377 678 340 678 c 0
 311 678 292 698 292 725 c 0
500 725 m 0
 500 767 541 798 574 798 c 0
 603 798 622 778 622 750 c 0
 622 712 585 678 548 678 c 0
 519 678 500 698 500 725 c 0
EndSplineSet
Validated: 1
EndChar

StartChar: Eth
Encoding: 208 208 154
Width: 600
Flags: W
HStem: 0 100<36.7129 95 195 402.337> 243 100<75.3195 126 247 362.574> 483 100<139.083 177 277 466.021>
VStem: 520 102<240.656 431.444>
DStem2: 73.7443 0 173.744 0 0.207912 0.978148<123.025 248.554 371.526 493.913> 449.523 0 550.16 0 0.207912 0.978148<172.591 355.339>
LayerCount: 2
Fore
SplineSet
125 521 m 0
 125 565 157 583 204 583 c 2
 416 583 l 2
 541 583 622 495 622 371 c 0
 622 350 620 328 615 305 c 2
 605 258 l 2
 572 103 442 0 284 0 c 2
 79 0 l 2
 33 0 22 21 22 39 c 0
 22 79 55 100 95 100 c 1
 126 243 l 1
 75 243 61 262 61 282 c 0
 61 329 98 343 147 343 c 1
 177 483 l 1
 143 483 125 497 125 521 c 0
378 307 m 0
 378 264 347 243 300 243 c 2
 226 243 l 1
 195 100 l 1
 306 100 l 2
 412 100 483 158 505 261 c 2
 515 307 l 2
 518 319 520 334 520 349 c 0
 520 410 493 483 387 483 c 2
 277 483 l 1
 247 343 l 1
 321 343 l 2
 359 343 378 332 378 307 c 0
EndSplineSet
Validated: 1
EndChar

StartChar: Ntilde
Encoding: 209 209 155
Width: 600
Flags: W
HStem: 0 100<36.125 94 194 270.845> 483 100<118.343 176 456.343 534 634 692.258> 667 69<481.878 564.451> 730 69<339.917 426.886>
DStem2: 72.7443 0 172.744 0 0.207912 0.978148<123.025 423.699> 297 583 257 394 0.405923 -0.913907<156.492 429.288> 431.402 0 531 0 0.207912 0.978148<195.267 493.777>
LayerCount: 2
Fore
SplineSet
527 736 m 0xe0
 563 736 586 799 621 799 c 0xd0
 636 799 647 788 647 775 c 0
 647 749 575 667 516 667 c 0xe0
 463 667 416 730 380 730 c 0
 340 730 320 670 286 670 c 0
 271 670 261 680 261 693 c 0
 261 724 332 799 393 799 c 0xd0
 446 799 493 736 527 736 c 0xe0
707 546 m 0
 707 505 677 483 634 483 c 1
 531 0 l 1
 432 0 l 1
 257 394 l 1
 194 100 l 1
 229 100 l 2
 267 100 286 89 286 64 c 0
 286 20 253 0 208 0 c 2
 79 0 l 2
 42 0 21 11 21 37 c 0
 21 78 52 100 94 100 c 1
 176 483 l 1
 161 483 l 2
 124 483 104 495 104 520 c 0
 104 565 135 583 182 583 c 2
 297 583 l 1
 472 191 l 1
 534 483 l 1
 499 483 l 2
 462 483 442 495 442 520 c 0
 442 565 473 583 520 583 c 2
 650 583 l 2
 687 583 707 571 707 546 c 0
EndSplineSet
Validated: 1
EndChar

StartChar: Ograve
Encoding: 210 210 156
Width: 600
Flags: W
HStem: -14 100<244.642 400.049> 497 100<326.193 481.42>
VStem: 75 103<156.686 338.017> 546 103<244.12 427.311>
DStem2: 398 824 449 656 0.697444 -0.71664<-30.5239 187.36>
LayerCount: 2
Fore
SplineSet
75 222 m 0
 75 415 249 597 427 597 c 0
 546 597 649 508 649 366 c 0
 649 157 466 -14 297 -14 c 0
 165 -14 75 87 75 222 c 0
318 86 m 0
 428 86 546 206 546 340 c 0
 546 430 490 497 406 497 c 0
 296 497 178 376 178 244 c 0
 178 154 234 86 318 86 c 0
324 795 m 0
 324 816 343 839 369 839 c 0
 379 839 386 835 398 824 c 2
 507 712 l 2
 519 701 523 691 523 681 c 0
 523 658 496 640 478 640 c 0
 469 640 460 645 449 656 c 2
 340 767 l 2
 329 778 324 786 324 795 c 0
EndSplineSet
Validated: 1
EndChar

StartChar: Oacute
Encoding: 211 211 157
Width: 600
Flags: W
HStem: -14 100<244.642 400.049> 497 100<326.193 481.42>
VStem: 75 103<156.686 338.017> 546 103<244.12 427.311>
DStem2: 552 824 429 656 0.814084 0.580748<-235.136 36.8214>
LayerCount: 2
Fore
SplineSet
75 222 m 0
 75 415 249 597 427 597 c 0
 546 597 649 508 649 366 c 0
 649 157 466 -14 297 -14 c 0
 165 -14 75 87 75 222 c 0
318 86 m 0
 428 86 546 206 546 340 c 0
 546 430 490 497 406 497 c 0
 296 497 178 376 178 244 c 0
 178 154 234 86 318 86 c 0
618 810 m 0
 618 793 606 780 586 767 c 2
 429 656 l 2
 414 645 403 640 394 640 c 0
 376 640 364 653 364 669 c 0
 364 684 374 698 395 712 c 2
 552 824 l 2
 568 835 577 839 587 839 c 0
 605 839 618 827 618 810 c 0
EndSplineSet
Validated: 1
EndChar

StartChar: Ocircumflex
Encoding: 212 212 158
Width: 600
Flags: W
HStem: -14 100<244.642 400.049> 497 100<326.193 481.42>
VStem: 75 103<156.686 338.017> 546 103<244.12 427.311>
DStem2: 478 839 459 750 0.695795 -0.71824<50.7033 210.431> 478 839 326 653 0.813426 0.581668<-264.265 -67.2235>
LayerCount: 2
Fore
SplineSet
75 222 m 0
 75 415 249 597 427 597 c 0
 546 597 649 508 649 366 c 0
 649 157 466 -14 297 -14 c 0
 165 -14 75 87 75 222 c 0
318 86 m 0
 428 86 546 206 546 340 c 0
 546 430 490 497 406 497 c 0
 296 497 178 376 178 244 c 0
 178 154 234 86 318 86 c 0
619 682 m 0
 619 658 595 640 577 640 c 0
 567 640 560 644 551 653 c 2
 459 750 l 1
 326 653 l 2
 312 643 304 640 295 640 c 0
 278 640 267 654 267 669 c 0
 267 687 276 694 299 711 c 2
 478 839 l 1
 602 711 l 2
 609 703 619 695 619 682 c 0
EndSplineSet
Validated: 1
EndChar

StartChar: Otilde
Encoding: 213 213 159
Width: 600
Flags: W
HStem: -14 100<244.642 400.049> 497 100<326.193 481.42> 667 69<490.878 573.451> 730 69<348.917 435.886>
VStem: 75 103<156.686 338.017> 546 103<244.12 427.311>
LayerCount: 2
Fore
SplineSet
536 736 m 0xec
 572 736 595 799 630 799 c 0xdc
 645 799 656 788 656 775 c 0
 656 749 584 667 525 667 c 0xec
 472 667 425 730 389 730 c 0
 349 730 329 670 295 670 c 0
 280 670 270 680 270 693 c 0
 270 724 341 799 402 799 c 0xdc
 455 799 502 736 536 736 c 0xec
75 222 m 0
 75 415 249 597 427 597 c 0
 546 597 649 508 649 366 c 0
 649 157 466 -14 297 -14 c 0
 165 -14 75 87 75 222 c 0
318 86 m 0
 428 86 546 206 546 340 c 0
 546 430 490 497 406 497 c 0
 296 497 178 376 178 244 c 0
 178 154 234 86 318 86 c 0
EndSplineSet
Validated: 1
EndChar

StartChar: Odieresis
Encoding: 214 214 160
Width: 600
Flags: W
HStem: -14 100<244.642 400.049> 497 100<326.193 481.42> 678 120<316.017 390.875 524.017 598.875>
VStem: 75 103<156.686 338.017> 292 122<701.142 774.555> 500 122<701.142 774.555> 546 103<244.12 427.311>
LayerCount: 2
Fore
SplineSet
75 222 m 0xfa
 75 415 249 597 427 597 c 0
 546 597 649 508 649 366 c 0
 649 157 466 -14 297 -14 c 0
 165 -14 75 87 75 222 c 0xfa
318 86 m 0
 428 86 546 206 546 340 c 0
 546 430 490 497 406 497 c 0
 296 497 178 376 178 244 c 0
 178 154 234 86 318 86 c 0
292 725 m 0
 292 767 333 798 366 798 c 0
 395 798 414 778 414 750 c 0
 414 712 377 678 340 678 c 0
 311 678 292 698 292 725 c 0
500 725 m 0xfc
 500 767 541 798 574 798 c 0
 603 798 622 778 622 750 c 0
 622 712 585 678 548 678 c 0
 519 678 500 698 500 725 c 0xfc
EndSplineSet
Validated: 1
EndChar

StartChar: multiply
Encoding: 215 215 161
Width: 600
Flags: W
DStem2: 164 177 220 106 0.771599 0.63611<-58.8091 159.243 273.49 491.509> 294 454 207 383 0.620195 -0.784448<-37.4233 131.034 223.199 392.404>
LayerCount: 2
Fore
SplineSet
529 139 m 0
 529 114 502 80 467 80 c 0
 450 80 442 85 426 106 c 2
 344 209 l 1
 220 106 l 1
 194 86 183 80 167 80 c 0
 144 80 127 97 127 120 c 0
 127 151 151 167 164 177 c 2
 289 280 l 1
 207 383 l 2
 194 399 190 409 190 420 c 0
 190 455 225 480 252 480 c 0
 268 480 277 474 294 454 c 2
 375 351 l 1
 500 454 l 2
 526 475 535 480 552 480 c 0
 575 480 592 463 592 440 c 0
 592 417 580 404 555 383 c 2
 431 280 l 1
 512 177 l 2
 524 161 529 151 529 139 c 0
EndSplineSet
Validated: 1
EndChar

StartChar: Oslash
Encoding: 216 216 162
Width: 600
Flags: W
HStem: -14 100<245.323 400.612> 497 100<324.693 480.238> 618 20G<668.5 689>
VStem: 74 103<175.003 336.466> 546 103<243.991 398.873>
DStem2: 34 19 96 -40 0.708306 0.705905<-55.8225 103.237 219.203 625.228 747.124 892.475>
LayerCount: 2
Fore
SplineSet
649 365 m 0
 649 162 470 -14 297 -14 c 0
 248 -14 202 1 165 28 c 1
 96 -40 l 2
 71 -65 62 -70 43 -70 c 0
 19 -70 3 -54 3 -32 c 0
 3 -13 13 -2 34 19 c 2
 107 92 l 1
 85 131 74 173 74 219 c 0
 74 412 245 597 427 597 c 0
 479 597 524 581 566 549 c 1
 624 607 l 2
 648 632 659 638 678 638 c 0
 700 638 716 622 716 600 c 0
 716 579 705 567 686 548 c 2
 621 483 l 1
 640 448 649 408 649 365 c 0
318 86 m 0
 427 86 546 204 546 338 c 0
 546 360 543 382 537 400 c 1
 244 107 l 1
 266 93 291 86 318 86 c 0
405 497 m 0
 294 497 177 377 177 242 c 0
 177 218 181 196 189 174 c 1
 487 471 l 1
 462 488 436 497 405 497 c 0
EndSplineSet
Validated: 1
EndChar

StartChar: Ugrave
Encoding: 217 217 163
Width: 600
Flags: W
HStem: -14 100<246.461 397.44> 483 100<136.94 174 274 372.363 454.343 532 632 689.845>
VStem: 109 102<119.888 227.889>
DStem2: 68.4501 -14 168.363 -14 0.207912 0.978148<215.762 508.084> 426.363 -14 526.45 -14 0.207912 0.978148<151.808 508.102> 398 824 449 656 0.697444 -0.71664<-30.5239 187.36>
LayerCount: 2
Fore
SplineSet
705 547 m 0
 705 505 675 483 632 483 c 1
 573 205 l 2
 544 67 411 -14 297 -14 c 0
 196 -14 109 50 109 158 c 0
 109 173 111 188 115 205 c 2
 174 483 l 1
 140 483 122 496 122 520 c 0
 122 564 155 583 200 583 c 2
 330 583 l 2
 368 583 387 573 387 547 c 0
 387 502 355 483 309 483 c 2
 274 483 l 1
 213 196 l 2
 212 189 211 182 211 176 c 0
 211 125 255 86 318 86 c 0
 389 86 458 135 471 196 c 2
 532 483 l 1
 497 483 l 2
 460 483 440 495 440 520 c 0
 440 565 471 583 518 583 c 2
 648 583 l 2
 686 583 705 572 705 547 c 0
324 795 m 0
 324 816 343 839 369 839 c 0
 379 839 386 835 398 824 c 2
 507 712 l 2
 519 701 523 692 523 682 c 0
 523 657 496 640 478 640 c 0
 469 640 460 645 449 656 c 2
 340 767 l 2
 329 778 324 786 324 795 c 0
EndSplineSet
Validated: 1
EndChar

StartChar: Uacute
Encoding: 218 218 164
Width: 600
Flags: W
HStem: -14 100<246.461 397.44> 483 100<136.94 174 274 372.363 454.343 532 632 689.845>
VStem: 109 102<119.888 227.889>
DStem2: 68.4501 -14 168.363 -14 0.207912 0.978148<215.762 508.084> 426.363 -14 526.45 -14 0.207912 0.978148<151.808 508.102> 552 824 429 656 0.814084 0.580748<-235.136 36.8214>
LayerCount: 2
Fore
SplineSet
705 547 m 0
 705 505 675 483 632 483 c 1
 573 205 l 2
 544 67 411 -14 297 -14 c 0
 196 -14 109 50 109 158 c 0
 109 173 111 188 115 205 c 2
 174 483 l 1
 140 483 122 496 122 520 c 0
 122 564 155 583 200 583 c 2
 330 583 l 2
 368 583 387 573 387 547 c 0
 387 502 355 483 309 483 c 2
 274 483 l 1
 213 196 l 2
 212 189 211 182 211 176 c 0
 211 125 255 86 318 86 c 0
 389 86 458 135 471 196 c 2
 532 483 l 1
 497 483 l 2
 460 483 440 495 440 520 c 0
 440 565 471 583 518 583 c 2
 648 583 l 2
 686 583 705 572 705 547 c 0
618 810 m 0
 618 793 606 780 586 767 c 2
 429 656 l 2
 414 645 403 640 394 640 c 0
 376 640 364 653 364 669 c 0
 364 684 374 698 395 712 c 2
 552 824 l 2
 568 835 577 839 587 839 c 0
 605 839 618 827 618 810 c 0
EndSplineSet
Validated: 1
EndChar

StartChar: Ucircumflex
Encoding: 219 219 165
Width: 600
Flags: W
HStem: -14 100<246.461 397.44> 483 100<136.94 174 274 372.363 454.343 532 632 689.845>
VStem: 109 102<119.888 227.889>
DStem2: 68.4501 -14 168.363 -14 0.207912 0.978148<215.762 508.084> 426.363 -14 526.45 -14 0.207912 0.978148<151.808 508.102> 478 839 459 750 0.695795 -0.71824<50.7033 210.431> 478 839 326 653 0.813426 0.581668<-264.265 -67.2235>
LayerCount: 2
Fore
SplineSet
705 547 m 0
 705 505 675 483 632 483 c 1
 573 205 l 2
 544 67 411 -14 297 -14 c 0
 196 -14 109 50 109 158 c 0
 109 173 111 188 115 205 c 2
 174 483 l 1
 140 483 122 496 122 520 c 0
 122 564 155 583 200 583 c 2
 330 583 l 2
 368 583 387 573 387 547 c 0
 387 502 355 483 309 483 c 2
 274 483 l 1
 213 196 l 2
 212 189 211 182 211 176 c 0
 211 125 255 86 318 86 c 0
 389 86 458 135 471 196 c 2
 532 483 l 1
 497 483 l 2
 460 483 440 495 440 520 c 0
 440 565 471 583 518 583 c 2
 648 583 l 2
 686 583 705 572 705 547 c 0
619 682 m 0
 619 658 595 640 577 640 c 0
 567 640 560 644 551 653 c 2
 459 750 l 1
 326 653 l 2
 312 643 304 640 295 640 c 0
 278 640 267 654 267 669 c 0
 267 687 276 694 299 711 c 2
 478 839 l 1
 602 711 l 2
 609 703 619 695 619 682 c 0
EndSplineSet
Validated: 1
EndChar

StartChar: Udieresis
Encoding: 220 220 166
Width: 600
Flags: W
HStem: -14 100<246.461 397.44> 483 100<136.94 174 274 372.363 454.343 532 632 689.845> 678 120<316.017 390.875 524.017 598.875>
VStem: 109 102<119.888 227.889> 292 122<701.142 774.555> 500 122<701.142 774.555>
DStem2: 68.4501 -14 168.363 -14 0.207912 0.978148<215.762 508.084> 426.363 -14 526.45 -14 0.207912 0.978148<151.808 508.102>
LayerCount: 2
Fore
SplineSet
705 547 m 0
 705 505 675 483 632 483 c 1
 573 205 l 2
 544 67 411 -14 297 -14 c 0
 196 -14 109 50 109 158 c 0
 109 173 111 188 115 205 c 2
 174 483 l 1
 140 483 122 496 122 520 c 0
 122 564 155 583 200 583 c 2
 330 583 l 2
 368 583 387 573 387 547 c 0
 387 502 355 483 309 483 c 2
 274 483 l 1
 213 196 l 2
 212 189 211 182 211 176 c 0
 211 125 255 86 318 86 c 0
 389 86 458 135 471 196 c 2
 532 483 l 1
 497 483 l 2
 460 483 440 495 440 520 c 0
 440 565 471 583 518 583 c 2
 648 583 l 2
 686 583 705 572 705 547 c 0
292 725 m 0
 292 767 333 798 366 798 c 0
 395 798 414 778 414 750 c 0
 414 712 377 678 340 678 c 0
 311 678 292 698 292 725 c 0
500 725 m 0
 500 767 541 798 574 798 c 0
 603 798 622 778 622 750 c 0
 622 712 585 678 548 678 c 0
 519 678 500 698 500 725 c 0
EndSplineSet
Validated: 1
EndChar

StartChar: Yacute
Encoding: 221 221 167
Width: 600
Flags: W
HStem: 0 100<141.704 271 371 479.296> 483 100<148.309 188 617 677.913>
VStem: 133 225<499.68 566.957> 466 228<499.25 568.07>
DStem2: 308 484 188 483 0.431992 -0.901878<0 151.167> 374 348 402 245 0.670342 0.742053<0 183.371> 555 824 432 656 0.814084 0.580748<-235.136 36.8214>
LayerCount: 2
Fore
SplineSet
466 522 m 0
 466 566 499 583 545 583 c 2
 637 583 l 2
 675 583 694 572 694 547 c 0
 694 505 662 483 617 483 c 1
 402 245 l 1
 371 100 l 1
 436 100 l 2
 474 100 494 89 494 63 c 0
 494 18 462 0 415 0 c 2
 185 0 l 2
 148 0 127 11 127 37 c 0
 127 81 159 100 206 100 c 2
 271 100 l 1
 302 245 l 1
 188 483 l 1
 152 483 133 497 133 521 c 0
 133 566 171 583 212 583 c 2
 301 583 l 2
 339 583 358 572 358 547 c 0
 358 514 340 496 308 484 c 1
 374 348 l 1
 497 484 l 1
 476 492 466 505 466 522 c 0
621 810 m 0
 621 793 609 780 589 767 c 2
 432 656 l 2
 417 645 406 640 397 640 c 0
 379 640 367 653 367 669 c 0
 367 684 377 698 398 712 c 2
 555 824 l 2
 571 835 580 839 590 839 c 0
 608 839 621 827 621 810 c 0
EndSplineSet
Validated: 1
EndChar

StartChar: Thorn
Encoding: 222 222 168
Width: 600
Flags: W
HStem: 0 100<36.8545 116 216 357.069> 140 100<246 467.369> 343 100<289 476.946> 483 100<140.931 198 298 460.363>
VStem: 484 105<259.601 332.567>
DStem2: 94.7443 0 194.744 0 0.207912 0.978148<123.025 164.022 266.203 371.526 473.707 493.913>
LayerCount: 2
Fore
SplineSet
372 63 m 0
 372 19 339 0 294 0 c 2
 80 0 l 2
 34 0 23 20 23 38 c 0
 23 82 56 100 101 100 c 2
 116 100 l 1
 198 483 l 1
 183 483 l 2
 146 483 126 495 126 520 c 0
 126 565 159 583 204 583 c 2
 418 583 l 2
 455 583 475 571 475 546 c 0
 475 502 443 483 397 483 c 2
 298 483 l 1
 289 443 l 1
 387 443 l 2
 504 443 589 414 589 327 c 0
 589 184 460 140 323 140 c 2
 225 140 l 1
 216 100 l 1
 315 100 l 2
 352 100 372 88 372 63 c 0
246 240 m 1
 377 240 l 2
 446 240 484 255 484 303 c 0
 484 331 458 343 399 343 c 2
 268 343 l 1
 246 240 l 1
EndSplineSet
Validated: 1
EndChar

StartChar: germandbls
Encoding: 223 223 169
Width: 600
Flags: W
HStem: -16 100<341 436.868> 0 100<36.6369 116> 303 99<311.713 412.931> 523 100<315.563 433.255>
VStem: 22 228<15.5 85.041> 445 102<425.194 509.905> 467 103<116.455 254.434>
DStem2: 91.3434 -16 191.343 -16 0.207912 0.978148<135.927 560.185>
LayerCount: 2
Fore
SplineSet
273 72 m 0xba
 273 121 300 156 338 156 c 0
 403 156 353 84 400 84 c 0
 434 84 467 137 467 194 c 0xba
 467 259 414 294 342 303 c 0
 311 306 297 318 297 340 c 0
 297 377 323 399 361 402 c 0
 373 403 445 412 445 472 c 0
 445 502 420 523 379 523 c 0
 332 523 302 502 293 461 c 2
 216 100 l 1
 238 96 250 84 250 64 c 0
 250 20 219 0 172 0 c 2
 79 0 l 2
 42 0 22 12 22 37 c 0
 22 82 54 100 100 100 c 2
 116 100 l 1
 197 478 l 2
 215 563 299 623 400 623 c 0
 488 623 547 568 547 491 c 0x7c
 547 432 529 402 489 365 c 1
 543 329 570 277 570 215 c 0
 570 81 473 -16 371 -16 c 0
 311 -16 273 20 273 72 c 0xba
EndSplineSet
Validated: 1
EndChar

StartChar: agrave
Encoding: 224 224 170
Width: 600
Flags: W
HStem: -16 100<178.371 348.975> 0 100<510 568.363> 185 93<346.499 428> 196 92<226.652 426.71> 350 100<237.499 447.884>
VStem: 65 108<93.8826 153.642> 453 104<279.133 340.984>
DStem2: 351 680 402 512 0.697444 -0.71664<-31.3344 186.633>
LayerCount: 2
Fore
SplineSet
583 64 m 0x6e
 583 19 551 0 505 0 c 2
 388 0 l 1x6e
 393 23 l 1
 340 -2 278 -16 219 -16 c 0
 130 -16 65 34 65 98 c 0
 65 188 182 288 345 288 c 0x9e
 377 288 407 285 447 278 c 1
 452 301 l 2
 453 305 453 308 453 311 c 0
 453 338 426 350 369 350 c 0
 299 350 240 327 209 327 c 0
 185 327 169 343 169 366 c 0
 169 395 185 412 209 420 c 0
 261 437 338 450 388 450 c 0
 496 450 557 407 557 334 c 0
 557 324 555 313 553 302 c 2
 510 100 l 1
 526 100 l 2
 564 100 583 89 583 64 c 0x6e
320 196 m 0x1e
 247 196 173 155 173 118 c 0
 173 99 202 84 242 84 c 0
 296 84 355 101 418 135 c 1
 428 185 l 1xae
 390 192 354 196 320 196 c 0x1e
276 653 m 0
 276 672 295 696 322 696 c 0
 333 696 337 693 351 680 c 2
 460 569 l 2
 471 558 476 549 476 539 c 0
 476 514 450 496 430 496 c 0
 420 496 414 500 402 512 c 2
 293 624 l 2
 281 635 276 643 276 653 c 0
EndSplineSet
Validated: 1
EndChar

StartChar: aacute
Encoding: 225 225 171
Width: 600
Flags: W
HStem: -16 100<178.371 348.975> 0 100<510 568.363> 185 93<346.499 428> 196 92<226.652 426.71> 350 100<237.499 447.884>
VStem: 65 108<93.8826 153.642> 453 104<279.133 340.984>
DStem2: 518 680 395 512 0.814084 0.580748<-235.915 37.3668>
LayerCount: 2
Fore
SplineSet
583 64 m 0x6e
 583 19 551 0 505 0 c 2
 388 0 l 1x6e
 393 23 l 1
 340 -2 278 -16 219 -16 c 0
 130 -16 65 34 65 98 c 0
 65 188 182 288 345 288 c 0x9e
 377 288 407 285 447 278 c 1
 452 301 l 2
 453 305 453 308 453 311 c 0
 453 338 426 350 369 350 c 0
 299 350 240 327 209 327 c 0
 185 327 169 343 169 366 c 0
 169 395 185 412 209 420 c 0
 261 437 338 450 388 450 c 0
 496 450 557 407 557 334 c 0
 557 324 555 313 553 302 c 2
 510 100 l 1
 526 100 l 2
 564 100 583 89 583 64 c 0x6e
320 196 m 0x1e
 247 196 173 155 173 118 c 0
 173 99 202 84 242 84 c 0
 296 84 355 101 418 135 c 1
 428 185 l 1xae
 390 192 354 196 320 196 c 0x1e
583 668 m 0
 583 650 573 639 552 624 c 2
 395 512 l 2
 377 500 369 496 359 496 c 0
 341 496 329 509 329 525 c 0
 329 534 332 549 361 569 c 2
 518 680 l 2
 536 693 542 696 553 696 c 0
 571 696 583 684 583 668 c 0
EndSplineSet
Validated: 1
EndChar

StartChar: acircumflex
Encoding: 226 226 172
Width: 600
Flags: W
HStem: -16 100<178.371 348.975> 0 100<510 568.363> 185 93<346.499 428> 196 92<226.652 426.71> 350 100<237.499 447.884>
VStem: 65 108<93.8826 153.642> 453 104<279.133 340.984>
DStem2: 259 567 285 510 0.811276 0.584663<-43.8281 153.191> 438 696 419 607 0.693743 -0.720222<50.9187 210.622>
LayerCount: 2
Fore
SplineSet
583 64 m 0x6e
 583 19 551 0 505 0 c 2
 388 0 l 1x6e
 393 23 l 1
 340 -2 278 -16 219 -16 c 0
 130 -16 65 34 65 98 c 0
 65 188 182 288 345 288 c 0x9e
 377 288 407 285 447 278 c 1
 452 301 l 2
 453 305 453 308 453 311 c 0
 453 338 426 350 369 350 c 0
 299 350 240 327 209 327 c 0
 185 327 169 343 169 366 c 0
 169 395 185 412 209 420 c 0
 261 437 338 450 388 450 c 0
 496 450 557 407 557 334 c 0
 557 324 555 313 553 302 c 2
 510 100 l 1
 526 100 l 2
 564 100 583 89 583 64 c 0x6e
320 196 m 0x1e
 247 196 173 155 173 118 c 0
 173 99 202 84 242 84 c 0
 296 84 355 101 418 135 c 1
 428 185 l 1xae
 390 192 354 196 320 196 c 0x1e
579 539 m 0
 579 515 555 497 537 497 c 0
 528 497 519 501 510 510 c 2
 419 607 l 1
 285 510 l 2
 272 501 264 497 255 497 c 0
 238 497 226 510 226 525 c 0
 226 548 244 557 259 567 c 2
 438 696 l 1
 569 560 l 2
 576 553 579 547 579 539 c 0
EndSplineSet
Validated: 1
EndChar

StartChar: atilde
Encoding: 227 227 173
Width: 600
Flags: W
HStem: -16 100<178.371 348.975> 0 100<510 568.363> 185 93<346.499 428> 196 92<226.652 426.71> 350 100<237.499 447.884> 523 69<445.908 528.211> 587 69<304.768 391.3>
VStem: 65 108<93.8826 153.642> 453 104<279.133 340.984>
LayerCount: 2
Fore
SplineSet
583 64 m 0x6980
 583 19 551 0 505 0 c 2
 388 0 l 1x6980
 393 23 l 1
 340 -2 278 -16 219 -16 c 0
 130 -16 65 34 65 98 c 0
 65 188 182 288 345 288 c 0x9980
 377 288 407 285 447 278 c 1
 452 301 l 2
 453 305 453 308 453 311 c 0
 453 338 426 350 369 350 c 0
 299 350 240 327 209 327 c 0
 185 327 169 343 169 366 c 0
 169 395 185 412 209 420 c 0
 261 437 338 450 388 450 c 0
 496 450 557 407 557 334 c 0
 557 324 555 313 553 302 c 2
 510 100 l 1
 526 100 l 2
 564 100 583 89 583 64 c 0x6980
320 196 m 0x1980
 247 196 173 155 173 118 c 0
 173 99 202 84 242 84 c 0
 296 84 355 101 418 135 c 1
 428 185 l 1xa980
 390 192 354 196 320 196 c 0x1980
611 632 m 0
 611 611 544 523 480 523 c 0x0d80
 426 523 382 587 345 587 c 0
 303 587 285 526 251 526 c 0
 236 526 226 537 226 551 c 0
 226 580 296 656 357 656 c 0x0b80
 410 656 457 592 492 592 c 0x0d80
 527 592 550 656 585 656 c 0x0b80
 600 656 611 645 611 632 c 0
EndSplineSet
Validated: 1
EndChar

StartChar: adieresis
Encoding: 228 228 174
Width: 600
Flags: W
HStem: -16 100<178.371 348.975> 0 100<510 568.363> 185 93<346.499 428> 196 92<226.652 426.71> 350 100<237.499 447.884> 534 120<273.795 348.999 481.795 556.999>
VStem: 65 108<93.8826 153.642> 250 122<556.892 630> 453 104<279.133 340.984> 458 122<556.892 630>
LayerCount: 2
Fore
SplineSet
583 64 m 0x6f80
 583 19 551 0 505 0 c 2
 388 0 l 1x6f80
 393 23 l 1
 340 -2 278 -16 219 -16 c 0
 130 -16 65 34 65 98 c 0
 65 188 182 288 345 288 c 0x9f80
 377 288 407 285 447 278 c 1
 452 301 l 2
 453 305 453 308 453 311 c 0
 453 338 426 350 369 350 c 0
 299 350 240 327 209 327 c 0
 185 327 169 343 169 366 c 0
 169 395 185 412 209 420 c 0
 261 437 338 450 388 450 c 0
 496 450 557 407 557 334 c 0
 557 324 555 313 553 302 c 2
 510 100 l 1
 526 100 l 2
 564 100 583 89 583 64 c 0x6f80
320 196 m 0x1f
 247 196 173 155 173 118 c 0
 173 99 202 84 242 84 c 0
 296 84 355 101 418 135 c 1
 428 185 l 1xaf
 390 192 354 196 320 196 c 0x1f
250 582 m 0
 250 614 282 654 324 654 c 0
 353 654 372 634 372 606 c 0
 372 564 332 534 299 534 c 0
 270 534 250 555 250 582 c 0
458 582 m 0x0f40
 458 614 490 654 532 654 c 0
 561 654 580 634 580 606 c 0
 580 564 540 534 507 534 c 0
 478 534 458 555 458 582 c 0x0f40
EndSplineSet
Validated: 1
EndChar

StartChar: aring
Encoding: 229 229 175
Width: 600
Flags: W
HStem: -16 100<178.371 348.975> 0 100<510 568.363> 185 93<346.499 428> 196 92<226.652 426.71> 350 100<237.499 447.884> 486 54<358.172 458.058> 674 53<378.658 477.828>
VStem: 65 108<93.8826 153.642> 292 55<551.4 642.929> 453 104<279.133 340.984> 489 55<569.814 662.063>
LayerCount: 2
Fore
SplineSet
583 64 m 0x6fc0
 583 19 551 0 505 0 c 2
 388 0 l 1x6fc0
 393 23 l 1
 340 -2 278 -16 219 -16 c 0
 130 -16 65 34 65 98 c 0
 65 188 182 288 345 288 c 0x9fc0
 377 288 407 285 447 278 c 1
 452 301 l 2
 453 305 453 308 453 311 c 0
 453 338 426 350 369 350 c 0
 299 350 240 327 209 327 c 0
 185 327 169 343 169 366 c 0
 169 395 185 412 209 420 c 0
 261 437 338 450 388 450 c 0
 496 450 557 407 557 334 c 0
 557 324 555 313 553 302 c 2
 510 100 l 1
 526 100 l 2
 564 100 583 89 583 64 c 0x6fc0
320 196 m 0x1f80
 247 196 173 155 173 118 c 0
 173 99 202 84 242 84 c 0
 296 84 355 101 418 135 c 1
 428 185 l 1xaf80
 390 192 354 196 320 196 c 0x1f80
292 583 m 0
 292 654 364 727 444 727 c 0
 503 727 544 685 544 630 c 0x0fa0
 544 556 468 486 392 486 c 0
 333 486 292 528 292 583 c 0
404 540 m 0
 440 540 489 574 489 619 c 0
 489 650 465 674 432 674 c 0
 384 674 347 629 347 594 c 0
 347 564 371 540 404 540 c 0
EndSplineSet
Validated: 1
EndChar

StartChar: ae
Encoding: 230 230 176
Width: 600
Flags: W
HStem: -16 100<124.102 245.576 413.347 543.477> -1 21G<297.5 313> 172 86<417 557> 197 89<145.765 294.121> 325 101<140.126 254.696> 350 100<185.97 316.416 458.589 544.817>
VStem: 14 103<92.1425 169.628> 557 108<258.128 339.255>
LayerCount: 2
Fore
SplineSet
531 450 m 0x07
 600 450 665 397 665 288 c 0
 665 267 662 244 657 218 c 2
 648 172 l 1
 397 172 l 1
 401 109 418 84 459 84 c 0
 511 84 556 118 591 118 c 0
 613 118 627 102 627 79 c 0
 627 51 613 34 592 22 c 0
 552 0 486 -16 439 -16 c 0xa7
 399 -16 377 -9 345 16 c 1
 334 5 321 -1 305 -1 c 0x43
 290 -1 280 5 272 16 c 1
 230 -7 199 -16 156 -16 c 0
 67 -16 14 31 14 106 c 0
 14 230 147 286 256 286 c 0
 271 286 290 284 315 281 c 1
 319 301 l 2
 320 305 320 309 320 313 c 0
 320 335 305 350 281 350 c 0x97
 246 350 186 325 163 325 c 0
 140 325 125 342 125 365 c 0
 125 398 147 416 178 426 c 0x0b
 218 438 278 450 303 450 c 0
 349 450 380 433 407 394 c 1
 451 433 489 450 531 450 c 0x07
241 197 m 0x93
 191 197 117 184 117 129 c 0
 117 101 139 84 176 84 c 0
 207 84 236 96 283 130 c 1
 295 189 l 1
 273 195 258 197 241 197 c 0x93
417 258 m 1x27
 557 258 l 1
 557 264 557 270 557 276 c 0
 557 316 546 350 506 350 c 0
 448 350 422 271 417 258 c 1x27
EndSplineSet
Validated: 1
EndChar

StartChar: ccedilla
Encoding: 231 231 177
Width: 600
Flags: W
HStem: -229 70<215.966 316.8> -13 97<339 476.888> 350 100<294.408 478.93>
VStem: 93 102<120.382 260.29> 319 73<-154.911 -103.747>
LayerCount: 2
Fore
SplineSet
277 -159 m 0
 302 -159 319 -148 319 -127 c 0
 319 -110 303 -100 273 -100 c 0
 268 -100 263 -100 250 -102 c 1
 269 -13 l 1
 124 3 93 88 93 157 c 0
 93 325 247 450 406 450 c 0
 463 450 508 440 543 420 c 1
 553 441 567 450 588 450 c 0
 613 450 625 438 625 412 c 0
 625 404 624 395 622 384 c 2
 605 307 l 2
 596 264 576 241 541 241 c 0
 509 241 500 256 500 289 c 0
 500 307 497 317 485 325 c 0
 462 341 428 350 384 350 c 0
 284 350 195 283 195 177 c 0
 195 115 246 84 348 84 c 0
 463 84 491 113 512 128 c 0
 523 136 533 140 545 140 c 0
 569 140 585 123 585 100 c 0
 585 64 551 38 504 16 c 0
 463 -3 404 -14 339 -16 c 1
 333 -41 l 1
 373 -50 392 -71 392 -106 c 0
 392 -181 330 -229 261 -229 c 0
 225 -229 154 -211 154 -173 c 0
 154 -149 177 -131 197 -131 c 0
 217 -131 236 -159 277 -159 c 0
EndSplineSet
Validated: 1
EndChar

StartChar: egrave
Encoding: 232 232 178
Width: 600
Flags: W
HStem: -16 100<222.908 465.529> 172 88<200 494> 350 100<271.715 450.671>
VStem: 74 105<126.885 172> 494 107<260.497 310.852>
DStem2: 363 680 414 512 0.697444 -0.71664<-31.3344 186.633>
LayerCount: 2
Fore
SplineSet
74 166 m 0
 74 313 214 450 387 450 c 0
 517 450 601 373 601 262 c 0
 601 246 599 229 595 211 c 2
 587 172 l 1
 179 172 l 1
 189 112 236 84 324 84 c 0
 420 84 486 117 527 117 c 0
 550 117 565 101 565 78 c 0
 565 45 538 30 520 22 c 0
 470 2 365 -16 294 -16 c 0
 159 -16 74 57 74 166 c 0
200 260 m 1
 494 260 l 1
 490 315 439 350 366 350 c 0
 293 350 227 314 200 260 c 1
288 653 m 0
 288 672 307 696 334 696 c 0
 345 696 349 693 363 680 c 2
 472 569 l 2
 483 558 488 549 488 539 c 0
 488 514 462 496 442 496 c 0
 432 496 426 500 414 512 c 2
 305 624 l 2
 293 635 288 643 288 653 c 0
EndSplineSet
Validated: 1
EndChar

StartChar: eacute
Encoding: 233 233 179
Width: 600
Flags: W
HStem: -16 100<222.908 465.529> 172 88<200 494> 350 100<271.715 450.671>
VStem: 74 105<126.885 172> 494 107<260.497 310.852>
DStem2: 530 680 407 512 0.814084 0.580748<-235.915 37.3668>
LayerCount: 2
Fore
SplineSet
74 166 m 0
 74 313 214 450 387 450 c 0
 517 450 601 373 601 262 c 0
 601 246 599 229 595 211 c 2
 587 172 l 1
 179 172 l 1
 189 112 236 84 324 84 c 0
 420 84 486 117 527 117 c 0
 550 117 565 101 565 78 c 0
 565 45 538 30 520 22 c 0
 470 2 365 -16 294 -16 c 0
 159 -16 74 57 74 166 c 0
200 260 m 1
 494 260 l 1
 490 315 439 350 366 350 c 0
 293 350 227 314 200 260 c 1
595 668 m 0
 595 650 585 639 564 624 c 2
 407 512 l 2
 389 500 381 496 371 496 c 0
 353 496 341 509 341 525 c 0
 341 534 344 549 373 569 c 2
 530 680 l 2
 548 693 554 696 565 696 c 0
 583 696 595 684 595 668 c 0
EndSplineSet
Validated: 1
EndChar

StartChar: ecircumflex
Encoding: 234 234 180
Width: 600
Flags: W
HStem: -16 100<222.908 465.529> 172 88<200 494> 350 100<271.715 450.671>
VStem: 74 105<126.885 172> 494 107<260.497 310.852>
DStem2: 274 567 300 510 0.811276 0.584663<-43.8281 153.191> 453 696 434 607 0.693743 -0.720222<50.9187 210.622>
LayerCount: 2
Fore
SplineSet
74 166 m 0
 74 313 214 450 387 450 c 0
 517 450 601 373 601 262 c 0
 601 246 599 229 595 211 c 2
 587 172 l 1
 179 172 l 1
 189 112 236 84 324 84 c 0
 420 84 486 117 527 117 c 0
 550 117 565 101 565 78 c 0
 565 45 538 30 520 22 c 0
 470 2 365 -16 294 -16 c 0
 159 -16 74 57 74 166 c 0
200 260 m 1
 494 260 l 1
 490 315 439 350 366 350 c 0
 293 350 227 314 200 260 c 1
594 539 m 0
 594 515 570 497 552 497 c 0
 543 497 534 501 525 510 c 2
 434 607 l 1
 300 510 l 2
 287 501 279 497 270 497 c 0
 253 497 241 510 241 525 c 0
 241 548 259 557 274 567 c 2
 453 696 l 1
 584 560 l 2
 591 553 594 547 594 539 c 0
EndSplineSet
Validated: 1
EndChar

StartChar: edieresis
Encoding: 235 235 181
Width: 600
Flags: W
HStem: -16 100<222.908 465.529> 172 88<200 494> 350 100<271.715 450.671> 534 120<288.795 363.999 496.795 571.999>
VStem: 74 105<126.885 172> 265 122<556.892 630> 473 122<556.892 630> 494 107<260.497 310.852>
LayerCount: 2
Fore
SplineSet
74 166 m 0xfe
 74 313 214 450 387 450 c 0
 517 450 601 373 601 262 c 0xfd
 601 246 599 229 595 211 c 2
 587 172 l 1
 179 172 l 1
 189 112 236 84 324 84 c 0
 420 84 486 117 527 117 c 0
 550 117 565 101 565 78 c 0
 565 45 538 30 520 22 c 0
 470 2 365 -16 294 -16 c 0
 159 -16 74 57 74 166 c 0xfe
200 260 m 1
 494 260 l 1
 490 315 439 350 366 350 c 0
 293 350 227 314 200 260 c 1
265 582 m 0
 265 614 297 654 339 654 c 0
 368 654 387 634 387 606 c 0
 387 564 347 534 314 534 c 0
 285 534 265 555 265 582 c 0
473 582 m 0xfe
 473 614 505 654 547 654 c 0
 576 654 595 634 595 606 c 0
 595 564 555 534 522 534 c 0
 493 534 473 555 473 582 c 0xfe
EndSplineSet
Validated: 1
EndChar

StartChar: igrave
Encoding: 236 236 182
Width: 600
Flags: W
HStem: 0 100<84.7947 271 371 535.069> 337 100<200.41 322>
DStem2: 249.744 0 349.744 0 0.207912 0.978148<123.025 344.659> 352 680 403 512 0.697444 -0.71664<-31.3344 186.633>
LayerCount: 2
Fore
SplineSet
550 63 m 0
 550 19 517 0 472 0 c 2
 128 0 l 2
 82 0 71 20 71 38 c 0
 71 82 103 100 149 100 c 2
 271 100 l 1
 322 337 l 1
 244 337 l 2
 207 337 186 348 186 374 c 0
 186 419 217 437 265 437 c 2
 443 437 l 1
 371 100 l 1
 493 100 l 2
 530 100 550 88 550 63 c 0
277 653 m 0
 277 672 296 696 323 696 c 0
 334 696 338 693 352 680 c 2
 461 569 l 2
 472 558 477 549 477 539 c 0
 477 514 451 496 431 496 c 0
 421 496 415 500 403 512 c 2
 294 624 l 2
 282 635 277 643 277 653 c 0
EndSplineSet
Validated: 1
EndChar

StartChar: iacute
Encoding: 237 237 183
Width: 600
Flags: W
HStem: 0 100<84.7947 271 371 535.069> 337 100<200.41 322>
DStem2: 249.744 0 349.744 0 0.207912 0.978148<123.025 344.659> 509 680 386 512 0.814084 0.580748<-235.915 37.3668>
LayerCount: 2
Fore
SplineSet
550 63 m 0
 550 19 517 0 472 0 c 2
 128 0 l 2
 82 0 71 20 71 38 c 0
 71 82 103 100 149 100 c 2
 271 100 l 1
 322 337 l 1
 244 337 l 2
 207 337 186 348 186 374 c 0
 186 419 217 437 265 437 c 2
 443 437 l 1
 371 100 l 1
 493 100 l 2
 530 100 550 88 550 63 c 0
574 668 m 0
 574 650 564 639 543 624 c 2
 386 512 l 2
 368 500 360 496 350 496 c 0
 332 496 320 509 320 525 c 0
 320 534 323 549 352 569 c 2
 509 680 l 2
 527 693 533 696 544 696 c 0
 562 696 574 684 574 668 c 0
EndSplineSet
Validated: 1
EndChar

StartChar: icircumflex
Encoding: 238 238 184
Width: 600
Flags: W
HStem: 0 100<84.7947 271 371 535.069> 337 100<200.41 322>
DStem2: 249.744 0 349.744 0 0.207912 0.978148<123.025 344.659> 253 567 279 510 0.811276 0.584663<-43.8281 153.191> 432 696 413 607 0.693743 -0.720222<50.9187 210.622>
LayerCount: 2
Fore
SplineSet
550 63 m 0
 550 19 517 0 472 0 c 2
 128 0 l 2
 82 0 71 20 71 38 c 0
 71 82 103 100 149 100 c 2
 271 100 l 1
 322 337 l 1
 244 337 l 2
 207 337 186 348 186 374 c 0
 186 419 217 437 265 437 c 2
 443 437 l 1
 371 100 l 1
 493 100 l 2
 530 100 550 88 550 63 c 0
573 539 m 0
 573 515 549 497 531 497 c 0
 522 497 513 501 504 510 c 2
 413 607 l 1
 279 510 l 2
 266 501 258 497 249 497 c 0
 232 497 220 510 220 525 c 0
 220 548 238 557 253 567 c 2
 432 696 l 1
 563 560 l 2
 570 553 573 547 573 539 c 0
EndSplineSet
Validated: 1
EndChar

StartChar: idieresis
Encoding: 239 239 185
Width: 600
Flags: W
HStem: 0 100<84.7947 271 371 535.069> 337 100<200.41 322> 534 120<267.795 342.999 475.795 550.999>
VStem: 244 122<556.892 630> 452 122<556.892 630>
DStem2: 249.744 0 349.744 0 0.207912 0.978148<123.025 344.659>
LayerCount: 2
Fore
SplineSet
550 63 m 0
 550 19 517 0 472 0 c 2
 128 0 l 2
 82 0 71 20 71 38 c 0
 71 82 103 100 149 100 c 2
 271 100 l 1
 322 337 l 1
 244 337 l 2
 207 337 186 348 186 374 c 0
 186 419 217 437 265 437 c 2
 443 437 l 1
 371 100 l 1
 493 100 l 2
 530 100 550 88 550 63 c 0
244 582 m 0
 244 614 276 654 318 654 c 0
 347 654 366 634 366 606 c 0
 366 564 326 534 293 534 c 0
 264 534 244 555 244 582 c 0
452 582 m 0
 452 614 484 654 526 654 c 0
 555 654 574 634 574 606 c 0
 574 564 534 534 501 534 c 0
 472 534 452 555 452 582 c 0
EndSplineSet
Validated: 1
EndChar

StartChar: eth
Encoding: 240 240 186
Width: 600
Flags: W
HStem: -16 100<236.598 406.74> 350 93<286.284 454.595> 568 72<295 329.389>
VStem: 82 105<130.021 257.075> 504 113<186.998 363.5>
DStem2: 330 551 300 468 0.902514 0.43066<-98.2958 0 148.319 235.431>
LayerCount: 2
Fore
SplineSet
259 598 m 0
 259 623 288 640 308 640 c 0
 331 640 358 630 400 609 c 2
 426 596 l 1
 511 637 l 2
 525 643 536 646 546 646 c 0
 561 646 571 636 571 621 c 0
 571 601 557 590 541 583 c 2
 491 558 l 1
 577 487 617 411 617 316 c 0
 617 70 422 -16 297 -16 c 0
 171 -16 82 63 82 168 c 0
 82 301 219 443 380 443 c 0
 430 443 459 433 514 396 c 1
 486 445 445 490 403 518 c 1
 300 468 l 2
 279 457 275 456 266 456 c 0
 252 456 243 467 243 483 c 0
 243 509 259 515 274 522 c 2
 330 551 l 1
 317 558 302 564 295 568 c 1
 280 573 l 2
 266 578 259 587 259 598 c 0
318 84 m 0
 404 84 504 145 504 237 c 0
 504 302 452 350 374 350 c 0
 275 350 187 270 187 190 c 0
 187 130 241 84 318 84 c 0
EndSplineSet
Validated: 1
EndChar

StartChar: ntilde
Encoding: 241 241 187
Width: 600
Flags: W
HStem: 0 100<46.6369 116 216 264.069 373.292 431 531 568.867> 350 100<336.771 460.532> 417 20G<173.5 288> 523 69<445.908 528.211> 587 69<304.768 391.3>
VStem: 358 225<15.4536 84.5703> 471 104<253.045 339.093>
DStem2: 94.7443 0 194.744 0 0.207912 0.978148<123.025 335.497> 409.744 0 509.744 0 0.207912 0.978148<123.025 304.926>
LayerCount: 2
Fore
SplineSet
611 632 m 0x88
 611 611 544 523 480 523 c 0x90
 426 523 382 587 345 587 c 0
 303 587 285 526 251 526 c 0
 236 526 226 537 226 551 c 0
 226 580 296 656 357 656 c 0x88
 410 656 457 592 492 592 c 0x90
 527 592 550 656 585 656 c 0
 600 656 611 645 611 632 c 0x88
115 375 m 0
 115 420 153 437 194 437 c 2
 288 437 l 1xa2
 278 389 l 1
 336 435 373 450 428 450 c 0
 514 450 575 407 575 324 c 0xc2
 575 311 573 297 570 282 c 2
 531 100 l 1
 565 100 583 86 583 62 c 0
 583 18 549 0 505 0 c 2
 416 0 l 2
 377 0 358 12 358 37 c 0xc4
 358 78 389 100 431 100 c 1
 469 278 l 2
 471 286 471 293 471 299 c 0
 471 334 446 350 394 350 c 0xc2
 348 350 313 333 255 282 c 1
 216 100 l 1
 222 100 l 2
 259 100 279 88 279 63 c 0
 279 19 246 0 201 0 c 2
 89 0 l 2
 53 0 32 11 32 37 c 0
 32 81 64 100 110 100 c 2
 116 100 l 1
 167 337 l 1
 134 338 115 351 115 375 c 0
EndSplineSet
Validated: 1
EndChar

StartChar: ograve
Encoding: 242 242 188
Width: 600
Flags: W
HStem: -16 100<235.67 408.628> 350 100<282.516 455.268>
VStem: 83 102<131.748 262.789> 507 102<175.617 302.587>
DStem2: 362 680 413 512 0.697444 -0.71664<-31.3344 186.633>
LayerCount: 2
Fore
SplineSet
83 172 m 0
 83 311 222 450 399 450 c 0
 523 450 609 370 609 263 c 0
 609 117 460 -16 297 -16 c 0
 170 -16 83 64 83 172 c 0
318 84 m 0
 426 84 507 165 507 242 c 0
 507 304 453 350 376 350 c 0
 275 350 185 279 185 192 c 0
 185 130 239 84 318 84 c 0
287 653 m 0
 287 672 306 696 333 696 c 0
 344 696 348 693 362 680 c 2
 471 569 l 2
 482 558 487 549 487 539 c 0
 487 514 461 496 441 496 c 0
 431 496 425 500 413 512 c 2
 304 624 l 2
 292 635 287 643 287 653 c 0
EndSplineSet
Validated: 1
EndChar

StartChar: oacute
Encoding: 243 243 189
Width: 600
Flags: W
HStem: -16 100<235.67 408.628> 350 100<282.516 455.268>
VStem: 83 102<131.748 262.789> 507 102<175.617 302.587>
DStem2: 529 680 406 512 0.814084 0.580748<-235.915 37.3668>
LayerCount: 2
Fore
SplineSet
83 172 m 0
 83 311 222 450 399 450 c 0
 523 450 609 370 609 263 c 0
 609 117 460 -16 297 -16 c 0
 170 -16 83 64 83 172 c 0
318 84 m 0
 426 84 507 165 507 242 c 0
 507 304 453 350 376 350 c 0
 275 350 185 279 185 192 c 0
 185 130 239 84 318 84 c 0
594 668 m 0
 594 650 584 639 563 624 c 2
 406 512 l 2
 388 500 380 496 370 496 c 0
 352 496 340 509 340 525 c 0
 340 534 343 549 372 569 c 2
 529 680 l 2
 547 693 553 696 564 696 c 0
 582 696 594 684 594 668 c 0
EndSplineSet
Validated: 1
EndChar

StartChar: ocircumflex
Encoding: 244 244 190
Width: 600
Flags: W
HStem: -16 100<235.67 408.628> 350 100<282.516 455.268>
VStem: 83 102<131.748 262.789> 507 102<175.617 302.587>
DStem2: 269 567 295 510 0.811276 0.584663<-43.8281 153.191> 448 696 429 607 0.693743 -0.720222<50.9187 210.622>
LayerCount: 2
Fore
SplineSet
83 172 m 0
 83 311 222 450 399 450 c 0
 523 450 609 370 609 263 c 0
 609 117 460 -16 297 -16 c 0
 170 -16 83 64 83 172 c 0
318 84 m 0
 426 84 507 165 507 242 c 0
 507 304 453 350 376 350 c 0
 275 350 185 279 185 192 c 0
 185 130 239 84 318 84 c 0
589 539 m 0
 589 515 565 497 547 497 c 0
 538 497 529 501 520 510 c 2
 429 607 l 1
 295 510 l 2
 282 501 274 497 265 497 c 0
 248 497 236 510 236 525 c 0
 236 548 254 557 269 567 c 2
 448 696 l 1
 579 560 l 2
 586 553 589 547 589 539 c 0
EndSplineSet
Validated: 1
EndChar

StartChar: otilde
Encoding: 245 245 191
Width: 600
Flags: W
HStem: -16 100<235.67 408.628> 350 100<282.516 455.268> 523 69<459.908 542.211> 587 69<318.768 405.3>
VStem: 83 102<131.748 262.789> 507 102<175.617 302.587>
LayerCount: 2
Fore
SplineSet
83 172 m 0xcc
 83 311 222 450 399 450 c 0
 523 450 609 370 609 263 c 0
 609 117 460 -16 297 -16 c 0
 170 -16 83 64 83 172 c 0xcc
318 84 m 0
 426 84 507 165 507 242 c 0
 507 304 453 350 376 350 c 0
 275 350 185 279 185 192 c 0
 185 130 239 84 318 84 c 0
625 632 m 0
 625 611 558 523 494 523 c 0xec
 440 523 396 587 359 587 c 0
 317 587 299 526 265 526 c 0
 250 526 240 537 240 551 c 0
 240 580 310 656 371 656 c 0xdc
 424 656 471 592 506 592 c 0xec
 541 592 564 656 599 656 c 0xdc
 614 656 625 645 625 632 c 0
EndSplineSet
Validated: 1
EndChar

StartChar: odieresis
Encoding: 246 246 192
Width: 600
Flags: W
HStem: -16 100<235.67 408.628> 350 100<282.516 455.268> 534 120<284.795 359.999 492.795 567.999>
VStem: 83 102<131.748 262.789> 261 122<556.892 630> 469 122<556.892 630> 507 102<175.617 302.587>
LayerCount: 2
Fore
SplineSet
83 172 m 0xfa
 83 311 222 450 399 450 c 0
 523 450 609 370 609 263 c 0
 609 117 460 -16 297 -16 c 0
 170 -16 83 64 83 172 c 0xfa
318 84 m 0
 426 84 507 165 507 242 c 0
 507 304 453 350 376 350 c 0
 275 350 185 279 185 192 c 0
 185 130 239 84 318 84 c 0
261 582 m 0
 261 614 293 654 335 654 c 0
 364 654 383 634 383 606 c 0
 383 564 343 534 310 534 c 0
 281 534 261 555 261 582 c 0
469 582 m 0xfc
 469 614 501 654 543 654 c 0
 572 654 591 634 591 606 c 0
 591 564 551 534 518 534 c 0
 489 534 469 555 469 582 c 0xfc
EndSplineSet
Validated: 1
EndChar

StartChar: divide
Encoding: 247 247 193
Width: 600
Flags: W
HStem: 28 132<272.088 368.98> 230 100<114.099 604.363> 400 132<351.088 447.98>
VStem: 243 154<55.29 132.295> 322 154<427.29 504.295>
CounterMasks: 1 e0
LayerCount: 2
Fore
SplineSet
100 268 m 0xe0
 100 312 133 330 178 330 c 2
 562 330 l 2
 599 330 619 318 619 293 c 0
 619 248 587 230 541 230 c 2
 157 230 l 2
 121 230 100 242 100 268 c 0xe0
243 79 m 0xf0
 243 128 286 160 334 160 c 0
 374 160 397 141 397 109 c 0
 397 59 355 28 306 28 c 0
 267 28 243 48 243 79 c 0xf0
322 451 m 0xe8
 322 500 365 532 413 532 c 0
 453 532 476 513 476 481 c 0
 476 431 434 400 385 400 c 0
 346 400 322 420 322 451 c 0xe8
EndSplineSet
Validated: 1
EndChar

StartChar: oslash
Encoding: 248 248 194
Width: 600
Flags: W
HStem: -16 100<266.476 406.864> 350 100<281.393 428.626>
VStem: 83 103<145.587 262.666> 506 103<171.994 285.076>
DStem2: 111 72 107 -44 0.762726 0.646722<-133.214 4.67258 130.51 417.924 540.248 668.928>
LayerCount: 2
Fore
SplineSet
83 174 m 0
 83 309 224 450 394 450 c 0
 438 450 491 437 521 419 c 1
 579 468 l 2
 605 489 614 494 631 494 c 0
 653 494 669 478 669 457 c 0
 669 429 647 413 633 402 c 2
 582 359 l 1
 600 329 609 295 609 261 c 0
 609 126 469 -16 297 -16 c 0
 252 -16 212 -6 175 14 c 1
 107 -44 l 2
 81 -65 72 -70 56 -70 c 0
 32 -70 17 -54 17 -32 c 0
 17 -10 30 3 53 22 c 2
 111 72 l 1
 93 102 83 138 83 174 c 0
317 84 m 0
 427 84 506 166 506 240 c 0
 506 256 503 271 497 286 c 1
 266 91 l 1
 283 86 297 84 317 84 c 0
374 350 m 0
 265 350 186 269 186 194 c 0
 186 177 190 161 198 145 c 1
 430 342 l 1
 410 347 393 350 374 350 c 0
EndSplineSet
Validated: 1
EndChar

StartChar: ugrave
Encoding: 249 249 195
Width: 600
Flags: W
HStem: -13 100<234.771 360.744> 0 21G<410 515.5> 337 100<128.513 167 424.514 482> 337 93<104.691 167 400.07 466.886>
VStem: 123 103<98.0718 184.795>
DStem2: 92.0779 -13 192.44 -13 0.207912 0.978148<174.887 357.929> 407.29 -13 506.981 -13 0.207912 0.978148<146.212 357.885> 360 680 411 512 0.697444 -0.71664<-31.3344 186.633>
LayerCount: 2
Fore
SplineSet
437 337 m 2xa8
 394 337 390 367 390 378 c 0
 390 397 404 420 424 430 c 0x18
 435 436 444 437 468 437 c 2
 603 437 l 1
 531 100 l 1
 565 100 583 86 583 61 c 0
 583 35 565 16 548 7 c 0
 539 2 526 0 505 0 c 2
 410 0 l 1x68
 420 48 l 1
 360 1 325 -13 270 -13 c 0
 182 -13 123 31 123 113 c 0
 123 126 125 141 128 156 c 2
 167 337 l 1
 140 337 l 2xa8
 111 337 94 353 94 376 c 0
 94 397 108 419 128 430 c 0x18
 139 436 147 437 172 437 c 2
 288 437 l 1
 229 159 l 2
 227 151 226 144 226 137 c 0
 226 103 251 87 301 87 c 0
 351 87 379 100 443 155 c 1
 482 337 l 1
 437 337 l 2xa8
285 653 m 0
 285 672 304 696 331 696 c 0
 342 696 346 693 360 680 c 2
 469 569 l 2
 480 558 485 549 485 539 c 0
 485 514 459 496 439 496 c 0
 429 496 423 500 411 512 c 2
 302 624 l 2
 290 635 285 643 285 653 c 0
EndSplineSet
Validated: 1
EndChar

StartChar: uacute
Encoding: 250 250 196
Width: 600
Flags: W
HStem: -13 100<234.771 360.744> 0 21G<410 515.5> 337 100<128.513 167 424.514 482> 337 93<104.691 167 400.07 466.886>
VStem: 123 103<98.0718 184.795>
DStem2: 92.0779 -13 192.44 -13 0.207912 0.978148<174.887 357.929> 407.29 -13 506.981 -13 0.207912 0.978148<146.212 357.885> 517 680 394 512 0.814084 0.580748<-235.915 37.3668>
LayerCount: 2
Fore
SplineSet
437 337 m 2xa8
 394 337 390 367 390 378 c 0
 390 397 404 420 424 430 c 0x18
 435 436 444 437 468 437 c 2
 603 437 l 1
 531 100 l 1
 565 100 583 86 583 61 c 0
 583 35 565 16 548 7 c 0
 539 2 526 0 505 0 c 2
 410 0 l 1x68
 420 48 l 1
 360 1 325 -13 270 -13 c 0
 182 -13 123 31 123 113 c 0
 123 126 125 141 128 156 c 2
 167 337 l 1
 140 337 l 2xa8
 111 337 94 353 94 376 c 0
 94 397 108 419 128 430 c 0x18
 139 436 147 437 172 437 c 2
 288 437 l 1
 229 159 l 2
 227 151 226 144 226 137 c 0
 226 103 251 87 301 87 c 0
 351 87 379 100 443 155 c 1
 482 337 l 1
 437 337 l 2xa8
582 668 m 0
 582 650 572 639 551 624 c 2
 394 512 l 2
 376 500 368 496 358 496 c 0
 340 496 328 509 328 525 c 0
 328 534 331 549 360 569 c 2
 517 680 l 2
 535 693 541 696 552 696 c 0
 570 696 582 684 582 668 c 0
EndSplineSet
Validated: 1
EndChar

StartChar: ucircumflex
Encoding: 251 251 197
Width: 600
Flags: W
HStem: -13 100<234.771 360.744> 0 21G<410 515.5> 337 100<128.513 167 424.514 482> 337 93<104.691 167 400.07 466.886>
VStem: 123 103<98.0718 184.795>
DStem2: 92.0779 -13 192.44 -13 0.207912 0.978148<174.887 357.929> 265 567 291 510 0.811276 0.584663<-43.8281 153.191> 407.29 -13 506.981 -13 0.207912 0.978148<146.212 357.885> 444 696 425 607 0.693743 -0.720222<50.9187 210.622>
LayerCount: 2
Fore
SplineSet
437 337 m 2xa8
 394 337 390 367 390 378 c 0
 390 397 404 420 424 430 c 0x18
 435 436 444 437 468 437 c 2
 603 437 l 1
 531 100 l 1
 565 100 583 86 583 61 c 0
 583 35 565 16 548 7 c 0
 539 2 526 0 505 0 c 2
 410 0 l 1x68
 420 48 l 1
 360 1 325 -13 270 -13 c 0
 182 -13 123 31 123 113 c 0
 123 126 125 141 128 156 c 2
 167 337 l 1
 140 337 l 2xa8
 111 337 94 353 94 376 c 0
 94 397 108 419 128 430 c 0x18
 139 436 147 437 172 437 c 2
 288 437 l 1
 229 159 l 2
 227 151 226 144 226 137 c 0
 226 103 251 87 301 87 c 0
 351 87 379 100 443 155 c 1
 482 337 l 1
 437 337 l 2xa8
585 539 m 0
 585 515 561 497 543 497 c 0
 534 497 525 501 516 510 c 2
 425 607 l 1
 291 510 l 2
 278 501 270 497 261 497 c 0
 244 497 232 510 232 525 c 0
 232 548 250 557 265 567 c 2
 444 696 l 1
 575 560 l 2
 582 553 585 547 585 539 c 0
EndSplineSet
Validated: 1
EndChar

StartChar: udieresis
Encoding: 252 252 198
Width: 600
Flags: W
HStem: -13 100<234.771 360.744> 0 21G<410 515.5> 337 100<128.513 167 424.514 482> 337 93<104.691 167 400.07 466.886> 534 120<279.795 354.999 487.795 562.999>
VStem: 123 103<98.0718 184.795> 256 122<556.892 630> 464 122<556.892 630>
DStem2: 92.0779 -13 192.44 -13 0.207912 0.978148<174.887 357.929> 407.29 -13 506.981 -13 0.207912 0.978148<146.212 357.885>
LayerCount: 2
Fore
SplineSet
437 337 m 2xaf
 394 337 390 367 390 378 c 0
 390 397 404 420 424 430 c 0x1f
 435 436 444 437 468 437 c 2
 603 437 l 1
 531 100 l 1
 565 100 583 86 583 61 c 0
 583 35 565 16 548 7 c 0
 539 2 526 0 505 0 c 2
 410 0 l 1x6f
 420 48 l 1
 360 1 325 -13 270 -13 c 0
 182 -13 123 31 123 113 c 0
 123 126 125 141 128 156 c 2
 167 337 l 1
 140 337 l 2xaf
 111 337 94 353 94 376 c 0
 94 397 108 419 128 430 c 0x1f
 139 436 147 437 172 437 c 2
 288 437 l 1
 229 159 l 2
 227 151 226 144 226 137 c 0
 226 103 251 87 301 87 c 0
 351 87 379 100 443 155 c 1
 482 337 l 1
 437 337 l 2xaf
256 582 m 0
 256 614 288 654 330 654 c 0
 359 654 378 634 378 606 c 0
 378 564 338 534 305 534 c 0
 276 534 256 555 256 582 c 0
464 582 m 0
 464 614 496 654 538 654 c 0
 567 654 586 634 586 606 c 0
 586 564 546 534 513 534 c 0
 484 534 464 555 464 582 c 0
EndSplineSet
Validated: 1
EndChar

StartChar: yacute
Encoding: 253 253 199
Width: 600
Flags: W
HStem: -205 100<0.854507 165 275 322.002> 337 100<118.401 142 256 311.365 450.309 490 599 647.614>
VStem: 102 225<352.893 420.013> 435 228<351.713 420.957>
DStem2: 256 337 142 337 0.289451 -0.957193<0 232.558> 165 -105 275 -105 0.59239 0.805651<65.163 133.217 269.443 548.625> 551 680 428 512 0.814084 0.580748<-235.915 37.3668>
LayerCount: 2
Fore
SplineSet
435 375 m 0
 435 420 473 437 514 437 c 2
 606 437 l 2
 644 437 663 426 663 401 c 0
 663 363 635 337 599 337 c 1
 275 -105 l 1
 314 -105 337 -115 337 -142 c 0
 337 -186 304 -205 258 -205 c 2
 43 -205 l 2
 10 -205 -13 -194 -13 -167 c 0
 -13 -123 20 -105 65 -105 c 2
 165 -105 l 1
 243 3 l 1
 142 337 l 1
 116 337 102 352 102 374 c 0
 102 418 140 437 180 437 c 2
 270 437 l 2
 307 437 327 425 327 400 c 0
 327 360 297 338 256 337 c 1
 322 114 l 1
 490 337 l 1
 454 337 435 351 435 375 c 0
616 668 m 0
 616 650 606 639 585 624 c 2
 428 512 l 2
 410 500 402 496 392 496 c 0
 374 496 362 509 362 525 c 0
 362 534 365 549 394 569 c 2
 551 680 l 2
 569 693 575 696 586 696 c 0
 604 696 616 684 616 668 c 0
EndSplineSet
Validated: 1
EndChar

StartChar: thorn
Encoding: 254 254 200
Width: 600
Flags: W
HStem: -205 100<-27.3631 52 152 251.845> 10 100<262.291 440.211> 350 100<318.478 479.298> 524 100<126.998 185>
VStem: 522 102<183.046 310.336>
DStem2: 30.7443 -205 130.744 -205 0.207912 0.978148<123.025 297.773 442.712 535.309 630.995 745.141>
LayerCount: 2
Fore
SplineSet
112 561 m 0
 112 606 145 624 191 624 c 2
 307 624 l 1
 257 392 l 1
 315 434 361 450 424 450 c 0
 545 450 624 377 624 272 c 0
 624 115 481 10 331 10 c 0
 272 10 231 26 188 66 c 1
 152 -105 l 1
 210 -105 l 2
 248 -105 267 -116 267 -141 c 0
 267 -185 234 -205 188 -205 c 2
 14 -205 l 2
 -22 -205 -42 -194 -42 -168 c 0
 -42 -123 -10 -105 36 -105 c 2
 52 -105 l 1
 185 524 l 1
 169 524 l 2
 132 524 112 536 112 561 c 0
522 250 m 0
 522 294 493 350 397 350 c 0
 281 350 232 272 223 231 c 0
 221 223 220 215 220 207 c 0
 220 149 268 110 346 110 c 0
 434 110 522 165 522 250 c 0
EndSplineSet
Validated: 1
EndChar

StartChar: ydieresis
Encoding: 255 255 201
Width: 600
Flags: W
HStem: -205 100<0.854507 165 275 322.002> 337 100<118.401 142 256 311.365 450.309 490 599 647.614> 534 120<284.795 359.999 492.795 567.999>
VStem: 102 225<352.893 420.013> 261 122<556.892 630> 435 228<351.713 420.957> 469 122<556.892 630>
DStem2: 256 337 142 337 0.289451 -0.957193<0 232.558> 165 -105 275 -105 0.59239 0.805651<65.163 133.217 269.443 548.625>
LayerCount: 2
Fore
SplineSet
435 375 m 0xf4
 435 420 473 437 514 437 c 2
 606 437 l 2
 644 437 663 426 663 401 c 0
 663 363 635 337 599 337 c 1
 275 -105 l 1
 314 -105 337 -115 337 -142 c 0
 337 -186 304 -205 258 -205 c 2
 43 -205 l 2
 10 -205 -13 -194 -13 -167 c 0
 -13 -123 20 -105 65 -105 c 2
 165 -105 l 1
 243 3 l 1
 142 337 l 1
 116 337 102 352 102 374 c 0
 102 418 140 437 180 437 c 2
 270 437 l 2
 307 437 327 425 327 400 c 0
 327 360 297 338 256 337 c 1
 322 114 l 1
 490 337 l 1
 454 337 435 351 435 375 c 0xf4
261 582 m 0xe8
 261 614 293 654 335 654 c 0
 364 654 383 634 383 606 c 0
 383 564 343 534 310 534 c 0
 281 534 261 555 261 582 c 0xe8
469 582 m 0xe2
 469 614 501 654 543 654 c 0
 572 654 591 634 591 606 c 0
 591 564 551 534 518 534 c 0
 489 534 469 555 469 582 c 0xe2
EndSplineSet
Validated: 1
EndChar

StartChar: uni0E01
Encoding: 3585 3585 202
Width: 600
Flags: W
HStem: 0 21G<110 214.257 422 526.242> 363 82<282.117 455.852>
VStem: 481 100<232.678 339.623>
DStem2: 110 0 210 0 0.207912 0.978148<20.7912 256.946> 422 0 522 0 0.207912 0.978148<20.7912 293.606>
LayerCount: 2
Fore
SplineSet
411 445 m 0
 522 445 581 375 581 297 c 0
 581 286 580 275 578 264 c 10
 522 0 l 25
 422 0 l 25
 478 264 l 18
 480 272 481 280 481 288 c 0
 481 339 438 363 394 363 c 8
 330 363 270 354 227 311 c 1
 350 311 l 1
 340 264 l 1
 275 251 258 228 253 202 c 10
 210 0 l 25
 110 0 l 25
 153 202 l 18
 158 227 189 257 217 264 c 1
 136 264 l 1
 146 311 l 1
 217 419 316 445 411 445 c 0
EndSplineSet
Validated: 1
Comment: "Thai Gogai"
EndChar

StartChar: uni0E02
Encoding: 3586 3586 203
Width: 600
Flags: W
HStem: 0 102<202 235 335 445> 263 55<262.625 333.229> 398 54<270.787 367.5> 425 20G<513.743 618>
VStem: 212 49<320.213 388.046> 405 73<295.259 357.882>
DStem2: 423.319 0 523 0 0.207912 0.978148<104.279 454.961>
LayerCount: 2
Fore
SplineSet
294 318 m 0xec
 321 318 343 343 343 367 c 0
 343 385 330 398 311 398 c 0
 289 398 261 377 261 350 c 0
 261 332 275 318 294 318 c 0xec
212 333 m 0
 212 401 276 452 351 452 c 0xec
 384 452 409 441 437 420 c 8
 467 398 478 372 478 335 c 0
 478 270 368 257 348 164 c 2
 335 102 l 25
 445 102 l 25
 518 445 l 25
 618 445 l 25xdc
 523 0 l 17
 180 0 l 9
 202 102 l 25
 235 102 l 25
 251 179 l 18
 262 232 298 238 329 259 c 9
 354 281 405 295 405 328 c 0
 405 342 392 358 392 358 c 1
 392 358 374 263 269 263 c 0
 234 263 212 294 212 333 c 0
EndSplineSet
Validated: 1
EndChar

StartChar: uni0E03
Encoding: 3587 3587 204
Width: 600
Flags: W
HStem: 0 102<183 243 343 440> 204 50<173.9 247.42> 334 112<211.494 292.793>
VStem: 130 43<256.355 321.137> 255 47<261.806 332.262> 412 71<302.385 372>
DStem2: 418.319 0 518 0 0.207912 0.978148<104.279 454.961>
LayerCount: 2
Fore
SplineSet
207 254 m 0
 232 254 255 274 255 300 c 0
 255 319 243 334 224 334 c 0
 196 334 173 303 173 283 c 0
 173 265 188 254 207 254 c 0
302 306 m 0
 302 255 241 204 196 204 c 0
 153 204 130 241 130 288 c 0
 130 315 137 373 201 410 c 0
 227 425 265 446 302 446 c 0
 349 446 370 399 373 399 c 1
 398 446 422 447 430 447 c 0
 451 447 471 433 474 424 c 0
 480 405 483 392 483 377 c 0
 483 266 370 231 353 152 c 1
 343 102 l 25
 440 102 l 25
 513 445 l 25
 613 445 l 25
 518 0 l 17
 161 0 l 9
 183 102 l 25
 243 102 l 25
 256 163 l 18
 271 236 325 245 371 274 c 0
 405 295 412 279 412 333 c 0
 412 353 411 372 411 372 c 1
 373 300 l 1
 336 300 l 1
 321 372 l 1
 282 358 l 1
 282 358 302 337 302 306 c 0
EndSplineSet
Validated: 1
EndChar

StartChar: uni0E04
Encoding: 3588 3588 205
Width: 600
Flags: W
HStem: 0 21G<55 170.185 420 524.218> 138 48<300.249 370.08> 266 46<308.677 378.691> 363 82<274.273 443.595>
VStem: 381 48<197.693 262.882> 479 103<243.952 330.482>
DStem2: 54.547 0 155.392 0 0.207912 0.978148<168.184 355.939> 420 0 520 0 0.207912 0.978148<20.7912 293.789>
LayerCount: 2
Fore
SplineSet
328 186 m 0
 349 186 381 206 381 233 c 0
 381 252 364 266 345 266 c 0
 317 266 299 238 299 216 c 0
 299 199 310 186 328 186 c 0
429 243 m 0
 429 192 377 138 317 138 c 16
 298 138 283 155 278 162 c 9
 155 0 l 25
 55 0 l 25
 113 275 l 18
 137 386 271 445 383 445 c 16
 480 445 582 405 582 309 c 0
 582 298 581 287 578 275 c 10
 520 0 l 25
 420 0 l 25
 478 275 l 18
 479 279 479 284 479 288 c 0
 479 333 422 363 365 363 c 8
 303 363 225 330 213 275 c 10
 186 144 l 17
 246 222 l 1
 264 243 297 312 354 312 c 0
 397 312 429 283 429 243 c 0
EndSplineSet
Validated: 1
EndChar

StartChar: uni0E05
Encoding: 3589 3589 206
Width: 600
Flags: W
HStem: 0 21G<55 172.481 420 524.218> 111 48<294.011 365.038> 239 43<301.861 372.127> 358 84<250.633 299 445 471.1>
VStem: 375 48<169.499 235.743> 481 103<244.922 346.02>
DStem2: 54.547 0 155.392 0 0.207912 0.978148<168.184 368.289> 420 0 520 0 0.207912 0.978148<20.7912 306.783>
LayerCount: 2
Fore
SplineSet
322 159 m 0
 345 159 375 179 375 206 c 0
 375 225 359 239 339 239 c 0
 315 239 293 217 293 189 c 0
 293 172 304 159 322 159 c 0
423 216 m 0
 423 156 363 111 312 111 c 16
 293 111 278 128 273 135 c 9
 155 0 l 25
 55 0 l 25
 113 275 l 18
 148 440 310 442 317 442 c 1
 369 383 l 1
 445 442 l 1
 456 442 584 440 584 320 c 0
 584 307 582 292 578 275 c 10
 520 0 l 25
 420 0 l 25
 478 275 l 18
 480 285 481 294 481 301 c 0
 481 358 430 358 427 358 c 1
 381 316 l 1
 329 316 l 1
 299 358 l 1
 299 358 230 356 213 275 c 10
 186 144 l 17
 241 204 l 1
 266 227 292 282 349 282 c 0
 391 282 423 255 423 216 c 0
EndSplineSet
Validated: 1
EndChar

StartChar: uni0E06
Encoding: 3590 3590 207
Width: 600
Flags: W
HStem: -8 62<184.937 255.636> 0 21G<347.271 525.27> 134 64<193.091 263.01> 204 50<174.866 247.102> 426 19G<281.5 325.5 426 440.5 511.735 616>
VStem: 128 45<255.895 320.993> 133 50<55.8665 124.709> 255 47<262.358 332.648> 416 67<296.4 384.5>
DStem2: 419.469 -8 519.3 -8 0.207912 0.978148<108.368 463.171>
LayerCount: 2
Fore
SplineSet
207 254 m 0x3d80
 232 254 255 275 255 301 c 0
 255 319 243 334 224 334 c 0
 199 334 173 308 173 284 c 0
 173 266 188 254 207 254 c 0x3d80
215 54 m 0xbb80
 237 54 265 75 265 102 c 0
 265 120 251 134 232 134 c 0
 205 134 183 109 183 85 c 0
 183 67 196 54 215 54 c 0xbb80
133 63 m 0
 133 159 204 198 246 198 c 0
 276 198 306 186 306 186 c 9
 350 235 416 265 416 334 c 0
 416 354 411 372 411 372 c 1
 373 300 l 1
 336 300 l 1
 321 372 l 1
 282 358 l 1
 282 358 302 338 302 307 c 0
 302 256 241 204 196 204 c 0
 153 204 128 242 128 289 c 0
 128 402 261 446 302 446 c 0
 349 446 370 399 373 399 c 1
 398 446 422 447 430 447 c 0
 451 447 471 433 474 424 c 0
 480 405 483 392 483 377 c 0
 483 279 362 157 361 154 c 1
 442 98 l 9
 516 445 l 25
 616 445 l 25
 521 0 l 17
 371 0 l 1x7d80
 301 59 l 1
 301 59 293 20 274 8 c 17
 254 -3 235 -8 217 -8 c 0
 182 -8 133 15 133 63 c 0
EndSplineSet
Validated: 1
EndChar

StartChar: uni0E07
Encoding: 3591 3591 208
Width: 600
Flags: W
HStem: 0 21G<341.148 519.223> 256 46<444.554 467> 382 63<453.733 522.852>
VStem: 384 59<304.193 370.932> 525 64<312.346 379.935>
DStem2: 265 347 168 270 0.569368 -0.822083<8.07163 296.559> 412.894 0 515 0 0.207912 0.978148<106.323 261.655>
LayerCount: 2
Fore
SplineSet
477 302 m 0
 502 302 525 324 525 350 c 0
 525 368 513 382 494 382 c 0
 468 382 443 357 443 334 c 0
 443 315 457 302 477 302 c 0
384 324 m 0
 384 377 440 445 508 445 c 16
 552 445 589 409 589 362 c 0
 589 355 589 348 587 341 c 10
 515 0 l 25
 355 0 l 25
 168 270 l 25
 265 347 l 25
 435 104 l 25
 467 256 l 17
 466 256 l 2
 463 256 456 252 447 252 c 0
 431 252 384 280 384 324 c 0
EndSplineSet
Validated: 1
EndChar

StartChar: uni0E08
Encoding: 3592 3592 209
Width: 600
Flags: W
HStem: 0 21G<414.61 529.238> 120 52<324.821 387.471> 252 48<333.062 403.681> 363 82<307.278 469.992>
VStem: 271 52<174.138 240.879> 490 101<210.562 342.746>
DStem2: 424.778 0 524.808 0 0.207912 0.978148<164.597 314.693>
LayerCount: 2
Fore
SplineSet
357 172 m 0
 384 172 405 198 405 221 c 0
 405 239 393 252 374 252 c 0
 352 252 323 232 323 204 c 0
 323 186 338 172 357 172 c 0
271 186 m 0
 271 266 356 300 384 300 c 8
 410 300 425 294 441 276 c 24
 453 261 449 245 454 225 c 25
 459 161 l 25
 489 300 l 18
 490 303 490 305 490 308 c 0
 490 343 440 363 397 363 c 8
 343 363 313 348 257 311 c 9
 215 370 l 17
 289 432 335 445 415 445 c 0
 530 445 591 380 591 320 c 0
 591 314 590 308 589 302 c 10
 525 0 l 25
 420 0 l 25
 382 141 l 17
 371 126 356 120 340 120 c 0
 320 120 271 132 271 186 c 0
EndSplineSet
Validated: 1
EndChar

StartChar: uni0E09
Encoding: 3593 3593 210
Width: 600
Flags: W
HStem: 0 58<445.5 514.275> 148 35<204 253.5> 263 31<223.517 284.379> 364 81<252.117 406.364>
VStem: 166 41<185.794 251.36> 289 48<191.9 261.686> 422 103<206.875 346.829> 520 57<62.6452 118.399>
AnchorPoint: "AboveBase" 564 500 basechar 0
LayerCount: 2
Fore
SplineSet
241 183 m 0xfc
 266 183 289 205 289 231 c 0
 289 249 277 263 258 263 c 0
 232 263 207 238 207 215 c 0
 207 196 221 183 241 183 c 0xfc
486 120 m 0
 465 120 445 113 445 83 c 0
 445 64 457 58 484 58 c 0
 506 58 520 85 520 97 c 0xfd
 520 111 505 120 486 120 c 0
166 197 m 0
 166 259 221 294 264 294 c 16
 295 294 337 264 337 231 c 0
 337 228 337 225 336 222 c 2
 314 117 l 1
 394 166 l 9
 420 285 l 18
 422 293 422 300 422 307 c 0
 422 354 368 364 329 364 c 0
 270 364 216 323 171 288 c 9
 131 352 l 17
 197 413 272 445 362 445 c 16
 461 445 525 407 525 325 c 0xfe
 525 313 523 299 520 285 c 10
 494 163 l 17
 501 165 512 167 522 167 c 0
 560 167 577 125 577 100 c 0
 577 65 554 0 451 0 c 24
 414 0 386 56 386 56 c 1
 283 0 l 9
 184 0 l 25
 216 150 l 17
 216 150 214 148 209 148 c 0
 199 148 166 162 166 197 c 0
EndSplineSet
Validated: 1
EndChar

StartChar: uni0E0A
Encoding: 3594 3594 211
Width: 600
Flags: W
HStem: 0 102<202 235 335 445> 266 52<262.729 333.772> 398 54<277.38 371.5>
VStem: 213 48<320.517 387.051> 406 72<295.947 357.826> 479 102<230.125 392.688>
DStem2: 423.319 0 525 0 0.207912 0.978148<104.279 290.036 364.406 510.068>
LayerCount: 2
Fore
SplineSet
294 318 m 0
 321 318 343 343 343 367 c 0
 343 385 330 398 311 398 c 0
 289 398 261 377 261 350 c 0
 261 332 275 318 294 318 c 0
213 340 m 0
 213 408 299 452 356 452 c 0
 387 452 412 440 437 420 c 8
 465 397 478 372 478 335 c 1
 462 257 368 257 348 164 c 2
 335 102 l 25
 445 102 l 17
 479 263 l 1
 479 337 l 1
 501 391 518 445 529 499 c 9
 629 499 l 17
 615 434 600 376 581 337 c 1
 581 263 l 1
 525 0 l 1
 180 0 l 9
 202 102 l 25
 235 102 l 25
 251 179 l 18
 262 232 298 238 329 259 c 9
 352 278 406 298 406 330 c 0
 406 343 392 358 392 358 c 1
 392 358 369 266 283 266 c 0
 246 266 213 298 213 340 c 0
EndSplineSet
Validated: 1
EndChar

StartChar: uni0E0B
Encoding: 3595 3595 212
Width: 600
Flags: W
HStem: 0 102<183 243 343 440> 204 50<175.239 246.314> 334 112<212.5 317.25>
VStem: 130 43<256.494 322.684> 255 47<262.524 332.312> 411 71<301.626 372> 478 100<263.2 398.45>
DStem2: 418.319 0 518 0 0.207912 0.978148<104.279 512.024>
LayerCount: 2
Fore
SplineSet
207 254 m 0xf8
 231 254 255 274 255 302 c 0
 255 320 243 334 224 334 c 0
 201 334 173 312 173 285 c 0
 173 267 188 254 207 254 c 0xf8
302 308 m 0
 302 255 238 204 196 204 c 0
 154 204 130 241 130 288 c 0
 130 339 156 383 201 410 c 0
 226 425 265 446 302 446 c 0
 349 446 370 399 373 399 c 1
 399 447 423 447 430 447 c 0
 470 447 482 418 482 385 c 0xfc
 482 371 480 356 477 342 c 0
 459 259 370 233 355 162 c 2
 343 102 l 25
 440 102 l 17
 478 282 l 1
 479 342 l 1
 499 395 513 448 524 501 c 9
 624 501 l 17
 613 447 600 394 581 342 c 1
 578 282 l 1xfa
 518 0 l 1
 161 0 l 9
 183 102 l 25
 243 102 l 25
 255 162 l 17
 271 235 325 245 371 274 c 0
 387 284 405 287 408 301 c 0
 411 314 411 350 411 365 c 2
 411 372 l 1xfc
 373 300 l 1
 336 300 l 1
 321 372 l 1
 282 358 l 1
 282 358 302 338 302 308 c 0
EndSplineSet
Validated: 1
EndChar

StartChar: uni0E0C
Encoding: 3596 3596 213
Width: 600
Flags: W
HStem: 0 50<115.088 185.174 276.553 327.779> 276 41<215.342 277> 363 84<195.613 335.677>
VStem: 62 51<52.082 119.301> 195 40<60.6853 143.5> 239 37<47.401 107.329> 341 102<283.297 354.385>
DStem2: 271.928 -3 372.204 -3 0.207912 0.978148<183.401 333.099> 418.556 -3 518.362 -3 0.207912 0.978148<117.569 458.054>
LayerCount: 2
Fore
SplineSet
146 50 m 0
 173 50 195 75 195 99 c 0
 195 117 182 130 163 130 c 0
 141 130 113 109 113 82 c 0
 113 64 127 50 146 50 c 0
310 112 m 0
 295 112 276 98 276 76 c 0
 276 58 291 46 297 46 c 0
 317 46 330 66 330 83 c 0
 330 92 327 112 310 112 c 0
235 128 m 0
 235 79 199 0 141 0 c 0
 97 0 62 27 62 72 c 0
 62 78 62 85 64 93 c 10
 93 230 l 18
 98 253 128 271 154 276 c 1
 73 276 l 1
 81 317 l 1
 145 421 206 447 286 447 c 0
 370 447 443 415 443 341 c 0
 443 332 442 323 440 313 c 2
 406 156 l 1
 443 112 l 1
 514 445 l 1
 614 445 l 1
 519 0 l 1
 412 0 l 1
 373 50 l 1
 361 17 346 -3 311 -3 c 0
 292 -3 239 3 239 58 c 0
 239 84 245 136 278 155 c 0
 300 168 307 162 307 162 c 1
 340 313 l 2
 341 317 341 320 341 323 c 0
 341 359 297 363 268 363 c 8
 229 363 203 356 169 317 c 1
 285 317 l 1
 277 276 l 1
 224 264 197 251 193 230 c 2
 178 162 l 1
 178 162 187 166 198 166 c 0
 209 166 235 159 235 128 c 0
EndSplineSet
Validated: 1
EndChar

StartChar: uni0E0D
Encoding: 3597 3597 214
Width: 600
Flags: W
HStem: -198 58<258.541 346> -67 51<267.649 332.556> 0 102<407 458> 0 43<152.046 221.819> 123 30<186.5 226.844> 363 82<214.788 340.319>
VStem: 89 61<44.5063 113.66> 219 39<-137.327 -78.3842> 232 44<52.4391 120.957> 334 48<-105.248 -50> 352 102<282.426 347.307>
DStem2: 241.914 -198 343.233 -198 0.207912 0.978148<327.768 528.544> 394.233 -198 493.914 -198 0.207912 0.978148<306.702 657.384>
LayerCount: 2
Fore
SplineSet
182 43 m 0xde80
 203 43 232 62 232 90 c 0
 232 109 218 123 199 123 c 0
 174 123 150 100 150 74 c 0
 150 56 163 43 182 43 c 0xde80
289 -140 m 0
 310 -140 334 -123 334 -97 c 0
 334 -81 322 -67 305 -67 c 0
 282 -67 258 -92 258 -113 c 0xcf40
 258 -129 271 -140 289 -140 c 0
219 -120 m 0
 219 -81 258 -16 316 -16 c 16
 347 -16 382 -35 382 -65 c 0
 382 -77 377 -91 374 -106 c 1
 427 -106 474 -51 502 -30 c 9
 549 -86 l 17
 499 -138 469 -161 408 -183 c 16
 380 -194 357 -198 335 -198 c 0
 286 -198 219 -173 219 -120 c 0
276 105 m 0xdea0
 276 71 256 0 166 0 c 0xdea0
 125 0 89 22 89 65 c 0
 89 71 90 77 91 84 c 10
 122 230 l 18
 127 253 156 271 183 276 c 1
 102 276 l 1
 110 317 l 1
 172 421 216 445 295 445 c 16
 376 445 454 399 454 332 c 0
 454 326 453 320 452 314 c 2
 407 102 l 1
 458 102 l 1xeea0
 531 445 l 1
 631 445 l 1
 536 0 l 1
 284 0 l 17
 351 314 l 2
 351 316 352 318 352 319 c 0
 352 345 313 363 277 363 c 8
 242 363 223 356 191 317 c 1
 314 317 l 1
 306 276 l 1
 253 264 230 266 222 230 c 2
 204 147 l 1
 204 147 212 153 224 153 c 0
 233 153 276 143 276 105 c 0xdea0
EndSplineSet
Validated: 1
Substitution2: "'ccmp' Pali-Sanskrit Descender Removal" uni0E0D.descless
Substitution2: "Thai Descender Removal Single Substitution" uni0E0D.descless
EndChar

StartChar: uni0E0E
Encoding: 3598 3598 215
Width: 600
Flags: W
HStem: -177 48<198.132 270.491> -57 46<206.571 278.092> -20 41<123.779 193.245> 101 43<132.093 179.44> 363 82<300.103 475.663>
VStem: 82 40<23.3016 90.4164> 139 58<-128.387 -65.4066> 484 102<274.075 351.463>
DStem2: 379.295 -182 479 -182 0.207912 0.978148<89.966 511.638>
AnchorPoint: "BelowBase" 477 -200 basechar 0
LayerCount: 2
Fore
SplineSet
154 21 m 0xbf
 176 21 204 42 204 69 c 0
 204 87 190 101 171 101 c 0
 144 101 122 76 122 52 c 0
 122 34 135 21 154 21 c 0xbf
197 -103 m 0
 197 -118 207 -129 224 -129 c 0
 232 -129 242 -126 253 -122 c 8
 270 -115 273 -102 287 -90 c 17
 283 -81 259 -57 240 -57 c 0xdf
 221 -57 197 -80 197 -103 c 0
82 47 m 0
 82 99 127 144 165 144 c 0
 173 144 177 141 177 141 c 1
 192 211 l 2
 197 236 226 257 250 264 c 1
 148 264 l 1
 158 311 l 1
 230 419 325 445 419 445 c 0
 506 445 586 412 586 334 c 0
 586 325 585 316 583 306 c 10
 479 -182 l 25
 379 -182 l 17
 316 -119 l 1
 316 -119 280 -155 270 -160 c 0
 258 -165 228 -177 201 -177 c 0
 158 -177 139 -146 139 -121 c 0
 139 -49 231 -11 265 -11 c 0xdf
 285 -11 305 -21 316 -28 c 1
 373 34 l 1
 406 0 l 1
 355 -50 l 1
 398 -94 l 1
 483 306 l 2
 484 311 484 315 484 319 c 0
 484 358 437 363 401 363 c 8
 346 363 299 352 260 311 c 1
 362 311 l 1
 352 264 l 1
 313 251 299 253 290 211 c 10
 257 57 l 18
 250 24 203 -20 152 -20 c 0xbf
 111 -20 82 9 82 47 c 0
EndSplineSet
Validated: 1
EndChar

StartChar: uni0E0F
Encoding: 3599 3599 216
Width: 600
Flags: W
HStem: -180 60<129.297 213.032> -60 58<141.932 239.5> 0 50<145.985 215.973> 276 41<312.832 362> 363 82<300.591 486.8>
VStem: 78 51<-141 -72.9772> 96 48<52.5162 119.467> 493 104<227.211 352.652>
DStem2: 269 -12 305 -44 0.613941 0.789352<-3.15741 86.1271> 386.595 -180 489 -180 0.207912 0.978148<98.1447 513.993>
AnchorPoint: "BelowBase" 484 -200 basechar 0
LayerCount: 2
Fore
SplineSet
177 50 m 0xfb
 204 50 226 75 226 99 c 0
 226 117 213 130 194 130 c 0
 172 130 144 109 144 82 c 0
 144 64 158 50 177 50 c 0xfb
129 -100 m 0xfd
 129 -106 135 -120 156 -120 c 0
 203 -120 210 -99 229 -87 c 25
 213 -76 209 -60 189 -60 c 24
 151 -60 129 -91 129 -100 c 0xfd
138 -180 m 0
 101 -180 78 -158 78 -124 c 0xfd
 78 -68 133 -23 159 -16 c 1
 194 -5 215 -2 230 -2 c 0
 249 -2 257 -8 269 -12 c 1
 325 60 l 1
 363 24 l 1
 305 -44 l 1
 321 -65 l 1
 359 -18 l 1
 407 -84 l 1
 492 313 l 2
 493 316 493 320 493 323 c 0
 493 359 445 363 408 363 c 8
 354 363 306 355 268 317 c 1
 370 317 l 1
 362 276 l 1
 323 264 309 266 301 229 c 10
 272 93 l 18
 263 53 213 0 163 0 c 16
 121 0 96 33 96 73 c 0xfb
 96 114 122 159 165 174 c 24
 174 177 190 168 190 168 c 1
 203 229 l 2
 208 252 235 270 260 276 c 1
 160 276 l 1
 168 317 l 1
 238 421 333 445 426 445 c 0
 514 445 597 414 597 338 c 0
 597 330 596 322 594 313 c 10
 489 -180 l 25
 387 -180 l 17
 338 -126 l 1
 298 -175 l 1
 247 -129 l 1
 247 -129 218 -151 217 -156 c 1
 201 -166 168 -180 138 -180 c 0
EndSplineSet
Validated: 1
EndChar

StartChar: uni0E10
Encoding: 3600 3600 217
Width: 600
Flags: W
HStem: -198 107<436.007 490.187> -198 53<102.111 179.168> -71 54<105.746 181.849> -36 27<443.731 490.761> 0 21G<410.784 524.292> 79 54<305.385 374.586> 213 44<313.59 383.318> 291 68<396 458.137> 376 69<396.912 541.925>
VStem: 44 54<-140.482 -79.158> 260 44<134.51 202.597> 402 34<-89.8318 -41.4311> 475 99<149.352 272.927> 493 35<-85.8026 -37.0074>
DStem2: 219 -40 263 -55 0.641421 0.767189<16.7147 79.511> 356 -30 342 -92 0.558177 -0.829722<43.6283 132.575>
LayerCount: 2
Fore
SplineSet
459 -91 m 0x9ff4
 479 -91 493 -71 493 -58 c 0
 493 -45 483 -36 470 -36 c 0
 452 -36 436 -52 436 -70 c 0
 436 -82 445 -91 459 -91 c 0x9ff4
336 133 m 0
 357 133 386 152 386 180 c 0
 386 199 372 213 353 213 c 0
 328 213 304 190 304 164 c 0
 304 146 317 133 336 133 c 0
260 144 m 0
 260 226 334 257 364 257 c 8
 413 257 424 228 445 182 c 25
 456 144 l 25
 474 231 l 18
 475 234 475 237 475 240 c 0
 475 274 425 291 382 291 c 0
 346 291 310 290 263 290 c 9
 277 358 l 17
 326 405 360 445 464 445 c 0
 551 445 632 405 632 405 c 1
 600 322 l 1
 600 322 522 376 458 376 c 24
 434 376 396 359 396 359 c 1
 413 359 l 2
 436 359 477 357 501 345 c 0
 538 327 574 321 574 268 c 0x0ff8
 574 258 573 247 570 233 c 10
 520 0 l 25
 420 0 l 25
 373 102 l 17
 362 86 344 79 327 79 c 0
 304 79 260 92 260 144 c 0
402 -73 m 0
 402 -51 415 -9 475 -9 c 0x1ff8
 503 -9 528 -25 528 -49 c 0
 528 -52 528 -54 527 -57 c 2
 497 -198 l 1
 418 -198 l 1
 342 -92 l 1
 279 -185 l 1
 230 -119 l 1
 230 -119 199 -164 191 -174 c 1
 178 -187 148 -198 120 -198 c 0
 70 -198 44 -159 44 -123 c 0
 44 -53 110 -17 144 -17 c 0x6ff4
 190 -17 219 -40 219 -40 c 1
 270 21 l 1
 310 -4 l 1
 263 -55 l 1
 297 -99 l 1
 356 -30 l 1
 430 -140 l 1
 434 -123 l 1
 434 -123 402 -108 402 -73 c 0
98 -111 m 0
 98 -117 106 -145 138 -145 c 0
 170 -145 192 -106 194 -106 c 1
 194 -106 168 -71 140 -71 c 24x6ff0
 119 -71 98 -98 98 -111 c 0
EndSplineSet
Validated: 1
Substitution2: "'ccmp' Pali-Sanskrit Descender Removal" uni0E10.descless
Substitution2: "Thai Descender Removal Single Substitution" uni0E10.descless
EndChar

StartChar: uni0E11
Encoding: 3601 3601 218
Width: 600
Flags: W
HStem: 0 21G<168 278.031 474 579.224> 204 50<120.854 193.769> 334 112<158.494 239.793> 350 95<508.449 574.999>
VStem: 76 44<256.561 321.919> 202 47<262.026 332.262> 359 71<302.29 372> 543 103<290.254 350>
DStem2: 289 136 263 0 0.600804 0.799396<0 316.626> 474 0 575 0 0.207912 0.978148<20.9991 339.886>
LayerCount: 2
Fore
SplineSet
154 254 m 0xef
 179 254 202 274 202 300 c 0
 202 319 190 334 171 334 c 0
 143 334 120 303 120 283 c 0
 120 265 135 254 154 254 c 0xef
320 399 m 1
 345 446 369 447 377 447 c 0
 398 447 418 433 421 424 c 0
 427 405 430 392 430 377 c 0
 430 262 311 240 295 164 c 2
 289 136 l 9
 349 212 407 290 464 370 c 17
 501 434 515 445 550 445 c 0
 607 445 646 406 646 350 c 0
 646 341 645 332 643 322 c 2
 575 0 l 25
 474 0 l 17
 542 322 l 2
 543 326 543 329 543 333 c 0
 543 343 539 350 532 350 c 0xdf
 517 350 503 318 502 318 c 2
 263 0 l 9
 168 0 l 25
 203 163 l 18
 218 236 272 245 318 274 c 0
 352 295 359 279 359 333 c 0
 359 353 358 372 358 372 c 1
 320 300 l 1
 283 300 l 1
 268 372 l 1
 229 358 l 1
 229 358 249 337 249 306 c 0
 249 256 190 204 143 204 c 0
 100 204 76 242 76 288 c 0
 76 321 84 373 148 410 c 0
 174 425 212 446 249 446 c 0
 296 446 317 399 320 399 c 1
EndSplineSet
Validated: 1
EndChar

StartChar: uni0E12
Encoding: 3602 3602 219
Width: 600
Flags: W
HStem: -1 46<332.295 386.428> 95 42<336.397 381.167> 254 42<241.877 312.398> 425 20G<252.5 285.222 358 411 575.78 680>
VStem: 197 35<178.122 240.477> 291 41<45.7551 88.2697> 314 45<183.895 252.191> 416 104<276.27 349.032>
DStem2: 16.7874 -1 117.256 -1 0.207912 0.978148<130.279 378.179> 349.88 -1 450.242 -1 0.207912 0.978148<163.994 321.864> 486.169 -1 585.787 -1 0.207912 0.978148<100.189 453.806>
LayerCount: 2
Fore
SplineSet
265 174 m 0xfb
 290 174 314 197 314 223 c 0
 314 241 301 254 282 254 c 0
 261 254 232 235 232 207 c 0
 232 188 246 174 265 174 c 0xfb
371 95 m 0
 359 95 332 82 332 61 c 16xfd
 332 50 342 45 353 45 c 0
 379 45 396 83 397 83 c 2
 397 83 384 95 371 95 c 0
197 204 m 0
 197 224 219 296 293 296 c 16
 338 296 359 274 359 237 c 0xfb
 359 164 282 99 262 87 c 9
 134 0 l 25
 17 0 l 25
 83 309 l 18
 111 442 247 445 258 445 c 2
 259 445 l 1
 318 400 l 1
 390 445 l 1
 397 445 l 2
 425 445 520 438 520 345 c 0
 520 334 519 322 516 309 c 2
 480 139 l 1
 507 97 l 1
 580 443 l 1
 680 443 l 1
 586 0 l 1
 465 0 l 1
 436 46 l 1
 415 29 383 -1 351 -1 c 0
 320 -1 291 21 291 56 c 0
 291 101 336 137 366 137 c 0
 373 137 379 136 379 136 c 1
 416 309 l 1
 416 314 l 2
 416 343 372 364 372 364 c 1
 325 326 l 1
 275 326 l 1
 241 364 l 1
 241 364 189 340 183 309 c 10
 140 106 l 17
 214 158 l 2
 213 158 197 181 197 204 c 0
EndSplineSet
Validated: 1
EndChar

StartChar: uni0E13
Encoding: 3603 3603 220
Width: 600
Flags: W
HStem: -7 61<487.599 568.544> 0 42<120.578 189.232> 122 29<157.5 205> 138 56<554.122 600.497> 276 41<214.706 277> 363 82<197.223 304.804>
VStem: 71 47<43.9159 111.584> 200 38<53.4502 119.2> 314 101<223.193 353.67> 467 62<22.5 77.7728> 588 41<66.6692 137.292>
DStem2: 410.479 -7 512.551 -7 0.207912 0.978148<220.579 460.026>
AnchorPoint: "AboveBase" 621 500 basechar 0
LayerCount: 2
Fore
SplineSet
151 42 m 0x6fe0
 176 42 200 65 200 91 c 0
 200 109 187 122 168 122 c 0
 147 122 118 103 118 75 c 0
 118 56 132 42 151 42 c 0x6fe0
588 121 m 0
 588 135 579 138 573 138 c 0
 564 138 556 129 544 125 c 1
 540 108 529 85 529 70 c 0
 529 61 534 54 545 54 c 0x9fe0
 572 54 588 101 588 121 c 0
238 107 m 0
 238 67 212 0 142 0 c 0x6fe0
 103 0 71 20 71 62 c 0
 71 69 71 76 73 83 c 10
 104 230 l 18
 109 253 138 271 165 276 c 1
 84 276 l 1
 92 317 l 1
 154 421 200 445 277 445 c 0
 360 445 415 390 415 332 c 0
 415 325 414 319 413 313 c 2
 367 100 l 1
 443 146 l 1
 506 443 l 1
 608 443 l 1
 554 188 l 1
 554 188 572 194 587 194 c 0
 613 194 629 169 629 135 c 0
 629 94 607 45 584 26 c 0
 559 6 530 -7 506 -7 c 0x9fe0
 472 -7 467 14 467 31 c 0
 467 53 475 78 475 78 c 1
 344 0 l 1
 246 0 l 17
 246 0 314 315 314 319 c 0
 314 344 288 363 259 363 c 8
 224 363 205 356 173 317 c 1
 285 317 l 1
 277 276 l 1
 222 264 212 266 204 230 c 2
 186 148 l 1
 186 148 190 151 198 151 c 0x6fe0
 212 151 238 137 238 107 c 0
EndSplineSet
Validated: 1
EndChar

StartChar: uni0E14
Encoding: 3604 3604 221
Width: 600
Flags: W
HStem: 0 21G<69 226.047 417 521.251> 260 47<309.815 380.898> 342 103<262.778 458.771>
VStem: 251 49<182.479 249.705> 382 47<189.467 258.547>
DStem2: 69 0 169.744 0 0.207912 0.978148<123.18 351.237> 417 0 517 0 0.207912 0.978148<20.7912 320.864>
LayerCount: 2
Fore
SplineSet
334 180 m 0
 359 180 382 204 382 230 c 0
 382 248 370 260 351 260 c 0
 329 260 300 241 300 213 c 0
 300 195 315 180 334 180 c 0
251 205 m 0
 251 252 300 307 361 307 c 16
 402 307 429 278 429 239 c 0
 429 171 335 109 335 107 c 1
 201 0 l 9
 69 0 l 25
 130 287 l 18
 153 394 274 445 391 445 c 0
 511 445 581 393 581 317 c 0
 581 307 580 297 578 287 c 10
 517 0 l 25
 417 0 l 25
 478 287 l 17
 478 312 454 342 369 342 c 0
 285 342 237 317 231 286 c 10
 191 100 l 17
 271 164 l 17
 271 164 251 176 251 205 c 0
EndSplineSet
Validated: 1
EndChar

StartChar: uni0E15
Encoding: 3605 3605 222
Width: 600
Flags: W
HStem: 0 21G<55 195 420 524.218> 235 47<294.026 365.898> 358 84<250.633 299 445 471.1>
VStem: 236 49<157.353 224.408> 367 47<165.104 233.333> 481 103<244.922 346.02>
DStem2: 55 0 154.744 0 0.207912 0.978148<122.972 368.195> 420 0 520 0 0.207912 0.978148<20.7912 306.783>
LayerCount: 2
Fore
SplineSet
319 155 m 0
 343 155 367 178 367 205 c 0
 367 222 355 235 336 235 c 0
 313 235 285 215 285 188 c 0
 285 169 300 155 319 155 c 0
236 181 m 0
 236 239 296 282 346 282 c 16
 387 282 414 252 414 214 c 0
 414 148 320 84 319 82 c 1
 155 0 l 25
 55 0 l 25
 113 275 l 18
 148 440 310 442 317 442 c 1
 369 383 l 1
 445 442 l 1
 456 442 584 440 584 320 c 0
 584 307 582 292 578 275 c 10
 520 0 l 25
 420 0 l 25
 478 275 l 18
 480 285 481 294 481 301 c 0
 481 358 430 358 427 358 c 1
 381 316 l 1
 329 316 l 1
 299 358 l 1
 299 358 230 356 213 275 c 10
 176 100 l 17
 256 139 l 17
 256 139 236 152 236 181 c 0
EndSplineSet
Validated: 1
EndChar

StartChar: uni0E16
Encoding: 3606 3606 223
Width: 600
Flags: W
HStem: 0 44<198.923 268.723> 124 34<232.5 297.5> 366 79<299.384 482.476>
VStem: 146 51<45.3948 113.92> 279 51<54.4868 121.88> 498 101<218.213 349.475>
LayerCount: 2
Fore
SplineSet
229 44 m 0
 251 44 279 65 279 92 c 0
 279 110 265 124 246 124 c 0
 219 124 197 99 197 75 c 0
 197 57 210 44 229 44 c 0
330 98 m 0
 330 52 274 0 228 0 c 0
 182 0 146 29 146 71 c 0
 146 76 147 81 148 86 c 10
 177 219 l 18
 181 242 213 269 239 275 c 1
 158 275 l 1
 167 317 l 1
 237 422 339 445 430 445 c 0
 525 445 599 390 599 330 c 0
 599 315 531 0 529 0 c 2
 430 0 l 17
 430 0 498 317 498 320 c 0
 498 346 453 366 413 366 c 8
 350 366 290 356 248 317 c 1
 386 317 l 1
 377 275 l 1
 314 263 284 256 277 219 c 1
 263 156 l 1
 263 156 267 158 276 158 c 0
 319 158 330 120 330 98 c 0
EndSplineSet
Validated: 1
EndChar

StartChar: uni0E17
Encoding: 3607 3607 224
Width: 600
Flags: W
HStem: 0 21G<165 271.152 437 541.26> 279 43<197.527 239> 366 79<452.549 541.5> 402 46<205.193 275.692>
VStem: 145 51<323.952 392.927> 278 67<332.168 400.127>
DStem2: 312 225 444 330 0.486991 0.873407<0 206.426> 437 0 537 0 0.207912 0.978148<20.7912 368.101>
LayerCount: 2
Fore
SplineSet
228 322 m 0xdc
 250 322 278 343 278 370 c 0
 278 388 264 402 245 402 c 0
 218 402 196 377 196 353 c 0
 196 335 209 322 228 322 c 0xdc
145 338 m 0
 145 410 205 448 256 448 c 16xdc
 309 448 345 431 345 389 c 0
 345 383 344 376 342 368 c 2
 312 225 l 25
 393 370 l 18
 429 435 478 445 513 445 c 0
 570 445 612 417 612 364 c 0
 612 356 611 347 609 338 c 2
 537 0 l 25
 437 0 l 17
 509 338 l 1
 509 351 502 366 485 366 c 0xec
 458 366 446 333 444 330 c 2
 260 0 l 9
 165 0 l 25
 225 282 l 17
 225 282 218 279 208 279 c 0
 196 279 145 294 145 338 c 0
EndSplineSet
Validated: 1
EndChar

StartChar: uni0E18
Encoding: 3608 3608 225
Width: 600
Flags: W
HStem: 0 100<186 246 346 437> 296 57<299 400.423> 370 75<300.538 539.486>
DStem2: 415.744 0 516 0 0.207912 0.978148<102.234 253.356>
LayerCount: 2
Fore
SplineSet
452 445 m 0
 529 445 603 412 603 412 c 1
 563 339 l 1
 563 339 491 370 439 370 c 24
 386 370 299 353 299 353 c 1
 299 353 394 349 452 337 c 16
 519 323 567 288 567 243 c 0
 567 238 566 234 565 229 c 2
 516 0 l 1
 165 0 l 17
 186 100 l 1
 246 100 l 1
 277 245 l 1
 377 245 l 1
 346 100 l 9
 437 100 l 25
 465 229 l 1
 465 252 410 275 372 282 c 0
 316 293 278 296 250 296 c 0
 217 296 197 292 177 292 c 9
 188 345 l 17
 273 436 329 445 452 445 c 0
EndSplineSet
Validated: 1
EndChar

StartChar: uni0E19
Encoding: 3609 3609 226
Width: 600
Flags: W
HStem: -2 72<424.458 502.188> 280 42<189.55 202> 402 38<200.228 267.078>
VStem: 128 60<323.984 390.717> 270 51<332.731 400.078> 522 56<79.9041 182>
DStem2: 142.575 -2 242.256 -2 0.207912 0.978148<130.115 288.193> 354.378 -2 454.812 -2 0.207912 0.978148<247.841 457.113>
AnchorPoint: "AboveBase" 560 500 basechar 0
LayerCount: 2
Fore
SplineSet
473 70 m 0
 498 70 522 93 522 119 c 0
 522 137 509 150 490 150 c 0
 469 150 440 131 440 103 c 0
 440 84 454 70 473 70 c 0
220 322 m 0
 242 322 270 343 270 370 c 0
 270 388 256 402 237 402 c 0
 210 402 188 377 188 353 c 0
 188 335 201 322 220 322 c 0
578 165 m 0
 578 36 474 -2 438 -2 c 0
 407 -2 372 56 372 81 c 1
 241 0 l 9
 143 0 l 25
 202 280 l 17
 185 280 l 2
 155 280 128 313 128 343 c 0
 128 382 187 440 247 440 c 16
 287 440 321 422 321 378 c 0
 321 371 321 364 319 357 c 2
 265 105 l 1
 392 175 l 9
 450 445 l 1
 550 445 l 9
 502 220 l 17
 502 220 513 223 526 223 c 0
 555 223 578 199 578 165 c 0
EndSplineSet
Validated: 1
EndChar

